<svg width="17" height="17" viewBox="0 0 17 17" fill="none" xmlns="http://www.w3.org/2000/svg">
<g clip-path="url(#clip0)">
<path d="M9.05502 12.4197C9.43493 12.0401 9.81484 11.6604 10.1997 11.2857C10.8707 10.6201 11.7637 10.6201 12.4347 11.2857C13.0564 11.902 13.688 12.5331 14.3343 13.179C15.0152 13.8643 15.0102 14.7567 14.3294 15.447C13.9643 15.8118 13.0416 16.3344 12.568 16.5908C11.7983 17.0345 10.5451 17.1332 9.74084 16.8225C5.79371 15.6195 2.40411 12.183 0.751256 8.47045C0.544032 8.00207 0.272667 7.37098 0.154253 6.87301C-0.146715 6.03977 0.0210376 4.78745 0.52923 4.04789C0.810463 3.61402 1.21011 3.0273 1.58015 2.66738C2.25116 2.00671 3.1442 2.00671 3.81521 2.66738C4.09151 2.93362 5.27071 4.11692 5.69996 4.55079C6.39071 5.25091 6.39565 6.13345 5.7049 6.82863C5.27071 7.26251 4.83653 7.69638 4.40235 8.13519C4.63424 8.71697 4.94014 9.32341 5.27565 9.85096C5.77397 10.6349 6.26243 11.1279 7.02719 11.6456C7.58472 12.0203 8.23599 12.3704 8.8626 12.6218C8.8922 12.5923 8.93167 12.5528 9.05996 12.4246L9.05502 12.4197Z" fill="white"/>
<path d="M15.4493 0.261235C15.8095 -0.0937531 16.3868 -0.0888226 16.7371 0.271096C17.0923 0.631015 17.0874 1.20787 16.7272 1.55793L10.8855 7.3117C10.5253 7.66669 9.94803 7.66176 9.59773 7.30184C9.24249 6.94192 9.24742 6.36506 9.60759 6.01501L15.4493 0.261235Z" fill="white"/>
<path d="M8.58625 2.5527C8.59118 2.0498 9.0007 1.6455 9.50396 1.65044C10.0072 1.65537 10.4118 2.06459 10.4069 2.56749L10.3674 6.59562L14.0876 6.38361C14.5908 6.35403 15.0201 6.7386 15.0497 7.2415C15.0793 7.7444 14.6944 8.17335 14.1912 8.20293L9.49902 8.46917C9.47929 8.46917 9.45955 8.46917 9.43981 8.46917C8.93656 8.46424 8.53198 8.05502 8.53691 7.55212L8.58625 2.54777V2.5527Z" fill="white"/>
</g>
<defs>
<clipPath id="clip0">
<rect width="17" height="17" fill="white"/>
</clipPath>
</defs>
</svg>
