<svg width="19" height="13" fill="none" xmlns="http://www.w3.org/2000/svg"><path d="M1.854 0C.825 0 0 .824 0 1.813v9.163c0 .99.825 1.82 1.854 1.82h15.292c1.029 0 1.854-.83 1.854-1.82V1.813C19 .823 18.175 0 17.146 0H1.854zm0 .883h15.292c.137 0 .267.037.384.09l-7.458 6.742c-.342.31-.787.31-1.13 0L1.47.972a.948.948 0 01.384-.09zM.94 1.71l5.28 4.764-5.192 4.937a.958.958 0 01-.101-.435V1.813c0-.036.01-.069.014-.103zm17.118 0c.003.034.014.067.014.103v9.163a.96.96 0 01-.101.428l-5.178-4.937L18.06 1.71zM12.12 7.08l5.069 4.834H1.817l5.076-4.826 1.412 1.268a1.813 1.813 0 002.404 0l1.412-1.275z" fill="#007BC5"/></svg>