<svg width="26" height="26" viewBox="0 0 26 26" fill="none" xmlns="http://www.w3.org/2000/svg">
<path d="M15.4465 18.1864C16.0946 17.5388 16.7427 16.8912 17.3992 16.252C18.5438 15.1165 20.0672 15.1165 21.2119 16.252C22.2724 17.3033 23.3497 18.3799 24.4523 19.4817C25.6138 20.6507 25.6054 22.1731 24.4439 23.3506C23.8211 23.973 22.2472 24.8645 21.4392 25.3018C20.1262 26.0588 17.9883 26.227 16.6164 25.6971C9.88308 23.6449 4.10083 17.7827 1.28125 11.4495C0.927745 10.6505 0.464829 9.57389 0.262829 8.72441C-0.250588 7.30301 0.035579 5.1667 0.902495 3.9051C1.38225 3.16496 2.06399 2.16409 2.69524 1.55011C3.83991 0.423076 5.36333 0.423076 6.50799 1.55011C6.97933 2.00428 8.99091 4.02284 9.72316 4.76298C10.9015 5.9573 10.9099 7.46281 9.73158 8.64871C8.99091 9.38885 8.25024 10.129 7.50958 10.8775C7.90516 11.87 8.42699 12.9045 8.99933 13.8045C9.84941 15.1418 10.6827 15.9828 11.9872 16.8659C12.9383 17.5052 14.0493 18.1023 15.1182 18.5313C15.1687 18.4808 15.2361 18.4135 15.4549 18.1948L15.4465 18.1864Z" fill="#F12115"/>
</svg>
