<svg width="15" height="22" viewBox="0 0 15 22" fill="none" xmlns="http://www.w3.org/2000/svg">
<path d="M10.0992 6.98461C10.0985 6.44601 9.93824 5.91969 9.63855 5.47217C9.33885 5.02465 8.91322 4.67602 8.41543 4.47034C7.91765 4.26467 7.37007 4.21118 6.8419 4.31665C6.31372 4.42211 5.82867 4.68179 5.44805 5.06286C5.06742 5.44393 4.80832 5.92929 4.70347 6.45759C4.59863 6.98588 4.65276 7.53341 4.85902 8.03095C5.06528 8.52849 5.41441 8.95371 5.86228 9.25288C6.31015 9.55204 6.83667 9.71171 7.37527 9.71171C8.09798 9.71086 8.79081 9.42317 9.30155 8.91183C9.81229 8.40049 10.0992 7.70733 10.0992 6.98461ZM5.45025 6.98461C5.45025 6.60387 5.56315 6.23169 5.77467 5.91513C5.9862 5.59856 6.28684 5.35182 6.63859 5.20612C6.99034 5.06042 7.3774 5.0223 7.75082 5.09658C8.12423 5.17086 8.46724 5.3542 8.73646 5.62341C9.00568 5.89263 9.18902 6.23564 9.26329 6.60906C9.33757 6.98247 9.29945 7.36953 9.15375 7.72128C9.00805 8.07303 8.76131 8.37368 8.44475 8.5852C8.12818 8.79672 7.756 8.90962 7.37527 8.90962C6.86472 8.90962 6.37508 8.70681 6.01407 8.3458C5.65306 7.98479 5.45025 7.49515 5.45025 6.98461Z" fill="#3C3F47"/>
<path d="M10.0318 15.798C11.9568 13.1029 14.3598 9.27537 14.3598 6.9846C14.3598 5.13217 13.624 3.35561 12.3141 2.04574C11.0042 0.735876 9.22766 0 7.37523 0C5.5228 0 3.74623 0.735876 2.43637 2.04574C1.1265 3.35561 0.390625 5.13217 0.390625 6.9846C0.390625 9.27537 2.79369 13.0997 4.7187 15.798C2.0686 16.2375 0.390625 17.2899 0.390625 18.554C0.390625 20.2448 3.39365 21.5217 7.37523 21.5217C11.3568 21.5217 14.3598 20.2383 14.3598 18.554C14.3598 17.2866 12.6819 16.2375 10.0318 15.798ZM7.37523 0.814924C9.01219 0.816613 10.5818 1.46677 11.7405 2.62307C12.8992 3.77938 13.5526 5.34764 13.5577 6.9846C13.5577 9.99725 8.65857 16.3594 7.37523 17.9893C6.09188 16.3594 1.19272 9.99725 1.19272 6.98781C1.19696 5.3503 1.85 3.78121 3.0088 2.62421C4.1676 1.46721 5.73771 0.816616 7.37523 0.814924V0.814924ZM7.37523 20.7068C3.73053 20.7068 1.19272 19.5646 1.19272 18.5411C1.19272 17.816 2.61081 16.876 5.24808 16.5166C6.21059 17.8385 6.97739 18.7625 7.06402 18.8716C7.10164 18.9173 7.14891 18.9541 7.20244 18.9793C7.25597 19.0046 7.31443 19.0177 7.37362 19.0177C7.43282 19.0177 7.49127 19.0046 7.5448 18.9793C7.59833 18.9541 7.64561 18.9173 7.68323 18.8716C7.77306 18.7625 8.53024 17.8385 9.49916 16.5166C12.1396 16.8888 13.5577 17.8192 13.5577 18.554C13.5577 19.5774 11.0199 20.7068 7.37523 20.7068Z" fill="#3C3F47"/>
</svg>

