<svg width="18" height="18" fill="none" xmlns="http://www.w3.org/2000/svg"><path d="M9 0C4.035 0 0 4.035 0 9c0 4.966 4.035 9 9 9 4.966 0 9-4.034 9-9 0-4.965-4.034-9-9-9zm-.442.897c.028 1.094.013 2.262.013 3.382H5.82C6.425 2.451 7.386 1.148 8.558.897zm.87.014c1.154.271 2.1 1.562 2.7 3.368h-2.7V.911zm-2.772.288c-.68.747-1.255 1.808-1.667 3.08H2.364a8.152 8.152 0 014.292-3.08zm4.688 0a8.152 8.152 0 014.292 3.08h-2.625c-.412-1.272-.988-2.333-1.667-3.08zM1.828 5.136h2.92a15.824 15.824 0 00-.456 3.429H.871a8.098 8.098 0 01.957-3.429zm3.743 0h3v3.429H5.13c.03-1.218.18-2.387.442-3.429zm3.858 0h2.946c.261 1.042.412 2.211.442 3.429H9.429V5.136zm3.823 0h2.92a8.099 8.099 0 01.957 3.429h-3.421a15.825 15.825 0 00-.456-3.429zM.871 9.422h3.421c.03 1.222.188 2.38.45 3.428h-2.92A8.124 8.124 0 01.87 9.422zm4.258 0h3.442v3.428h-3a15.863 15.863 0 01-.442-3.428zm4.3 0h3.388a15.867 15.867 0 01-.442 3.428H9.429V9.422zm4.279 0h3.421a8.125 8.125 0 01-.95 3.428h-2.92c.26-1.048.42-2.206.449-3.428zM2.35 13.708h2.632c.412 1.275.987 2.337 1.668 3.087a8.147 8.147 0 01-4.3-3.087zm3.47 0h2.75v3.388c-1.179-.244-2.144-1.55-2.752-3.388zm3.609 0h2.698c-.598 1.81-1.544 3.103-2.698 3.375v-3.375zm3.589 0h2.632a8.147 8.147 0 01-4.3 3.087c.68-.75 1.257-1.812 1.668-3.087z" fill="#3C3F47"/></svg>