<svg width="29" height="29" fill="none" xmlns="http://www.w3.org/2000/svg"><g clip-path="url(#clip0)" fill="#fff"><path d="M15.447 21.186c.648-.647 1.296-1.295 1.953-1.934 1.144-1.135 2.668-1.135 3.812 0 1.06 1.051 2.138 2.128 3.24 3.23 1.162 1.169 1.154 2.691-.008 3.869-.622.622-2.196 1.514-3.004 1.951-1.313.757-3.451.925-4.823.395C9.884 26.645 4.1 20.783 1.282 14.45c-.354-.8-.817-1.876-1.019-2.725-.513-1.422-.227-3.558.64-4.82.48-.74 1.161-1.74 1.793-2.355 1.144-1.127 2.668-1.127 3.812 0 .472.454 2.483 2.473 3.216 3.213 1.178 1.194 1.186 2.7.008 3.886-.74.74-1.481 1.48-2.222 2.229.396.992.917 2.027 1.49 2.927.85 1.337 1.683 2.178 2.988 3.061a17.38 17.38 0 003.13 1.665c.051-.05.119-.117.337-.336l-.008-.009zM26.355.446a1.548 1.548 0 012.197.017 1.545 1.545 0 01-.017 2.195l-9.965 9.815c-.615.606-1.6.597-2.197-.017a1.545 1.545 0 01.017-2.195L26.355.446z"/><path d="M14.648 4.357a1.551 1.551 0 011.565-1.54 1.551 1.551 0 011.54 1.565l-.067 6.872 6.346-.362a1.554 1.554 0 11.177 3.103l-8.004.455h-.101a1.551 1.551 0 01-1.54-1.565l.084-8.537v.009z"/></g><defs><clipPath id="clip0"><path fill="#fff" d="M0 0h29v29H0z"/></clipPath></defs></svg>