<svg width="158" height="54" viewBox="0 0 158 54" fill="none" xmlns="http://www.w3.org/2000/svg">
<g clip-path="url(#clip0_295_240)">
<path fill-rule="evenodd" clip-rule="evenodd" d="M30.1835 32.2495C30.2898 31.3429 31.169 30.6414 33.6458 30.6079C36.8075 30.5654 39.8901 31.428 42.2333 33.1834V26.5488C40.0086 25.2732 37.0231 24.5352 34.1773 24.3879C32.0923 24.2801 28.8745 24.4714 27.2223 25.8366C25.6886 27.1046 26.2838 28.8798 27.687 30.324C28.3567 31.0134 29.2405 31.6694 30.185 32.248L30.1835 32.2495Z" fill="#00B2F6"/>
<path d="M22.7549 32.4033C22.7549 42.1616 36.9625 40.8344 36.9625 44.7766C36.9625 46.1433 35.7522 46.611 32.9034 46.611C29.7813 46.611 26.1899 45.7515 22.9508 43.5268V50.3573C25.8391 51.9578 29.5079 52.8553 33.4501 52.8553C39.4226 52.8553 44.3792 50.9814 44.3792 44.5017C44.3792 39.533 40.6359 37.4024 36.9914 36.0251C35.3878 35.4192 33.6232 34.9469 32.0545 34.2788C29.7418 33.2947 27.4518 31.799 26.2066 30.1832C25.3805 29.1111 25.0115 27.8067 25.4017 26.6328C23.7617 27.9555 22.7549 29.8673 22.7549 32.4018V32.4033Z" fill="#F12115"/>
<path fill-rule="evenodd" clip-rule="evenodd" d="M8.66895 34.459C10.1754 31.9033 13.1229 30.8084 16.1828 30.8084C17.7165 30.8084 19.2639 31.0559 20.6838 31.5221C20.4317 29.2595 21.0923 27.5724 21.56 25.6483C19.1516 24.5884 16.3908 24.35 14.0629 24.5079C10.5246 26.6263 9.03947 30.1387 8.66895 34.4605V34.459Z" fill="#00B2F6"/>
<path d="M15.3264 52.8567C18.3985 52.8567 21.548 52.1962 24.3482 51.0299V37.3036L17.5435 40.2208V46.4818C17.0773 46.5987 16.4547 46.6762 15.6772 46.6762C4.20449 46.6762 6.31226 29.5468 12.0038 24.7375C-5.04506 27.5848 -3.57509 52.8582 15.3279 52.8582L15.3264 52.8567Z" fill="#F12115"/>
<path d="M52.9047 33.525V26.2632H57.2493V24.0234H50.3945V33.525H52.9062H52.9047ZM66.1739 33.525V24.0234H63.7973L60.0784 29.4796C60.1194 29.0316 60.1331 28.4348 60.1331 27.9048V24.0218H57.6214V33.5235H59.9964L63.7153 28.0794C63.6743 28.5274 63.6607 29.1242 63.6607 29.6405V33.522H66.1724L66.1739 33.525ZM68.6765 35.493V33.525H74.9208V35.493H77.0923V31.3535H75.8699V24.0234H69.0819C69.0819 26.5351 68.8101 29.1819 67.5877 31.3535H66.5019V35.493H68.6734H68.6765ZM71.3917 26.2617H73.3597V31.3519H70.2376C70.9847 29.967 71.255 28.1204 71.3917 26.2617ZM77.4234 24.0218V33.5235H79.9351V30.5365H81.1833C83.531 30.5228 85.3229 29.7757 85.3229 27.2776C85.3229 24.7796 83.531 24.0203 81.1833 24.0203H77.4234V24.0218ZM82.7444 27.2792C82.7444 28.1341 82.0656 28.3649 81.3063 28.3649H79.9351V26.1934H81.3063C82.0656 26.1934 82.7444 26.4242 82.7444 27.2792ZM85.4535 28.7734C85.4535 31.4203 87.1498 33.7285 90.5437 33.7285C93.9377 33.7285 95.6339 31.4218 95.6339 28.7734C95.6339 26.1266 93.9362 23.8184 90.5437 23.8184C87.1498 23.8184 85.4535 26.1266 85.4535 28.7734ZM93.0554 28.7734C93.0554 30.2935 92.1868 31.4203 90.5437 31.4203C88.9007 31.4203 88.032 30.2935 88.032 28.7734C88.032 27.2533 88.9007 26.1266 90.5437 26.1266C92.1853 26.1266 93.0554 27.2533 93.0554 28.7734ZM95.8754 28.9086C95.8754 32.3026 98.4676 33.727 101.073 33.727C102.079 33.727 103.016 33.5235 103.843 33.1302V30.6868C103.3 31.2153 102.405 31.5144 101.427 31.5144C99.9482 31.5144 98.4554 30.7536 98.4554 28.9086C98.4554 26.8448 99.9482 26.0172 101.455 26.0172C102.323 26.0172 103.192 26.3012 103.776 26.7902V24.4152C102.949 24.0218 101.985 23.8184 101.02 23.8184C98.4554 23.8184 95.8754 25.3248 95.8754 28.9086ZM112.871 33.5235V24.0218H110.495L106.776 29.478C106.817 29.0301 106.829 28.4333 106.829 27.9033V24.0203H104.317V33.522H106.694L110.413 28.0779C110.372 28.5259 110.359 29.1227 110.359 29.639V33.5204H112.871V33.5235ZM113.339 28.9086C113.339 32.3026 115.933 33.727 118.538 33.727C119.542 33.727 120.479 33.5235 121.308 33.1302V30.6868C120.765 31.2153 119.87 31.5144 118.892 31.5144C117.412 31.5144 115.919 30.7536 115.919 28.9086C115.919 26.8448 117.412 26.0172 118.918 26.0172C119.787 26.0172 120.655 26.3012 121.24 26.7902V24.4152C120.411 24.0218 119.448 23.8184 118.484 23.8184C115.919 23.8184 113.339 25.3248 113.339 28.9086ZM121.512 24.0218V26.2617H124.2V33.5235H126.711V26.2617H129.385V24.0218H121.512ZM129.642 24.0218V33.5235H136.565V31.3519H132.152V29.8045H136.076V27.6466H132.152V26.1949H136.483V24.0234H129.641L129.642 24.0218ZM145.125 24.0218L142.234 28.4743L139.343 24.0218H136.966V33.5235H139.478V28.4606L141.514 31.5964H142.952L144.989 28.4743V33.5235H147.5V24.0218H145.125ZM150.056 33.5235L150.6 32.0307H154.536L155.08 33.5235H157.658L153.925 24.0218H151.21L147.478 33.5235H150.058H150.056ZM152.323 27.2518C152.405 27.021 152.487 26.7902 152.568 26.2875C152.65 26.7902 152.73 27.021 152.812 27.2518L153.79 29.9943H151.347L152.325 27.2518H152.323Z" fill="#F12115"/>
<path d="M53.462 40.4347V42.2995H51.3862V40.4347H50.3945V45.0617H51.3862V43.1969H53.462V45.0617H54.4536V40.4347H53.462ZM55.9935 45.0617L56.3367 44.1961H58.452L58.7891 45.0617H59.8142L57.9296 40.4347H56.859L54.9684 45.0617H55.9935ZM57.2888 41.7163C57.3283 41.6237 57.3617 41.5311 57.3951 41.3519C57.4285 41.5311 57.4619 41.6222 57.4938 41.7163L58.1422 43.3761H56.648L57.2888 41.7163ZM62.505 44.0033L64.1846 40.4332H63.0943L62.0829 42.8127L60.8665 40.4332H59.7686L61.6137 43.7057L61.5347 43.8712C61.3692 44.2159 61.1247 44.2873 60.821 44.2873C60.6357 44.2873 60.4444 44.2538 60.2849 44.2022V45.042C60.5173 45.1088 60.7617 45.1544 60.9865 45.1544C61.5742 45.1544 62.0844 44.9023 62.5066 44.0033H62.505ZM68.2756 45.0617V40.4347H67.284V42.5105C66.9727 42.6366 66.6553 42.6958 66.3652 42.6958C65.811 42.6958 65.4131 42.4771 65.4131 41.976V40.4362H64.4215V42.0094C64.4215 43.08 65.0896 43.5963 66.1131 43.6024C66.4776 43.6024 66.8739 43.5356 67.284 43.4035V45.0632H68.2756V45.0617ZM72.3347 40.4347V42.2995H70.2588V40.4347H69.2672V45.0617H70.2588V43.1969H72.3347V45.0617H73.3263V40.4347H72.3347ZM74.0598 42.7474C74.0598 44.0033 74.8798 45.1544 76.5198 45.1544C78.1599 45.1544 78.9799 44.0033 78.9799 42.7474C78.9799 41.4916 78.1599 40.342 76.5198 40.342C74.8798 40.342 74.0598 41.4916 74.0598 42.7474ZM77.961 42.7474C77.961 43.5614 77.4781 44.2356 76.5198 44.2356C75.554 44.2356 75.0711 43.5614 75.0711 42.7474C75.0711 41.935 75.554 41.2608 76.5198 41.2608C77.4781 41.2608 77.961 41.935 77.961 42.7474ZM83.8909 45.0617V41.3261H85.9395V45.0617H86.925V40.4347H82.8993V45.0617H83.8909ZM87.9166 40.4347V45.0617H88.9083V43.5416H89.6615C90.7776 43.5416 91.6584 43.1848 91.6584 41.9882C91.6584 40.7915 90.7791 40.4347 89.6615 40.4347H87.9166ZM90.647 41.9882C90.647 42.5303 90.2173 42.6685 89.7085 42.6685H88.9083V41.3063H89.7085C90.2173 41.3063 90.647 41.4384 90.647 41.9866V41.9882ZM92.0684 42.7474C92.0684 44.0033 92.8884 45.1544 94.5284 45.1544C96.1685 45.1544 96.9885 44.0033 96.9885 42.7474C96.9885 41.4916 96.1685 40.342 94.5284 40.342C92.8884 40.342 92.0684 41.4916 92.0684 42.7474ZM95.9696 42.7474C95.9696 43.5614 95.4867 44.2356 94.5284 44.2356C93.5642 44.2356 93.0813 43.5614 93.0813 42.7474C93.0813 41.935 93.5642 41.2608 94.5284 41.2608C95.4867 41.2608 95.9696 41.935 95.9696 42.7474ZM101.78 45.0617V40.4347H100.847L98.6923 43.4566C98.706 43.2653 98.7121 43.0329 98.7121 42.8218V40.4362H97.7205V45.0632H98.6529L100.808 42.0413C100.794 42.2326 100.788 42.465 100.788 42.6761V45.0632H101.78V45.0617ZM106.156 43.8059C106.156 43.1119 105.713 42.7474 105.231 42.6168C105.681 42.465 105.972 42.1142 105.972 41.6055C105.972 40.7536 105.231 40.3436 104.147 40.3436C103.664 40.3436 103.149 40.4225 102.613 40.6473V41.5918C103.175 41.3215 103.644 41.2289 104.062 41.235C104.65 41.235 104.981 41.3929 104.981 41.7634C104.981 42.0869 104.697 42.2463 104.259 42.2463H103.288L103.281 43.1195H104.326C104.776 43.1195 105.158 43.2319 105.158 43.6616C105.158 44.1369 104.675 44.263 104.173 44.263C103.684 44.269 103.142 44.2037 102.533 43.9061V44.8582C103.148 45.0769 103.696 45.1559 104.246 45.1559C105.164 45.1559 106.156 44.8385 106.156 43.8074V43.8059ZM106.897 40.4347V45.0617H108.886C109.693 45.0617 110.704 44.8172 110.704 43.7664C110.704 43.0861 110.274 42.749 109.819 42.6168C110.229 42.4771 110.519 42.1476 110.519 41.6055C110.519 40.8128 109.904 40.4362 108.92 40.4362H106.897V40.4347ZM109.713 43.6601C109.713 44.1627 109.316 44.2554 108.873 44.2554H107.881V43.0663H108.926C109.322 43.0663 109.713 43.1726 109.713 43.6616V43.6601ZM109.533 41.7756C109.533 42.1324 109.263 42.304 108.885 42.304H107.887V41.2471H108.833C109.269 41.2471 109.533 41.4126 109.533 41.7756ZM111.179 42.7474C111.179 44.0033 111.999 45.1544 113.64 45.1544C115.28 45.1544 116.1 44.0033 116.1 42.7474C116.1 41.4916 115.28 40.342 113.64 40.342C111.999 40.342 111.179 41.4916 111.179 42.7474ZM115.081 42.7474C115.081 43.5614 114.598 44.2356 113.64 44.2356C112.674 44.2356 112.191 43.5614 112.191 42.7474C112.191 41.935 112.674 41.2608 113.64 41.2608C114.598 41.2608 115.081 41.935 115.081 42.7474ZM117.19 46.067V45.0617H120.456V46.067H121.33V44.1901H120.74V40.4362H117.594C117.594 41.7254 117.456 43.1271 116.86 44.1901H116.318V46.067H117.191H117.19ZM118.519 41.3276H119.749V44.1901H117.911C118.308 43.4293 118.453 42.3526 118.519 41.3276ZM121.665 42.8021C121.665 44.4148 122.929 45.1559 124.165 45.1559C124.654 45.1559 125.109 45.0496 125.507 44.8582V43.8864C125.229 44.1384 124.793 44.2706 124.317 44.2706C123.51 44.2706 122.676 43.8211 122.684 42.8036C122.684 41.686 123.504 41.2243 124.317 41.2243C124.746 41.2243 125.176 41.3564 125.474 41.5888V40.6427C125.077 40.4438 124.614 40.3451 124.151 40.3451C122.915 40.3451 121.671 41.1119 121.665 42.8036V42.8021ZM125.837 40.4362V41.3291H127.258V45.0648H128.244V41.3291H129.665V40.4362H125.837ZM130.247 40.4362V45.0632H132.236C133.042 45.0632 134.054 44.8188 134.054 43.7679C134.054 43.0876 133.624 42.7505 133.168 42.6184C133.578 42.4787 133.87 42.1491 133.87 41.607C133.87 40.8143 133.255 40.4377 132.269 40.4377H130.247V40.4362ZM133.062 43.6616C133.062 44.1643 132.666 44.2569 132.222 44.2569H131.231V43.0679H132.275C132.672 43.0679 133.062 43.1742 133.062 43.6631V43.6616ZM132.883 41.7771C132.883 42.1339 132.612 42.3055 132.234 42.3055H131.237V41.2486H132.181C132.617 41.2486 132.883 41.4141 132.883 41.7771ZM134.787 40.4347V45.0617H138.085V44.1886H135.779V43.1575H137.848V42.2919H135.779V41.3063H138.046V40.4332H134.787V40.4347ZM141.933 40.4347V42.2995H139.857V40.4347H138.866V45.0617H139.857V43.1969H141.933V45.0617H142.925V40.4347H141.933ZM146.984 40.4347V42.2995H144.908V40.4347H143.917V45.0617H144.908V43.1969H146.984V45.0617H147.976V40.4347H146.984ZM148.709 42.7474C148.709 44.0033 149.529 45.1544 151.168 45.1544C152.808 45.1544 153.628 44.0033 153.628 42.7474C153.628 41.4916 152.808 40.342 151.168 40.342C149.529 40.342 148.709 41.4916 148.709 42.7474ZM152.609 42.7474C152.609 43.5614 152.126 44.2356 151.168 44.2356C150.203 44.2356 149.721 43.5614 149.721 42.7474C149.721 41.935 150.203 41.2608 151.168 41.2608C152.126 41.2608 152.609 41.935 152.609 42.7474ZM154.361 40.4347V45.0617H157.66V44.1886H155.353V43.1575H157.423V42.2919H155.353V41.3063H157.62V40.4332H154.361V40.4347ZM79.5813 43.0663V43.8393H82.0398V43.0663H79.5813ZM79.8819 52.9962V49.2605H81.932V52.9962H82.916V48.3691H78.8903V52.9962H79.8819ZM83.9076 48.3691V52.9962H84.8993V51.4761H85.6525C86.7701 51.4761 87.6494 51.1193 87.6494 49.9226C87.6494 48.726 86.7701 48.3691 85.6525 48.3691H83.9076ZM86.638 49.9226C86.638 50.4648 86.2083 50.603 85.6995 50.603H84.8993V49.2423H85.6995C86.2083 49.2423 86.638 49.3744 86.638 49.9226ZM88.3175 48.3691V52.9962H91.6158V52.123H89.3092V51.0919H91.379V50.2263H89.3092V49.2408H91.5764V48.3676H88.3175V48.3691ZM92.9112 54.0015V52.9962H96.1776V54.0015H97.0508V52.1245H96.4616V48.3707H93.3151C93.3151 49.6599 93.1769 51.0616 92.5817 52.1245H92.0395V54.0015H92.9127H92.9112ZM94.2399 49.2621H95.47V52.1245H93.6325C94.0288 51.3637 94.1746 50.2871 94.2414 49.2621H94.2399ZM98.7349 52.9977V49.2621H100.783V52.9977H101.769V48.3707H97.7432V52.9977H98.7349ZM102.761 48.3707V52.9977H103.752V51.4776H104.505C105.623 51.4776 106.502 51.1208 106.502 49.9242C106.502 48.7275 105.623 48.3707 104.505 48.3707H102.761ZM105.491 49.9242C105.491 50.4663 105.061 50.6045 104.552 50.6045H103.752V49.2438H104.552C105.061 49.2438 105.491 49.376 105.491 49.9242ZM111.228 52.9977V48.3707H110.296L108.141 51.3911C108.154 51.1997 108.161 50.9674 108.161 50.7563V48.3707H107.169V52.9977H108.101L110.256 49.9773C110.243 50.1686 110.236 50.401 110.236 50.6121V52.9977H111.228ZM112.967 52.9977L114.136 51.4245H114.83V52.9977H115.822V48.3707H113.937C112.959 48.3707 112.08 48.8065 112.08 49.9181C112.08 50.6713 112.516 51.101 113.111 51.3L111.822 52.9992H112.965L112.967 52.9977ZM113.099 49.9166C113.099 49.4534 113.442 49.2423 113.945 49.2423H114.83V50.5969H113.945C113.442 50.5969 113.099 50.3782 113.099 49.9166ZM116.405 48.3691V49.2605H117.826V52.9962H118.812V49.2605H120.233V48.3691H116.405ZM124.872 52.9962V48.3691H123.94L121.785 51.3896C121.799 51.1982 121.805 50.9659 121.805 50.7548V48.3691H120.813V52.9962H121.746L123.9 49.9758C123.887 50.1671 123.881 50.3995 123.881 50.6105V52.9962H124.872ZM125.864 48.3691V52.9962H129.162V52.123H126.856V51.0919H128.924V50.2263H126.856V49.2408H129.123V48.3676H125.864V48.3691Z" fill="#F12115"/>
<path fill-rule="evenodd" clip-rule="evenodd" d="M19.521 0C23 6.23521 13.462 11.1143 17.7944 23.8399C16.862 19.1293 19.9857 16.8272 19.7549 14.8956C22.5688 18.0405 23.1382 20.8802 22.9438 23.4344C22.6857 26.8238 21.1869 28.6795 21.7548 31.9277C22.3303 28.0448 24.4518 25.7806 26.798 18.698C27.1472 17.6441 27.2884 16.4946 27.3294 15.2798C27.4707 11.0946 25.6697 6.13954 19.5225 0L19.521 0Z" fill="#00B2F6"/>
</g>
<defs>
<clipPath id="clip0_295_240">
<rect width="157.537" height="54" fill="white" transform="translate(0.123047)"/>
</clipPath>
</defs>
</svg>
