<svg width="26" height="26" viewBox="0 0 26 26" fill="none" xmlns="http://www.w3.org/2000/svg">
<path d="M15.9062 25.0932H10.2575L9.73816 21.3909C8.76447 21.0451 7.77481 20.4427 6.6563 19.5155L3.19757 20.8456L0.376168 16.1929L3.31437 14.0079C3.20847 13.45 3.15436 12.8814 3.15436 12.3149C3.15436 11.7503 3.20809 11.1832 3.31398 10.6253L0.375 8.44995L3.20069 3.81575L6.66175 5.19329C7.49879 4.52565 8.51102 3.99851 9.74283 3.58888L10.263 0.255859H15.9011L16.4212 3.58777C17.4747 3.92882 18.559 4.35958 19.5039 5.10395L22.9661 3.77275L25.7879 8.42659L22.8497 10.613C22.9556 11.1706 23.0097 11.7403 23.0097 12.309C23.0097 12.8851 22.956 13.4586 22.8497 14.0168L25.7867 16.2144L22.9688 20.8875L19.5089 19.6041C18.5041 20.4282 17.4689 21.028 16.4255 21.3913L15.9062 25.0932ZM10.9392 24.3518H15.2245L15.7177 20.8375L15.9494 20.7648C17.0321 20.4249 18.1159 19.7976 19.171 18.9009L19.3493 18.7496L22.6274 19.9656L24.7764 16.4016L21.9924 14.3186L22.0411 14.0939C22.1672 13.5138 22.2311 12.9132 22.2311 12.3094C22.2311 11.7133 22.1672 11.1164 22.0411 10.5363L21.9924 10.3109L24.7753 8.23976L22.6301 4.70211L19.3516 5.96288L19.171 5.80941C18.223 5.00386 17.0624 4.56903 15.9494 4.21945L15.7216 4.1479L15.2295 0.997272H10.9341L10.4424 4.14753L10.2147 4.21908C8.88749 4.63612 7.8336 5.18588 6.99306 5.90023L6.81008 6.05556L3.53122 4.7503L1.38996 8.26163L4.17204 10.3209L4.12299 10.5467C3.99685 11.1279 3.933 11.7225 3.933 12.3142C3.933 12.9077 3.99685 13.5034 4.12299 14.0847L4.17165 14.3101L1.38879 16.3797L3.53356 19.9166L6.81241 18.6559L6.99306 18.8093C8.19411 19.8299 9.21764 20.4512 10.2147 20.7644L10.4463 20.8371L10.9392 24.3518ZM13.082 17.3135C10.1839 17.3135 7.8262 15.0685 7.8262 12.309C7.8262 9.54946 10.1839 7.30447 13.082 7.30447C15.9801 7.30447 18.3379 9.54946 18.3379 12.309C18.3379 15.0685 15.9801 17.3135 13.082 17.3135ZM13.082 8.04588C10.6133 8.04588 8.60485 9.95835 8.60485 12.309C8.60485 14.6596 10.6133 16.5721 13.082 16.5721C15.5507 16.5721 17.5592 14.6596 17.5592 12.309C17.5592 9.95835 15.5507 8.04588 13.082 8.04588Z" fill="white"/>
</svg>
