<svg width="37" height="36" viewBox="0 0 37 36" fill="none" xmlns="http://www.w3.org/2000/svg">
<path d="M36.6875 19.4024C36.6875 18.8785 36.5224 18.407 36.2473 17.9879L32.5611 12.1728C32.0109 11.3346 31.0756 10.8631 30.0852 10.8631H24.6384V5.15279C24.6384 4.83846 24.4183 4.62891 24.0882 4.62891H20.677C20.3469 4.62891 20.1268 4.83846 20.1268 5.15279C20.1268 5.46712 20.3469 5.67667 20.677 5.67667H23.538V19.2976H1.47538V5.67667H4.33636C4.66648 5.67667 4.88655 5.46712 4.88655 5.15279C4.88655 4.83846 4.66648 4.62891 4.33636 4.62891H0.925189C0.595076 4.62891 0.375 4.83846 0.375 5.15279C0.375 23.4363 0.375 27.3654 0.375 30.404C0.375 30.7183 0.595076 30.9278 0.925189 30.9278H6.70218C6.4821 33.3377 8.40777 35.3285 10.8836 35.3285C13.3595 35.3285 15.3402 33.2853 15.0651 30.9278H24.4183C24.2532 33.2853 26.2339 35.3285 28.7098 35.3285C31.0205 35.3285 32.9462 33.5473 32.9462 31.2946C32.9462 31.1374 32.9462 31.0326 32.9462 30.8755H36.1373C36.4674 30.8755 36.6875 30.6659 36.6875 30.3516C36.6875 20.1358 36.6875 29.5657 36.6875 19.4024ZM30.0852 11.9109C30.6904 11.9109 31.2956 12.2252 31.6258 12.7491L35.312 18.5642C35.4771 18.8261 35.5871 19.1405 35.5871 19.4548V24.2745H24.6384V11.9109H30.0852ZM23.538 20.3454V24.2221H1.47538V20.3454H23.538ZM10.9386 34.2807C9.23305 34.2807 7.80256 32.971 7.80256 31.2946C7.80256 29.6705 9.17803 28.3084 10.9386 28.3084C12.6442 28.3084 14.0747 29.6181 14.0747 31.2946C14.0197 32.971 12.6442 34.2807 10.9386 34.2807ZM28.7098 34.2807C27.0042 34.2807 25.5737 32.971 25.5737 31.2946C25.5737 29.6705 26.9491 28.3084 28.7098 28.3084C30.4153 28.3084 31.8458 29.6181 31.8458 31.2946C31.8458 32.971 30.4153 34.2807 28.7098 34.2807ZM35.5871 29.8801H32.6711C32.0659 28.3608 30.5254 27.313 28.7098 27.313C26.8941 27.313 25.3536 28.3608 24.7484 29.8801H14.845C14.2398 28.3608 12.6992 27.313 10.8836 27.313C9.06799 27.313 7.52746 28.3608 6.92225 29.8801H1.47538V25.3223H35.5871V29.8801Z" fill="white"/>
<path d="M27.2245 19.4525H32.7264C33.0565 19.4525 33.2766 19.243 33.2766 18.9287C33.2766 18.7715 33.2215 18.6667 33.1115 18.5619L30.4156 14.4232C30.1405 14.0041 29.6453 13.7422 29.1501 13.7422H27.1695C26.8393 13.7422 26.6193 13.9517 26.6193 14.2661V18.9287C26.6743 19.243 26.8944 19.4525 27.2245 19.4525ZM27.7747 14.8423H29.2052C29.3152 14.8423 29.4802 14.8947 29.5353 14.9995L31.736 18.4048H27.7747V14.8423Z" fill="white"/>
<path d="M6.42732 5.88566C6.04219 6.46193 5.76709 7.09059 5.60204 7.71925L3.95147 7.92881C3.67637 7.98119 3.4563 8.19075 3.4563 8.45269V10.2863C3.4563 10.5482 3.67637 10.7578 3.95147 10.8102L5.60204 11.0197C5.76709 11.7008 6.04219 12.277 6.42732 12.8533L5.43698 14.1106C5.27192 14.3202 5.27192 14.6345 5.492 14.7917L6.86747 16.1014C7.08755 16.3109 7.36264 16.3109 7.58272 16.1538L8.90317 15.2108C9.50838 15.5775 10.1686 15.8394 10.8288 15.9966L11.0489 17.5683C11.1039 17.8302 11.324 18.0397 11.5991 18.0397H13.5248C13.7999 18.0397 14.0199 17.8302 14.0749 17.5683L14.295 15.9966C15.0103 15.8394 15.6155 15.5775 16.2207 15.2108L17.5411 16.1538C17.6512 16.2062 17.7612 16.2585 17.8713 16.2585C18.0363 16.2585 18.2014 16.2062 18.3114 16.1014L19.6319 14.8441C19.8519 14.6345 19.8519 14.3726 19.6869 14.163L18.6965 12.9057C19.0817 12.3294 19.3568 11.7008 19.5218 11.0721L21.1724 10.8626C21.4475 10.8102 21.6676 10.6006 21.6676 10.3387V8.50508C21.6676 8.24314 21.4475 8.03358 21.1724 7.98119L19.5218 7.77164C19.3568 7.09059 19.0817 6.51432 18.6965 5.93805L19.6319 4.62834C19.7969 4.41879 19.7969 4.10446 19.5768 3.89491L18.2564 2.63759C18.0363 2.42803 17.7612 2.42803 17.5411 2.5852L16.2207 3.52819C15.6155 3.16147 14.9552 2.89953 14.295 2.74236L14.0749 1.17071C14.0199 0.908772 13.7999 0.699219 13.5248 0.699219H11.5991C11.324 0.699219 11.1039 0.908772 11.0489 1.17071L10.8288 2.74236C10.1136 2.89953 9.50838 3.16147 8.90317 3.52819L7.5277 2.5852C7.30762 2.42803 6.97751 2.42803 6.81245 2.63759L5.43698 3.94729C5.2169 4.10446 5.2169 4.41879 5.38196 4.62834L6.42732 5.88566ZM7.5277 5.51894L6.59238 4.31401L7.2526 3.68535L8.46302 4.57595C8.62808 4.73312 8.95819 4.73312 9.12325 4.57595C9.83849 4.15685 10.5537 3.89491 11.379 3.73774C11.5991 3.68535 11.7642 3.52819 11.8192 3.26625L12.0392 1.79937H12.9746L13.1946 3.26625C13.2497 3.4758 13.4147 3.68535 13.6348 3.73774C14.4601 3.89491 15.2303 4.15685 15.8906 4.62834C16.1106 4.73312 16.3307 4.73312 16.5508 4.62834L17.8162 3.73774L18.4765 4.3664L17.5411 5.57133C17.3761 5.7285 17.3761 5.99044 17.5411 6.19999C17.9813 6.82865 18.3114 7.56209 18.4765 8.34791C18.5315 8.55747 18.6965 8.71463 18.9716 8.76702L20.5122 8.97657V9.86717L18.9716 10.0767C18.7516 10.1291 18.5315 10.2863 18.4765 10.4958C18.3114 11.2817 17.9813 12.0151 17.5411 12.6438C17.4311 12.8533 17.4311 13.0629 17.5411 13.2724L18.4765 14.4773L17.8162 15.106L16.5508 14.2154C16.3857 14.0582 16.1106 14.0582 15.8906 14.2154C15.2303 14.6345 14.4601 14.9488 13.6348 15.106C13.4147 15.1584 13.2497 15.3156 13.1946 15.5775L12.9746 17.0444H12.0392L11.8192 15.5775C11.7642 15.3679 11.5991 15.1584 11.379 15.106C10.5537 14.9488 9.78347 14.6345 9.12325 14.2154C8.90317 14.1106 8.68309 14.1106 8.46302 14.2154L7.19758 15.106L6.53736 14.4773L7.47268 13.3248C7.63774 13.1676 7.63774 12.8533 7.47268 12.6961C7.03253 12.0675 6.70241 11.334 6.53736 10.5482C6.48234 10.3387 6.31728 10.1815 6.04219 10.1291L4.50166 9.91956V9.02896L6.04219 8.81941C6.26226 8.76702 6.48234 8.60985 6.53736 8.4003C6.70241 7.61448 7.03253 6.88104 7.47268 6.25238C7.63774 5.93805 7.63774 5.7285 7.5277 5.51894Z" fill="white"/>
<path d="M12.5341 13.5873C14.9549 13.5873 16.9356 11.7013 16.9356 9.3962C16.9356 7.09108 14.9549 5.20508 12.5341 5.20508C10.1133 5.20508 8.13257 7.09108 8.13257 9.3962C8.13257 11.7013 10.0582 13.5873 12.5341 13.5873ZM12.5341 6.25286C14.3497 6.25286 15.8352 7.66736 15.8352 9.3962C15.8352 11.125 14.3497 12.5395 12.5341 12.5395C10.7185 12.5395 9.23295 11.125 9.23295 9.3962C9.23295 7.66736 10.7185 6.25286 12.5341 6.25286Z" fill="white"/>
</svg>
