<svg width="83" height="55" viewBox="0 0 83 55" fill="none" xmlns="http://www.w3.org/2000/svg">
<path d="M19.456 0.971998C22.048 0.971998 24.376 1.356 26.44 2.124C28.528 2.868 30.304 3.912 31.768 5.256C33.232 6.6 34.348 8.208 35.116 10.08C35.908 11.928 36.304 13.968 36.304 16.2C36.304 18.12 36.028 19.896 35.476 21.528C34.948 23.16 34.216 24.72 33.28 26.208C32.344 27.672 31.252 29.1 30.004 30.492C28.78 31.86 27.472 33.252 26.08 34.668L15.82 45.18C17.14 44.796 18.436 44.496 19.708 44.28C21.004 44.04 22.216 43.92 23.344 43.92H33.136C34.336 43.92 35.284 44.256 35.98 44.928C36.676 45.576 37.024 46.44 37.024 47.52V54H0.16V50.4C0.16 49.704 0.304 48.96 0.592 48.168C0.88 47.376 1.384 46.656 2.104 46.008L17.224 30.78C18.52 29.484 19.648 28.248 20.608 27.072C21.568 25.896 22.36 24.744 22.984 23.616C23.608 22.464 24.076 21.324 24.388 20.196C24.7 19.044 24.856 17.832 24.856 16.56C24.856 14.472 24.352 12.876 23.344 11.772C22.36 10.644 20.848 10.08 18.808 10.08C17.152 10.08 15.748 10.524 14.596 11.412C13.468 12.276 12.688 13.356 12.256 14.652C11.752 15.972 11.092 16.848 10.276 17.28C9.46 17.712 8.296 17.808 6.784 17.568L0.88 16.524C1.264 13.908 1.996 11.628 3.076 9.684C4.18 7.74 5.536 6.12 7.144 4.824C8.776 3.528 10.636 2.568 12.724 1.944C14.812 1.296 17.056 0.971998 19.456 0.971998ZM63.0216 20.124C62.7816 20.388 62.5416 20.664 62.3016 20.952C62.0856 21.216 61.8696 21.48 61.6536 21.744C62.4936 21.432 63.3696 21.192 64.2816 21.024C65.2176 20.856 66.2136 20.772 67.2696 20.772C69.1656 20.772 71.0376 21.084 72.8856 21.708C74.7336 22.332 76.3896 23.292 77.8536 24.588C79.3176 25.884 80.4936 27.528 81.3816 29.52C82.2936 31.488 82.7496 33.816 82.7496 36.504C82.7496 38.952 82.2936 41.28 81.3816 43.488C80.4696 45.672 79.1736 47.592 77.4936 49.248C75.8376 50.88 73.8336 52.176 71.4816 53.136C69.1296 54.096 66.5256 54.576 63.6696 54.576C60.7416 54.576 58.1136 54.12 55.7856 53.208C53.4576 52.272 51.4776 50.976 49.8456 49.32C48.2376 47.664 47.0016 45.684 46.1376 43.38C45.2976 41.076 44.8776 38.544 44.8776 35.784C44.8776 30.624 46.8696 25.38 50.8536 20.052L62.6616 4.104C63.2136 3.408 64.0056 2.808 65.0376 2.304C66.0936 1.8 67.2936 1.548 68.6376 1.548H78.5736L63.0216 20.124ZM55.6056 37.296C55.6056 38.592 55.7616 39.756 56.0736 40.788C56.3856 41.82 56.8656 42.708 57.5136 43.452C58.1616 44.196 58.9776 44.772 59.9616 45.18C60.9456 45.564 62.1096 45.756 63.4536 45.756C64.6056 45.756 65.6736 45.54 66.6576 45.108C67.6656 44.676 68.5296 44.088 69.2496 43.344C69.9696 42.576 70.5336 41.688 70.9416 40.68C71.3736 39.648 71.5896 38.532 71.5896 37.332C71.5896 35.988 71.3856 34.788 70.9776 33.732C70.5936 32.676 70.0416 31.788 69.3216 31.068C68.6016 30.348 67.7256 29.796 66.6936 29.412C65.6856 29.028 64.5576 28.836 63.3096 28.836C62.1816 28.836 61.1496 29.04 60.2136 29.448C59.2776 29.832 58.4616 30.396 57.7656 31.14C57.0936 31.884 56.5656 32.772 56.1816 33.804C55.7976 34.836 55.6056 36 55.6056 37.296Z" fill="url(#paint0_linear_589_966)"/>
<defs>
<linearGradient id="paint0_linear_589_966" x1="-11.6813" y1="68.812" x2="85.1615" y2="68.812" gradientUnits="userSpaceOnUse">
<stop stop-color="#1889D9"/>
<stop offset="1" stop-color="#2CB0FF"/>
</linearGradient>
</defs>
</svg>
