<svg width="82" height="55" viewBox="0 0 82 55" fill="none" xmlns="http://www.w3.org/2000/svg">
<path d="M4.956 45.936H15.036V19.476C15.036 18.18 15.072 16.824 15.144 15.408L9.204 20.34C8.676 20.748 8.148 21 7.62 21.096C7.116 21.168 6.636 21.168 6.18 21.096C5.724 21 5.316 20.844 4.956 20.628C4.596 20.388 4.332 20.148 4.164 19.908L0.636 15.228L16.98 1.512H26.196V45.936H34.836V54H4.956V45.936ZM81.9656 27.756C81.9656 32.34 81.4736 36.312 80.4896 39.672C79.5056 43.032 78.1376 45.816 76.3856 48.024C74.6576 50.232 72.5936 51.876 70.1936 52.956C67.8176 54.036 65.2376 54.576 62.4536 54.576C59.6696 54.576 57.0896 54.036 54.7136 52.956C52.3616 51.876 50.3216 50.232 48.5936 48.024C46.8656 45.816 45.5096 43.032 44.5256 39.672C43.5656 36.312 43.0856 32.34 43.0856 27.756C43.0856 23.172 43.5656 19.2 44.5256 15.84C45.5096 12.48 46.8656 9.696 48.5936 7.488C50.3216 5.28 52.3616 3.648 54.7136 2.592C57.0896 1.512 59.6696 0.971998 62.4536 0.971998C65.2376 0.971998 67.8176 1.512 70.1936 2.592C72.5936 3.648 74.6576 5.28 76.3856 7.488C78.1376 9.696 79.5056 12.48 80.4896 15.84C81.4736 19.2 81.9656 23.172 81.9656 27.756ZM70.4456 27.756C70.4456 24.132 70.2176 21.168 69.7616 18.864C69.3056 16.536 68.6936 14.712 67.9256 13.392C67.1816 12.072 66.3296 11.172 65.3696 10.692C64.4096 10.188 63.4376 9.936 62.4536 9.936C61.4696 9.936 60.4976 10.188 59.5376 10.692C58.6016 11.172 57.7616 12.072 57.0176 13.392C56.2976 14.712 55.7096 16.536 55.2536 18.864C54.8216 21.168 54.6056 24.132 54.6056 27.756C54.6056 31.404 54.8216 34.38 55.2536 36.684C55.7096 38.988 56.2976 40.812 57.0176 42.156C57.7616 43.476 58.6016 44.388 59.5376 44.892C60.4976 45.372 61.4696 45.612 62.4536 45.612C63.4376 45.612 64.4096 45.372 65.3696 44.892C66.3296 44.388 67.1816 43.476 67.9256 42.156C68.6936 40.812 69.3056 38.988 69.7616 36.684C70.2176 34.38 70.4456 31.404 70.4456 27.756Z" fill="url(#paint0_linear_589_963)"/>
<defs>
<linearGradient id="paint0_linear_589_963" x1="-12.6813" y1="68.812" x2="84.1615" y2="68.812" gradientUnits="userSpaceOnUse">
<stop stop-color="#1889D9"/>
<stop offset="1" stop-color="#2CB0FF"/>
</linearGradient>
</defs>
</svg>
