<svg width="45" height="43" viewBox="0 0 45 43" fill="none" xmlns="http://www.w3.org/2000/svg">
<path d="M27.1248 42.8722H17.4414L16.5511 36.5255C14.8819 35.9326 13.1854 34.8999 11.2679 33.3105L5.3387 35.5907L0.502002 27.6146L5.53892 23.8689C5.35738 22.9125 5.26462 21.9377 5.26462 20.9666C5.26462 19.9988 5.35672 19.0265 5.53825 18.07L0.5 14.341L5.34404 6.39662L11.2773 8.75812C12.7122 7.61359 14.4475 6.70992 16.5591 6.00769L17.4508 0.293945H27.1162L28.0078 6.00578C29.8138 6.59044 31.6726 7.32889 33.2923 8.60496L39.2276 6.3229L44.065 14.3009L39.028 18.0491C39.2096 19.0049 39.3023 19.9816 39.3023 20.9565C39.3023 21.944 39.2102 22.9271 39.028 23.8842L44.063 27.6514L39.2323 35.6625L33.301 33.4624C31.5784 34.8751 29.8038 35.9033 28.0152 36.5261L27.1248 42.8722ZM18.6101 41.6012H25.9562L26.8018 35.5767L27.1989 35.4521C29.055 34.8694 30.913 33.7941 32.7217 32.2569L33.0274 31.9976L38.6469 34.082L42.331 27.9723L37.5584 24.4015L37.6418 24.0164C37.8581 23.0218 37.9675 21.9923 37.9675 20.9571C37.9675 19.9352 37.8581 18.9121 37.6418 17.9175L37.5584 17.5311L42.329 13.9806L38.6516 7.91609L33.0314 10.0774L32.7217 9.81431C31.0966 8.43338 29.107 7.68794 27.1989 7.08867L26.8085 6.96602L25.9649 1.56494H18.6014L17.7585 6.96538L17.368 7.08804C15.0928 7.80297 13.2862 8.74541 11.8452 9.97001L11.5316 10.2363L5.91066 7.9987L2.23993 14.0181L7.00922 17.5483L6.92512 17.9353C6.70888 18.9318 6.59943 19.9511 6.59943 20.9654C6.59943 21.9828 6.70888 23.004 6.92512 24.0005L7.00855 24.3869L2.23793 27.9349L5.91467 33.9981L11.5356 31.8368L11.8452 32.0999C13.9042 33.8494 15.6588 34.9145 17.368 35.4515L17.7651 35.5761L18.6101 41.6012ZM22.2835 29.5357C17.3153 29.5357 13.2735 25.6871 13.2735 20.9565C13.2735 16.2258 17.3153 12.3773 22.2835 12.3773C27.2517 12.3773 31.2935 16.2258 31.2935 20.9565C31.2935 25.6871 27.2517 29.5357 22.2835 29.5357ZM22.2835 13.6483C18.0515 13.6483 14.6083 16.9268 14.6083 20.9565C14.6083 24.9862 18.0515 28.2647 22.2835 28.2647C26.5155 28.2647 29.9587 24.9862 29.9587 20.9565C29.9587 16.9268 26.5155 13.6483 22.2835 13.6483Z" fill="white"/>
</svg>
