<svg width="47" height="47" viewBox="0 0 47 47" fill="none" xmlns="http://www.w3.org/2000/svg">
<path d="M46.1685 28.6166L25.6268 8.07841C25.5225 7.97405 25.3814 7.91489 25.2338 7.91367L15.2305 7.83032C14.5504 6.8668 13.7449 5.91004 12.8329 4.99866C8.47988 0.644861 3.36847 -1.06491 1.19654 1.10571C0.577421 1.7237 0.250094 2.61558 0.25 3.68495C0.249719 6.29007 2.10239 9.75884 5.08415 12.7368C5.96675 13.6222 6.92191 14.4284 7.92377 15.1363L8.00741 25.1322C8.00863 25.2798 8.06789 25.421 8.17225 25.5253L28.714 46.0629C28.8239 46.1727 28.9678 46.2277 29.1117 46.2277C29.2557 46.2277 29.3996 46.1728 29.5094 46.063L46.1684 29.4125C46.274 29.3069 46.3333 29.1638 46.3333 29.0146C46.3333 28.8653 46.2741 28.7222 46.1685 28.6166ZM5.8802 11.9415C3.14325 9.20817 1.37488 5.96733 1.37525 3.68514C1.37535 2.91009 1.58266 2.3101 1.99175 1.90185C2.74579 1.14818 4.21356 1.08752 6.01869 1.73552C7.99072 2.44333 10.1281 3.88476 12.0374 5.79434C12.6905 6.44703 13.2876 7.1285 13.8196 7.81859L8.43422 7.77368C8.28429 7.77612 8.1384 7.83182 8.03179 7.93842C7.92509 8.04513 7.86573 8.19008 7.86705 8.34095L7.91215 13.7304C7.20236 13.1839 6.52154 12.5849 5.8802 11.9415ZM29.1118 44.8696L9.13069 24.8923L8.99689 8.90362L14.6283 8.95051C15.274 9.93099 15.7755 10.9069 16.1033 11.823C16.0563 11.8214 16.0094 11.8196 15.9622 11.8196C14.8809 11.8196 13.864 12.2408 13.0983 13.006C11.5238 14.5831 11.5238 17.1501 13.0997 18.7295C13.8648 19.4908 14.8814 19.91 15.9622 19.91C17.0433 19.91 18.0593 19.4906 18.8241 18.728C20.3985 17.1501 20.3985 14.5832 18.8239 13.0059C18.4037 12.5851 17.9067 12.2689 17.3649 12.069C17.0818 11.0779 16.6074 10.025 15.9689 8.96166L24.9941 9.03686L44.9751 29.0143L29.1118 44.8696ZM16.5442 14.0527C16.5436 14.8266 16.3357 15.4259 15.9264 15.8337C15.7062 16.053 15.7057 16.4092 15.9249 16.6292C16.0348 16.7396 16.1791 16.7947 16.3234 16.7947C16.467 16.7947 16.6107 16.7401 16.7205 16.6307C17.3403 16.013 17.6684 15.1218 17.6692 14.0535C17.6693 13.8651 17.6587 13.6717 17.6396 13.4748C17.7766 13.5713 17.9067 13.6797 18.0275 13.8008C19.1645 14.9398 19.1645 16.7936 18.0285 17.9323C17.477 18.4821 16.7431 18.7849 15.962 18.7849C15.1807 18.7849 14.4459 18.4819 13.8945 17.9333C12.7575 16.7937 12.7574 14.9398 13.894 13.8013C14.4467 13.249 15.1811 12.9447 15.962 12.9447C16.1205 12.9447 16.2768 12.9579 16.4302 12.9824C16.505 13.357 16.5445 13.7156 16.5442 14.0527Z" fill="white"/>
<path d="M16.6321 29.1084C16.6321 29.2576 16.6913 29.4008 16.7969 29.5063L29.3395 42.043C29.4493 42.1529 29.5933 42.2077 29.7372 42.2077C29.881 42.2077 30.0249 42.1529 30.1347 42.0432L42.1512 30.0384C42.2568 29.9328 42.3162 29.7897 42.3162 29.6405C42.3162 29.4911 42.2568 29.348 42.1513 29.2425L29.6088 16.7057C29.3893 16.4862 29.0332 16.486 28.8136 16.7056L16.797 28.7104C16.6914 28.816 16.6321 28.9591 16.6321 29.1084ZM29.2111 17.899L40.9577 29.6403L29.7374 40.8499L17.9905 29.1085L29.2111 17.899Z" fill="white"/>
<path d="M30.2786 21.4755C30.059 21.2557 29.7029 21.2555 29.483 21.4751L21.5688 29.3826C21.349 29.6021 21.3488 29.9584 21.5684 30.1781C21.6783 30.2881 21.8223 30.3431 21.9664 30.3431C22.1103 30.3431 22.2542 30.2882 22.3641 30.1784L30.2784 22.2711C30.4981 22.0515 30.4983 21.6954 30.2786 21.4755Z" fill="white"/>
<path d="M33.8278 25.0223C33.6081 24.8024 33.2518 24.8026 33.0322 25.022L25.121 32.9295C24.9012 33.1492 24.9011 33.5054 25.1207 33.7251C25.2306 33.835 25.3746 33.89 25.5186 33.89C25.6625 33.89 25.8065 33.835 25.9163 33.7253L33.8275 25.8179C34.0472 25.5982 34.0473 25.2421 33.8278 25.0223Z" fill="white"/>
<path d="M37.38 28.5673C37.1605 28.3474 36.8041 28.3474 36.5845 28.5671L28.673 36.4751C28.4532 36.6947 28.4531 37.051 28.6728 37.2706C28.7826 37.3806 28.9266 37.4355 29.0706 37.4355C29.2145 37.4355 29.3585 37.3806 29.4683 37.2708L37.3798 29.3628C37.5996 29.1432 37.5997 28.787 37.38 28.5673Z" fill="white"/>
</svg>
