<svg width="42" height="60" viewBox="0 0 42 60" fill="none" xmlns="http://www.w3.org/2000/svg">
<path d="M22.4556 0.292577C10.5984 -0.446039 0.625 8.52287 0.625 19.6021C0.625 21.818 0.957445 23.9283 1.84397 26.0386L3.61701 29.4151C3.83864 29.8372 4.17108 30.2593 4.39271 30.6813L4.50353 30.7869C7.2739 35.5351 9.37939 40.8109 10.7092 46.4033H6.05494V47.9861H11.0416V48.0916C11.1524 48.8302 11.2632 49.5688 11.3741 50.3074H8.49287V51.8902H11.5957C11.7065 52.4177 11.7065 52.8398 11.8173 53.3674V53.5784C12.3714 54.9501 13.7012 55.8998 15.1418 56.1108C15.9175 58.3267 18.3554 59.9094 21.015 59.9094C23.6745 59.9094 26.0016 58.3267 26.8882 56.1108C28.5504 55.8998 29.991 54.7391 30.4343 53.0508C30.4343 52.7343 30.5451 52.3122 30.5451 51.9957H33.6479V50.4129H30.7667C30.7667 50.3074 30.7667 50.0964 30.8775 49.9909C30.9883 49.3578 31.0991 48.7247 31.21 48.0916H36.0858V46.5088H31.5424C32.8722 40.5999 35.1993 34.902 38.3021 29.9427C38.4129 29.7317 38.6346 29.4151 38.8562 29.0986C40.7401 25.9331 41.6266 22.24 41.5158 18.5469C40.8509 8.83942 32.6506 0.925676 22.4556 0.292577ZM21.015 58.4322C19.3527 58.4322 17.8013 57.5881 17.0256 56.2163H25.0043C24.2286 57.5881 22.6772 58.4322 21.015 58.4322ZM28.6612 52.8398C28.4396 53.895 27.4422 54.6336 26.3341 54.6336H15.6959C14.6985 54.6336 13.812 54.106 13.4795 53.2619C13.4795 52.8398 13.3687 52.5233 13.3687 52.1012H28.772C28.772 52.3122 28.6612 52.6288 28.6612 52.8398ZM29.1045 49.7798C29.1045 49.9909 28.9937 50.2019 28.9937 50.4129H13.1471C13.0363 49.6743 12.9255 48.9357 12.7038 48.0916H29.4369C29.3261 48.7247 29.2153 49.2523 29.1045 49.7798ZM18.4662 46.6143C19.1311 40.8109 19.1311 36.1682 18.9095 33.0027C19.5744 33.1082 20.3501 33.1082 21.1258 33.1082C21.9015 33.1082 22.5664 33.1082 23.3421 33.0027C23.1205 36.1682 23.0096 40.8109 23.7853 46.6143H18.4662ZM37.3048 28.36L37.194 28.4655C37.0832 28.6765 36.8615 28.9931 36.7507 29.2041C33.5371 34.3744 31.21 40.3889 29.7694 46.6143H25.3368C24.5611 40.5999 24.6719 35.8517 25.0043 32.7917C26.7774 32.3696 28.1071 31.7365 28.9937 30.9979C29.2153 30.7869 29.3261 30.5758 29.4369 30.3648C29.7694 29.9427 29.8802 29.5207 29.8802 29.0986C29.8802 28.9931 29.8802 28.9931 29.8802 28.8876C29.8802 28.1489 29.5477 27.4103 28.9937 26.7772C27.8855 25.7221 25.78 25.7221 24.6719 26.7772C24.1178 27.3048 23.7853 28.0434 23.7853 28.782C23.7853 28.9931 23.5637 29.9427 23.4529 31.3144C22.788 31.42 22.0123 31.42 21.1258 31.42C20.2393 31.42 19.4636 31.3144 18.7987 31.3144C18.6879 29.8372 18.4662 28.9931 18.4662 28.782C18.4662 28.0434 18.1338 27.3048 17.5797 26.7772C16.4716 25.7221 14.3661 25.7221 13.2579 26.7772C12.7038 27.3048 12.3714 28.0434 12.3714 28.8876C12.3714 28.9931 12.3714 28.9931 12.3714 29.0986C12.3714 29.5207 12.4822 30.0482 12.8147 30.3648C12.9255 30.5758 13.1471 30.7869 13.2579 30.9979C14.1444 31.842 15.4742 32.4751 17.2473 32.7917C17.4689 35.8517 17.5797 40.7054 16.9148 46.6143H12.4822C11.1524 40.7054 8.93613 35.113 5.94412 30.0482L5.83331 29.9427C5.61168 29.5207 5.39005 29.0986 5.16842 28.782L3.50619 25.511C2.8413 23.6117 2.50886 21.6069 2.50886 19.6021C2.50886 9.367 11.5957 1.13671 22.4556 1.87533C31.8748 2.50842 39.2995 9.68355 39.8535 18.6525C39.8535 22.1345 38.967 25.511 37.3048 28.36ZM27.8855 29.6262C27.4422 30.1538 26.4449 30.6813 25.1151 30.9979C25.2259 29.7317 25.4476 28.9931 25.4476 28.9931V28.8876C25.4476 28.571 25.5584 28.2545 25.8908 27.9379C26.4449 27.4103 27.3314 27.4103 27.8855 27.9379C28.1071 28.1489 28.3288 28.4655 28.3288 28.8876C28.1071 29.2041 27.9963 29.4151 27.8855 29.6262ZM14.1444 29.6262C13.9228 29.4151 13.812 29.0986 13.812 28.782C13.812 28.4655 13.9228 28.1489 14.2553 27.8324C14.8093 27.3048 15.6959 27.3048 16.2499 27.8324C16.4716 28.0434 16.6932 28.4655 16.6932 28.782V28.8876C16.6932 28.8876 16.804 29.6262 17.0256 30.8924C15.585 30.6813 14.6985 30.1538 14.1444 29.6262Z" fill="white"/>
</svg>
