<svg width="24" height="36" viewBox="0 0 24 36" fill="none" xmlns="http://www.w3.org/2000/svg">
<path d="M12.8491 0.784602C5.93241 0.353743 0.114624 5.5856 0.114624 12.0485C0.114624 13.3411 0.30855 14.5721 0.825687 15.8031L1.85996 17.7728C1.98924 18.019 2.18317 18.2652 2.31246 18.5114L2.3771 18.5729C3.99315 21.3427 5.22135 24.4203 5.99706 27.6825H3.28209V28.6058H6.19098V28.6673C6.25563 29.0982 6.32027 29.5291 6.38491 29.9599H4.70422V30.8832H6.51419C6.57884 31.191 6.57884 31.4372 6.64348 31.7449V31.868C6.96669 32.6682 7.74239 33.2221 8.58274 33.3452C9.03524 34.6378 10.4574 35.5611 12.0088 35.5611C13.5602 35.5611 14.9177 34.6378 15.4348 33.3452C16.4044 33.2221 17.2448 32.5451 17.5034 31.5603C17.5034 31.3756 17.568 31.1294 17.568 30.9447H19.378V30.0215H17.6973C17.6973 29.9599 17.6973 29.8368 17.7619 29.7753C17.8266 29.406 17.8912 29.0367 17.9559 28.6673H20.8001V27.7441H18.1498C18.9255 24.2972 20.283 20.9734 22.0929 18.0805C22.1576 17.9574 22.2869 17.7728 22.4162 17.5881C23.5151 15.7416 24.0322 13.5873 23.9676 11.433C23.5797 5.77026 18.7962 1.15391 12.8491 0.784602ZM12.0088 34.6994C11.0391 34.6994 10.1342 34.207 9.68166 33.4068H14.3359C13.8834 34.207 12.9784 34.6994 12.0088 34.6994ZM16.4691 31.4372C16.3398 32.0527 15.758 32.4835 15.1116 32.4835H8.90595C8.32417 32.4835 7.80704 32.1758 7.61311 31.6834C7.61311 31.4372 7.54847 31.2525 7.54847 31.0063H16.5337C16.5337 31.1294 16.4691 31.3141 16.4691 31.4372ZM16.7276 29.6522C16.7276 29.7753 16.663 29.8984 16.663 30.0215H7.41918C7.35454 29.5906 7.2899 29.1598 7.16062 28.6673H16.9216C16.8569 29.0367 16.7923 29.3444 16.7276 29.6522ZM10.522 27.8056C10.9099 24.4203 10.9099 21.712 10.7806 19.8655C11.1684 19.9271 11.6209 19.9271 12.0734 19.9271C12.5259 19.9271 12.9138 19.9271 13.3663 19.8655C13.237 21.712 13.1723 24.4203 13.6248 27.8056H10.522ZM21.5112 17.1573L21.4465 17.2188C21.3819 17.3419 21.2526 17.5266 21.188 17.6497C19.3133 20.6657 17.9559 24.1741 17.1155 27.8056H14.5298C14.0773 24.2972 14.142 21.5274 14.3359 19.7424C15.3702 19.4962 16.1459 19.1269 16.663 18.696C16.7923 18.5729 16.8569 18.4498 16.9216 18.3267C17.1155 18.0805 17.1801 17.8343 17.1801 17.5881C17.1801 17.5266 17.1801 17.5266 17.1801 17.465C17.1801 17.0341 16.9862 16.6033 16.663 16.234C16.0166 15.6185 14.7884 15.6185 14.142 16.234C13.8188 16.5417 13.6248 16.9726 13.6248 17.4035C13.6248 17.5266 13.4955 18.0805 13.4309 18.8807C13.043 18.9422 12.5906 18.9422 12.0734 18.9422C11.5563 18.9422 11.1038 18.8807 10.7159 18.8807C10.6513 18.019 10.522 17.5266 10.522 17.4035C10.522 16.9726 10.3281 16.5417 10.0049 16.234C9.35845 15.6185 8.13025 15.6185 7.48383 16.234C7.16062 16.5417 6.96669 16.9726 6.96669 17.465C6.96669 17.5266 6.96669 17.5266 6.96669 17.5881C6.96669 17.8343 7.03133 18.1421 7.22526 18.3267C7.2899 18.4498 7.41918 18.5729 7.48383 18.696C8.00096 19.1884 8.77667 19.5578 9.81094 19.7424C9.94023 21.5274 10.0049 24.3588 9.61702 27.8056H7.03133C6.25563 24.3588 4.96278 21.0965 3.21745 18.1421L3.1528 18.0805C3.02352 17.8343 2.89424 17.5881 2.76495 17.4035L1.79532 15.4954C1.40747 14.3874 1.21354 13.218 1.21354 12.0485C1.21354 6.07802 6.51419 1.27701 12.8491 1.70787C18.3437 2.07718 22.6747 6.26267 22.9979 11.4945C22.9979 13.5257 22.4808 15.4954 21.5112 17.1573ZM16.0166 17.8959C15.758 18.2036 15.1762 18.5114 14.4005 18.696C14.4652 17.9574 14.5945 17.5266 14.5945 17.5266V17.465C14.5945 17.2804 14.6591 17.0957 14.853 16.911C15.1762 16.6033 15.6934 16.6033 16.0166 16.911C16.1459 17.0341 16.2752 17.2188 16.2752 17.465C16.1459 17.6497 16.0812 17.7728 16.0166 17.8959ZM8.00096 17.8959C7.87168 17.7728 7.80704 17.5881 7.80704 17.4035C7.80704 17.2188 7.87168 17.0341 8.06561 16.8495C8.38882 16.5417 8.90595 16.5417 9.22916 16.8495C9.35845 16.9726 9.48773 17.2188 9.48773 17.4035V17.465C9.48773 17.465 9.55237 17.8959 9.68166 18.6345C8.84131 18.5114 8.32417 18.2036 8.00096 17.8959Z" fill="white"/>
</svg>
