<svg width="19" height="19" viewBox="0 0 19 19" fill="none" xmlns="http://www.w3.org/2000/svg">
<path d="M11.2012 18.2982H7.05263L6.68666 15.4968C5.98044 15.2121 5.35519 14.6708 4.7969 14.1874C4.73812 14.1367 4.6805 14.0866 4.62366 14.0377L2.19002 14.9581L0.115715 11.5969L2.19079 10.0811C2.12461 9.71524 2.09113 9.34379 2.09113 8.97382C2.09113 8.60052 2.12383 8.23797 2.1904 7.87208L0.11377 6.36998L2.19624 3.03399L4.63767 4.02638C5.23216 3.58004 5.90296 3.29868 6.69757 3.04252L7.06508 0.875H11.1892L11.5563 3.03955C11.6131 3.05624 11.6692 3.07292 11.7249 3.08923C12.3984 3.28793 13.0384 3.47662 13.6197 3.89774L16.0642 2.97357L18.1381 6.33588L16.0631 7.85392C16.1292 8.22018 16.1631 8.59311 16.1631 8.96567C16.1631 9.3449 16.1285 9.73303 16.0627 10.1008L18.135 11.6399L16.0724 15.0367L13.6345 14.2071C13.0053 14.7227 12.3236 15.2161 11.5676 15.4997L11.2012 18.2982ZM7.74056 17.5568H10.5137L10.8543 14.9481L11.0899 14.8755C11.8783 14.6319 12.6148 14.0736 13.2934 13.5065L13.4655 13.3626L15.7224 14.1307L17.1208 11.8275L15.2042 10.404L15.254 10.1775C15.3389 9.79346 15.3837 9.37456 15.3837 8.96567C15.3837 8.56568 15.3401 8.16531 15.254 7.7757L15.2038 7.54772L17.1177 6.14756L15.7302 3.89811L13.4721 4.75185L13.293 4.60208C12.7877 4.17948 12.1882 4.00302 11.4936 3.79839C11.3608 3.7591 11.2257 3.71943 11.0891 3.67717L10.8629 3.60748L10.5261 1.61641H7.72809L7.39017 3.60674L7.16397 3.67643C6.27165 3.95186 5.55569 4.23731 4.96003 4.7348L4.77588 4.88901L2.51704 3.97077L1.13807 6.17981L3.05002 7.56254L2.99941 7.79238C2.9122 8.18756 2.86977 8.57383 2.86977 8.97382C2.86977 9.37085 2.91337 9.76973 2.99941 10.1597L3.04963 10.3881L1.13574 11.7864L2.52288 14.0343L4.78094 13.1802L4.96003 13.3296C5.07644 13.4271 5.19712 13.5313 5.32093 13.6384C5.88233 14.1252 6.51887 14.6764 7.16397 14.8755L7.39951 14.9481L7.74056 17.5568ZM9.12692 12.5107C7.0425 12.5107 5.34662 10.9204 5.34662 8.96567C5.34662 7.01093 7.0425 5.4206 9.12692 5.4206C11.2113 5.4206 12.9072 7.01093 12.9072 8.96567C12.9076 10.9204 11.2117 12.5107 9.12692 12.5107ZM9.12692 6.16164C7.47192 6.16164 6.12526 7.41945 6.12526 8.9653C6.12526 10.5111 7.47192 11.769 9.12692 11.769C10.7819 11.769 12.1286 10.5111 12.1286 8.9653C12.1286 7.41945 10.7823 6.16164 9.12692 6.16164Z" fill="white"/>
</svg>
