<svg width="32" height="31" viewBox="0 0 32 31" fill="none" xmlns="http://www.w3.org/2000/svg">
<path d="M19.6307 30.3683H12.5188L11.8915 25.5659C10.6808 25.0778 9.60895 24.15 8.65189 23.3213C8.55111 23.2343 8.45233 23.1485 8.35489 23.0646L4.18294 24.6425L0.626992 18.8805L4.18427 16.2819C4.07081 15.6547 4.01341 15.0179 4.01341 14.3837C4.01341 13.7438 4.06948 13.1222 4.1836 12.495L0.623657 9.91997L4.19361 4.20113L8.37892 5.90236C9.39805 5.13722 10.548 4.65488 11.9102 4.21575L12.5402 0.5H19.61L20.2394 4.21067C20.3368 4.23926 20.4329 4.26786 20.5284 4.29582C21.683 4.63645 22.7802 4.95992 23.7766 5.68184L27.9673 4.09755L31.5226 9.8615L27.9653 12.4639C28.0788 13.0917 28.1368 13.731 28.1368 14.3697C28.1368 15.0198 28.0774 15.6852 27.9646 16.3156L31.5172 18.9542L27.9813 24.7772L23.802 23.355C22.7235 24.239 21.5549 25.0848 20.2588 25.571L19.6307 30.3683ZM13.6981 29.0974H18.4521L19.0361 24.6254L19.4398 24.5008C20.7913 24.0833 22.0541 23.1262 23.2174 22.1539L23.5124 21.9073L27.3813 23.2241L29.7786 19.2757L26.493 16.8354L26.5784 16.4472C26.7239 15.7888 26.8007 15.0707 26.8007 14.3697C26.8007 13.684 26.7259 12.9977 26.5784 12.3298L26.4923 11.9389L29.7733 9.53867L27.3947 5.68248L23.5237 7.14603L23.2167 6.88928C22.3504 6.16482 21.3226 5.86232 20.1319 5.51153C19.9044 5.44416 19.6728 5.37617 19.4385 5.30372L19.0507 5.18425L18.4734 1.77099H13.6768L13.0975 5.18298L12.7097 5.30245C11.18 5.77462 9.95266 6.26396 8.93153 7.11679L8.61585 7.38116L4.74356 5.80703L2.3796 9.59396L5.65724 11.9644L5.57047 12.3584C5.42097 13.0358 5.34823 13.698 5.34823 14.3837C5.34823 15.0643 5.42298 15.7481 5.57047 16.4167L5.65657 16.8081L2.3756 19.2052L4.75357 23.0589L8.62452 21.5947L8.93153 21.8508C9.13108 22.0179 9.33798 22.1965 9.55021 22.3802C10.5126 23.2146 11.6038 24.1595 12.7097 24.5008L13.1135 24.6254L13.6981 29.0974ZM16.0748 20.447C12.5015 20.447 9.59426 17.7207 9.59426 14.3697C9.59426 11.0187 12.5015 8.29246 16.0748 8.29246C19.6481 8.29246 22.5553 11.0187 22.5553 14.3697C22.556 17.7207 19.6487 20.447 16.0748 20.447ZM16.0748 9.56282C13.2376 9.56282 10.9291 11.7191 10.9291 14.3691C10.9291 17.0191 13.2376 19.1753 16.0748 19.1753C18.9119 19.1753 21.2205 17.0191 21.2205 14.3691C21.2205 11.7191 18.9126 9.56282 16.0748 9.56282Z" fill="white"/>
</svg>
