<svg width="34" height="33" viewBox="0 0 34 33" fill="none" xmlns="http://www.w3.org/2000/svg">
<path d="M17.3613 0C11.2097 0 6.23342 4.6831 6.23342 10.4722V13.7222H5.46598C2.92828 13.7222 0.861328 15.6674 0.861328 18.0556V20.9444C0.861328 23.3326 2.92828 25.2778 5.46598 25.2778H9.30319C9.70501 25.2777 10.0706 24.9337 10.0706 24.5556V14.4444C10.0706 14.0663 9.70501 13.7223 9.30319 13.7222H7.7683V10.4722C7.7683 5.45834 12.0335 1.44444 17.3613 1.44444C22.6891 1.44444 26.9544 5.45834 26.9544 10.4722V13.7222H25.4195C24.9801 13.7297 24.6615 14.1191 24.652 14.4444V24.5556C24.6521 24.9337 25.0176 25.2777 25.4195 25.2778H26.8824C26.7019 26.1911 26.1646 27.0365 25.1916 27.7378C24.0675 28.5481 22.3306 29.1469 19.9275 29.2387C19.589 28.2068 18.5634 27.4444 17.3613 27.4444C15.887 27.4444 14.6753 28.5847 14.6753 29.9722C14.6753 31.3597 15.887 32.5 17.3613 32.5C18.5761 32.5 19.6121 31.7318 19.9395 30.6832C22.6072 30.588 24.6706 29.9187 26.115 28.8776C27.4451 27.9189 28.225 26.6378 28.4293 25.2778H29.2567C31.7944 25.2778 33.8613 23.3326 33.8613 20.9444V18.0556C33.8613 15.6674 31.7944 13.7222 29.2567 13.7222H28.4892V10.4722C28.4892 4.6831 23.5129 0 17.3613 0H17.3613ZM5.46598 15.1667H8.53575V23.8333H5.46598C3.75206 23.8333 2.39621 22.5574 2.39621 20.9444V18.0556C2.39621 16.4426 3.75206 15.1667 5.46598 15.1667ZM26.1869 15.1667H29.2567C30.9706 15.1667 32.3264 16.4426 32.3264 18.0556V20.9444C32.3264 22.5574 30.9706 23.8333 29.2567 23.8333H26.1869V15.1667ZM17.3613 28.8889C18.0062 28.8889 18.5125 29.3654 18.5125 29.9722C18.5125 30.5791 18.0062 31.0556 17.3613 31.0556C16.7165 31.0556 16.2102 30.5791 16.2102 29.9722C16.2102 29.3654 16.7165 28.8889 17.3613 28.8889Z" fill="#3C3F47"/>
</svg>
