<svg width="15" height="22" fill="none" xmlns="http://www.w3.org/2000/svg"><path d="M10.1 6.985a2.724 2.724 0 10-5.447.006 2.724 2.724 0 005.447-.006zm-4.649 0a1.925 1.925 0 113.85 0 1.925 1.925 0 01-3.85 0z" fill="#3C3F47"/><path d="M10.033 15.798c1.925-2.695 4.328-6.523 4.328-8.813a6.985 6.985 0 00-13.97 0c0 2.29 2.403 6.115 4.328 8.813-2.65.44-4.328 1.492-4.328 2.756 0 1.69 3.003 2.968 6.985 2.968 3.981 0 6.985-1.284 6.985-2.968 0-1.267-1.678-2.316-4.329-2.756zM7.376.815a6.19 6.19 0 016.183 6.17c0 3.012-4.9 9.374-6.183 11.004-1.283-1.63-6.183-7.992-6.183-11.001A6.189 6.189 0 017.376.815zm0 19.892c-3.645 0-6.183-1.142-6.183-2.166 0-.725 1.419-1.665 4.056-2.024.962 1.322 1.73 2.245 1.816 2.355a.4.4 0 00.619 0c.09-.11.847-1.034 1.816-2.355 2.64.372 4.059 1.302 4.059 2.037 0 1.023-2.538 2.153-6.183 2.153z" fill="#3C3F47"/></svg>