<svg width="17" height="17" fill="none" xmlns="http://www.w3.org/2000/svg"><g clip-path="url(#clip0)" fill="#ff0000"><path d="M9.055 12.42c.38-.38.76-.76 1.145-1.134.67-.666 1.564-.666 2.235 0a666.1 666.1 0 011.9 1.893c.68.685.675 1.578-.006 2.268-.365.365-1.287.887-1.761 1.144-.77.444-2.023.542-2.827.232-3.947-1.204-7.337-4.64-8.99-8.353C.544 8.002.273 7.371.154 6.873c-.3-.833-.133-2.086.375-2.825.281-.434.681-1.02 1.051-1.38.671-.661 1.564-.661 2.235 0A206.12 206.12 0 015.7 4.551c.69.7.696 1.582.005 2.278-.434.434-.868.867-1.303 1.306.232.582.538 1.188.874 1.716.498.784.986 1.277 1.751 1.795.558.374 1.209.724 1.836.976l.197-.197-.005-.005zM15.45.261a.907.907 0 011.287.01c.355.36.35.937-.01 1.287l-5.841 5.754a.907.907 0 01-1.288-.01.906.906 0 01.01-1.287L15.449.261z"/><path d="M8.586 2.553a.91.91 0 111.82.014l-.039 4.029 3.72-.212a.91.91 0 11.104 1.819L9.5 8.469h-.06a.91.91 0 01-.902-.917l.05-5.004v.005z"/></g><defs><clipPath id="clip0"><path fill="#fff" d="M0 0h17v17H0z"/></clipPath></defs></svg>