<svg width="19" height="14" viewBox="0 0 19 14" fill="none" xmlns="http://www.w3.org/2000/svg">
<path d="M1.85366 0C0.825202 0 0 0.862912 0 1.8997V11.4993C0 12.5361 0.825202 13.4062 1.85366 13.4062H17.1463C18.1748 13.4062 19 12.5361 19 11.4993V1.8997C19 0.862912 18.1748 0 17.1463 0H1.85366H1.85366ZM1.85366 0.924569H17.1463C17.2835 0.924569 17.413 0.963976 17.5301 1.01846L10.072 8.08277C9.72972 8.40697 9.28537 8.40699 8.94247 8.08277L1.46991 1.01846C1.58701 0.963976 1.71651 0.924569 1.85366 0.924569H1.85366ZM0.941311 1.79135L6.2199 6.78259L1.0282 11.9544C0.963184 11.8197 0.926829 11.6655 0.926829 11.4993V1.8997C0.926829 1.86216 0.93772 1.82753 0.941195 1.79135H0.941311ZM18.0587 1.79135C18.0624 1.82753 18.0731 1.86216 18.0731 1.8997V11.4993C18.0731 11.6631 18.035 11.8139 17.9717 11.9472L12.7945 6.77536L18.0586 1.79135H18.0587ZM12.1212 7.41824L17.1898 12.4817C17.1752 12.4817 17.161 12.4817 17.1463 12.4817H1.85366C1.84138 12.4817 1.82956 12.4817 1.81747 12.4817L6.89329 7.42544L8.30527 8.75451C8.97776 9.39043 10.0369 9.39133 10.7092 8.75451L12.1212 7.41824Z" fill="#00B2F6"/>
</svg>
