<svg width="18" height="18" fill="none" xmlns="http://www.w3.org/2000/svg"><path d="M10.902 12.462l.62-.624.72-.722c.785-.786 1.833-.786 2.62.001.73.732 1.471 1.48 2.225 2.247.795.81.79 1.87-.009 2.685-.158.162-.417.354-.769.582-.078.052-.161.104-.247.158a23.44 23.44 0 01-1.048.614c-.904.527-2.373.642-3.316.274a8.427 8.427 0 01-.497-.177c-.383-.147-.81-.331-1.268-.553a18.565 18.565 0 01-3.836-2.482 16.893 16.893 0 01-2.415-2.491 19.298 19.298 0 01-3.06-5.586 7.468 7.468 0 01-.158-.505C.109 4.896.31 3.41.902 2.536a17.635 17.635 0 01.809-1.15c.154-.199.294-.363.42-.488.787-.781 1.833-.78 2.621.001.321.319 1.708 1.721 2.21 2.233.812.828.814 1.875.003 2.698l-.75.76-.568.573-.21.213c.052.133.137.337.254.592.226.494.484.987.77 1.444.313.5.638.924.97 1.252.307.302.674.595 1.086.875.482.327 1 .62 1.52.872.269.131.484.226.631.287l.234-.236zM5.415 7.318zm11.022 6.698c-.752-.765-1.49-1.511-2.22-2.242-.43-.43-.903-.43-1.331 0-.157.156-.404.404-.716.718l-.622.626-.282.283a.832.832 0 01-.877.18c-.154-.06-.416-.174-.75-.337a13.317 13.317 0 01-1.632-.937 8.649 8.649 0 01-1.214-.98 7.786 7.786 0 01-1.105-1.42 13.671 13.671 0 01-.828-1.55 11.502 11.502 0 01-.298-.703.859.859 0 01.18-.884L5 6.51l.566-.573.75-.76c.455-.462.454-.926-.004-1.394A445.589 445.589 0 004.11 1.559c-.432-.428-.908-.429-1.338-.002a4.76 4.76 0 00-.344.4l-.17.226a16.725 16.725 0 00-.595.865c-.433.641-.592 1.816-.328 2.558.022.083.072.247.151.481a18.377 18.377 0 002.91 5.309 15.983 15.983 0 002.285 2.358 17.654 17.654 0 003.647 2.359c.435.21.837.384 1.197.522.214.082.364.134.47.168.716.278 1.896.186 2.571-.207a22.52 22.52 0 001.246-.742c.3-.194.518-.356.615-.456.447-.455.449-.934.009-1.382z" fill="#3C3F47"/></svg>