<svg width="104" height="137" viewBox="0 0 104 137" fill="none" xmlns="http://www.w3.org/2000/svg">
<path d="M7.956 62.936H18.036V36.476C18.036 35.18 18.072 33.824 18.144 32.408L12.204 37.34C11.676 37.748 11.148 38 10.62 38.096C10.116 38.168 9.636 38.168 9.18 38.096C8.724 38 8.316 37.844 7.956 37.628C7.596 37.388 7.332 37.148 7.164 36.908L3.636 32.228L19.98 18.512H29.196V62.936H37.836V71H7.956V62.936ZM84.9656 44.756C84.9656 49.34 84.4736 53.312 83.4896 56.672C82.5056 60.032 81.1376 62.816 79.3856 65.024C77.6576 67.232 75.5936 68.876 73.1936 69.956C70.8176 71.036 68.2376 71.576 65.4536 71.576C62.6696 71.576 60.0896 71.036 57.7136 69.956C55.3616 68.876 53.3216 67.232 51.5936 65.024C49.8656 62.816 48.5096 60.032 47.5256 56.672C46.5656 53.312 46.0856 49.34 46.0856 44.756C46.0856 40.172 46.5656 36.2 47.5256 32.84C48.5096 29.48 49.8656 26.696 51.5936 24.488C53.3216 22.28 55.3616 20.648 57.7136 19.592C60.0896 18.512 62.6696 17.972 65.4536 17.972C68.2376 17.972 70.8176 18.512 73.1936 19.592C75.5936 20.648 77.6576 22.28 79.3856 24.488C81.1376 26.696 82.5056 29.48 83.4896 32.84C84.4736 36.2 84.9656 40.172 84.9656 44.756ZM73.4456 44.756C73.4456 41.132 73.2176 38.168 72.7616 35.864C72.3056 33.536 71.6936 31.712 70.9256 30.392C70.1816 29.072 69.3296 28.172 68.3696 27.692C67.4096 27.188 66.4376 26.936 65.4536 26.936C64.4696 26.936 63.4976 27.188 62.5376 27.692C61.6016 28.172 60.7616 29.072 60.0176 30.392C59.2976 31.712 58.7096 33.536 58.2536 35.864C57.8216 38.168 57.6056 41.132 57.6056 44.756C57.6056 48.404 57.8216 51.38 58.2536 53.684C58.7096 55.988 59.2976 57.812 60.0176 59.156C60.7616 60.476 61.6016 61.388 62.5376 61.892C63.4976 62.372 64.4696 62.612 65.4536 62.612C66.4376 62.612 67.4096 62.372 68.3696 61.892C69.3296 61.388 70.1816 60.476 70.9256 59.156C71.6936 57.812 72.3056 55.988 72.7616 53.684C73.2176 51.38 73.4456 48.404 73.4456 44.756Z" fill="url(#paint0_linear_167_291)"/>
<path d="M6.94 91.9695H5.72C5.59333 91.9695 5.48667 91.9361 5.4 91.8695C5.31667 91.8028 5.23833 91.7045 5.165 91.5745L3.625 89.1445C3.585 89.0745 3.54167 89.0178 3.495 88.9745C3.45167 88.9278 3.40333 88.8911 3.35 88.8645C3.3 88.8345 3.24167 88.8145 3.175 88.8045C3.11167 88.7945 3.03833 88.7895 2.955 88.7895H2.15V91.9695H0.805V84.7395H2.15V87.7695H2.83C2.96667 87.7695 3.085 87.7461 3.185 87.6995C3.285 87.6528 3.37833 87.5661 3.465 87.4395L5.05 85.0995C5.11667 84.9928 5.195 84.9061 5.285 84.8395C5.375 84.7728 5.48333 84.7395 5.61 84.7395H6.76L4.795 87.6395C4.71167 87.7661 4.615 87.8711 4.505 87.9545C4.395 88.0378 4.27333 88.1028 4.14 88.1495C4.34 88.2061 4.50833 88.2961 4.645 88.4195C4.785 88.5395 4.91833 88.7061 5.045 88.9195L6.94 91.9695ZM10.5179 88.3745C10.7646 88.3745 10.9796 88.3445 11.1629 88.2845C11.3462 88.2211 11.4979 88.1328 11.6179 88.0195C11.7412 87.9028 11.8329 87.7628 11.8929 87.5995C11.9529 87.4328 11.9829 87.2478 11.9829 87.0445C11.9829 86.8511 11.9529 86.6761 11.8929 86.5195C11.8329 86.3628 11.7429 86.2295 11.6229 86.1195C11.5029 86.0095 11.3512 85.9261 11.1679 85.8695C10.9846 85.8095 10.7679 85.7795 10.5179 85.7795H9.51289V88.3745H10.5179ZM10.5179 84.7395C11.0012 84.7395 11.4196 84.7961 11.7729 84.9095C12.1262 85.0228 12.4179 85.1811 12.6479 85.3845C12.8779 85.5878 13.0479 85.8311 13.1579 86.1145C13.2712 86.3978 13.3279 86.7078 13.3279 87.0445C13.3279 87.3945 13.2696 87.7161 13.1529 88.0095C13.0362 88.2995 12.8612 88.5495 12.6279 88.7595C12.3946 88.9695 12.1012 89.1328 11.7479 89.2495C11.3979 89.3661 10.9879 89.4245 10.5179 89.4245H9.51289V91.9695H8.16789V84.7395H10.5179ZM20.4943 84.7395L17.5743 90.9645C17.471 91.1811 17.361 91.3595 17.2443 91.4995C17.1276 91.6395 17.001 91.7495 16.8643 91.8295C16.731 91.9095 16.586 91.9645 16.4293 91.9945C16.276 92.0278 16.111 92.0445 15.9343 92.0445C15.6943 92.0445 15.5193 92.0228 15.4093 91.9795C15.2993 91.9361 15.2443 91.8728 15.2443 91.7895V90.9495H15.6343C15.7076 90.9495 15.7826 90.9428 15.8593 90.9295C15.936 90.9161 16.011 90.8895 16.0843 90.8495C16.161 90.8095 16.2343 90.7528 16.3043 90.6795C16.3743 90.6061 16.4393 90.5095 16.4993 90.3895L16.7843 89.8095L13.8843 84.7395H15.1443C15.261 84.7395 15.3543 84.7678 15.4243 84.8245C15.4943 84.8811 15.5526 84.9528 15.5993 85.0395L17.0043 87.6895C17.081 87.8361 17.1493 87.9811 17.2093 88.1245C17.2726 88.2678 17.3276 88.4145 17.3743 88.5645C17.461 88.2645 17.5726 87.9728 17.7093 87.6895L18.9343 85.0395C18.971 84.9661 19.026 84.8978 19.0993 84.8345C19.1726 84.7711 19.266 84.7395 19.3793 84.7395H20.4943ZM27.4496 91.9695H26.0946V85.7745H22.9546V91.9695H21.6046V84.7395H27.4496V91.9695ZM35.5508 84.7395V91.9695H34.2008V88.8095H30.8058V91.9695H29.4558V84.7395H30.8058V87.8495H34.2008V84.7395H35.5508ZM38.9109 85.8095V87.8145H41.4409V88.8495H38.9109V90.8945H42.1209V91.9695H37.5609V84.7395H42.1209V85.8095H38.9109ZM49.8078 84.7395V91.9695H48.4578V87.4395C48.4578 87.2695 48.4611 87.0911 48.4678 86.9045C48.4778 86.7178 48.4978 86.5195 48.5278 86.3095C48.4611 86.4961 48.3878 86.6695 48.3078 86.8295C48.2311 86.9861 48.1561 87.1245 48.0828 87.2445L45.3178 91.5545C45.2878 91.6045 45.2511 91.6545 45.2078 91.7045C45.1678 91.7545 45.1228 91.7995 45.0728 91.8395C45.0228 91.8761 44.9678 91.9078 44.9078 91.9345C44.8478 91.9578 44.7861 91.9695 44.7228 91.9695H43.7128V84.7395H45.0628V89.2695C45.0628 89.4395 45.0578 89.6195 45.0478 89.8095C45.0411 89.9961 45.0228 90.1945 44.9928 90.4045C45.0595 90.2178 45.1311 90.0445 45.2078 89.8845C45.2878 89.7245 45.3661 89.5845 45.4428 89.4645L48.2028 85.1545C48.2328 85.1045 48.2678 85.0545 48.3078 85.0045C48.3511 84.9545 48.3978 84.9111 48.4478 84.8745C48.4978 84.8345 48.5511 84.8028 48.6078 84.7795C48.6678 84.7528 48.7311 84.7395 48.7978 84.7395H49.8078ZM46.8228 83.6945C46.9461 83.6945 47.0495 83.6828 47.1328 83.6595C47.2161 83.6361 47.2828 83.5961 47.3328 83.5395C47.3828 83.4795 47.4178 83.3995 47.4378 83.2995C47.4578 83.1995 47.4678 83.0728 47.4678 82.9195H48.1978C48.2845 82.9195 48.3478 82.9561 48.3878 83.0295C48.4311 83.1028 48.4528 83.1828 48.4528 83.2695C48.4528 83.4395 48.4145 83.5895 48.3378 83.7195C48.2611 83.8495 48.1511 83.9578 48.0078 84.0445C47.8645 84.1311 47.6928 84.1978 47.4928 84.2445C47.2928 84.2878 47.0695 84.3095 46.8228 84.3095C46.5761 84.3095 46.3528 84.2878 46.1528 84.2445C45.9528 84.1978 45.7811 84.1311 45.6378 84.0445C45.4945 83.9578 45.3845 83.8495 45.3078 83.7195C45.2311 83.5895 45.1928 83.4395 45.1928 83.2695C45.1928 83.1828 45.2128 83.1028 45.2528 83.0295C45.2961 82.9561 45.3611 82.9195 45.4478 82.9195H46.1778C46.1778 83.0728 46.1878 83.1995 46.2078 83.2995C46.2278 83.3995 46.2628 83.4795 46.3128 83.5395C46.3628 83.5961 46.4278 83.6361 46.5078 83.6595C46.5911 83.6828 46.6961 83.6945 46.8228 83.6945ZM61.0579 84.7395V91.9695H51.8179V84.7395H53.1679V90.9345H55.7579V84.7395H57.1079V90.9345H59.7079V84.7395H61.0579ZM69.1625 84.7395V91.9695H67.8125V87.4395C67.8125 87.2695 67.8158 87.0911 67.8225 86.9045C67.8325 86.7178 67.8525 86.5195 67.8825 86.3095C67.8158 86.4961 67.7425 86.6695 67.6625 86.8295C67.5858 86.9861 67.5108 87.1245 67.4375 87.2445L64.6725 91.5545C64.6425 91.6045 64.6058 91.6545 64.5625 91.7045C64.5225 91.7545 64.4775 91.7995 64.4275 91.8395C64.3775 91.8761 64.3225 91.9078 64.2625 91.9345C64.2025 91.9578 64.1408 91.9695 64.0775 91.9695H63.0675V84.7395H64.4175V89.2695C64.4175 89.4395 64.4125 89.6195 64.4025 89.8095C64.3958 89.9961 64.3775 90.1945 64.3475 90.4045C64.4142 90.2178 64.4858 90.0445 64.5625 89.8845C64.6425 89.7245 64.7208 89.5845 64.7975 89.4645L67.5575 85.1545C67.5875 85.1045 67.6225 85.0545 67.6625 85.0045C67.7058 84.9545 67.7525 84.9111 67.8025 84.8745C67.8525 84.8345 67.9058 84.8028 67.9625 84.7795C68.0225 84.7528 68.0858 84.7395 68.1525 84.7395H69.1625ZM77.0476 91.9695H75.7076C75.6142 91.9695 75.5392 91.9461 75.4826 91.8995C75.4292 91.8528 75.3859 91.7995 75.3526 91.7395L73.6776 88.9645C73.6509 89.0478 73.6192 89.1195 73.5826 89.1795L71.9776 91.7395C71.9376 91.7961 71.8909 91.8495 71.8376 91.8995C71.7876 91.9461 71.7209 91.9695 71.6376 91.9695H70.3826L72.7826 88.2495L70.4776 84.7395H71.8176C71.9109 84.7395 71.9776 84.7528 72.0176 84.7795C72.0609 84.8028 72.1009 84.8428 72.1376 84.8995L73.7826 87.5495C73.8159 87.4661 73.8559 87.3828 73.9026 87.2995L75.4126 84.9245C75.4492 84.8611 75.4892 84.8145 75.5326 84.7845C75.5759 84.7545 75.6309 84.7395 75.6976 84.7395H76.9826L74.6576 88.1945L77.0476 91.9695ZM6.65 105.969H5.295V99.7745H2.155V105.969H0.805V98.7395H6.65V105.969ZM11.0062 102.374C11.2528 102.374 11.4678 102.344 11.6512 102.284C11.8345 102.221 11.9862 102.133 12.1062 102.019C12.2295 101.903 12.3212 101.763 12.3812 101.599C12.4412 101.433 12.4712 101.248 12.4712 101.044C12.4712 100.851 12.4412 100.676 12.3812 100.519C12.3212 100.363 12.2312 100.229 12.1112 100.119C11.9912 100.009 11.8395 99.9261 11.6562 99.8695C11.4728 99.8095 11.2562 99.7795 11.0062 99.7795H10.0012V102.374H11.0062ZM11.0062 98.7395C11.4895 98.7395 11.9078 98.7961 12.2612 98.9095C12.6145 99.0228 12.9062 99.1811 13.1362 99.3845C13.3662 99.5878 13.5362 99.8311 13.6462 100.114C13.7595 100.398 13.8162 100.708 13.8162 101.044C13.8162 101.394 13.7578 101.716 13.6412 102.009C13.5245 102.299 13.3495 102.549 13.1162 102.759C12.8828 102.969 12.5895 103.133 12.2362 103.249C11.8862 103.366 11.4762 103.424 11.0062 103.424H10.0012V105.969H8.65617V98.7395H11.0062ZM22.1426 102.354C22.1426 102.884 22.0542 103.376 21.8776 103.829C21.7042 104.279 21.4576 104.669 21.1376 104.999C20.8176 105.329 20.4326 105.588 19.9826 105.774C19.5326 105.958 19.0326 106.049 18.4826 106.049C17.9359 106.049 17.4376 105.958 16.9876 105.774C16.5376 105.588 16.1509 105.329 15.8276 104.999C15.5076 104.669 15.2592 104.279 15.0826 103.829C14.9059 103.376 14.8176 102.884 14.8176 102.354C14.8176 101.824 14.9059 101.334 15.0826 100.884C15.2592 100.431 15.5076 100.039 15.8276 99.7095C16.1509 99.3795 16.5376 99.1228 16.9876 98.9395C17.4376 98.7528 17.9359 98.6595 18.4826 98.6595C18.8492 98.6595 19.1942 98.7028 19.5176 98.7895C19.8409 98.8728 20.1376 98.9928 20.4076 99.1495C20.6776 99.3028 20.9192 99.4911 21.1326 99.7145C21.3492 99.9345 21.5326 100.181 21.6826 100.454C21.8326 100.728 21.9459 101.024 22.0226 101.344C22.1026 101.664 22.1426 102.001 22.1426 102.354ZM20.7676 102.354C20.7676 101.958 20.7142 101.603 20.6076 101.289C20.5009 100.973 20.3492 100.704 20.1526 100.484C19.9559 100.264 19.7159 100.096 19.4326 99.9795C19.1526 99.8628 18.8359 99.8045 18.4826 99.8045C18.1292 99.8045 17.8109 99.8628 17.5276 99.9795C17.2476 100.096 17.0076 100.264 16.8076 100.484C16.6109 100.704 16.4592 100.973 16.3526 101.289C16.2459 101.603 16.1926 101.958 16.1926 102.354C16.1926 102.751 16.2459 103.108 16.3526 103.424C16.4592 103.738 16.6109 104.004 16.8076 104.224C17.0076 104.441 17.2476 104.608 17.5276 104.724C17.8109 104.841 18.1292 104.899 18.4826 104.899C18.8359 104.899 19.1526 104.841 19.4326 104.724C19.7159 104.608 19.9559 104.441 20.1526 104.224C20.3492 104.004 20.5009 103.738 20.6076 103.424C20.7142 103.108 20.7676 102.751 20.7676 102.354ZM29.8188 98.7395V105.969H28.4688V101.439C28.4688 101.269 28.4721 101.091 28.4788 100.904C28.4888 100.718 28.5088 100.519 28.5388 100.309C28.4721 100.496 28.3988 100.669 28.3188 100.829C28.2421 100.986 28.1671 101.124 28.0938 101.244L25.3288 105.554C25.2988 105.604 25.2621 105.654 25.2188 105.704C25.1788 105.754 25.1338 105.799 25.0838 105.839C25.0338 105.876 24.9788 105.908 24.9188 105.934C24.8588 105.958 24.7971 105.969 24.7338 105.969H23.7238V98.7395H25.0738V103.269C25.0738 103.439 25.0688 103.619 25.0588 103.809C25.0521 103.996 25.0338 104.194 25.0038 104.404C25.0704 104.218 25.1421 104.044 25.2188 103.884C25.2988 103.724 25.3771 103.584 25.4538 103.464L28.2138 99.1545C28.2438 99.1045 28.2788 99.0545 28.3188 99.0045C28.3621 98.9545 28.4088 98.9111 28.4588 98.8745C28.5088 98.8345 28.5621 98.8028 28.6188 98.7795C28.6788 98.7528 28.7421 98.7395 28.8088 98.7395H29.8188ZM31.4138 99.4195C31.6938 99.1795 32.0255 98.9928 32.4088 98.8595C32.7955 98.7261 33.2238 98.6595 33.6938 98.6595C34.0838 98.6595 34.4355 98.7061 34.7488 98.7995C35.0655 98.8928 35.3338 99.0245 35.5538 99.1945C35.7738 99.3611 35.9422 99.5611 36.0588 99.7945C36.1788 100.024 36.2388 100.278 36.2388 100.554C36.2388 100.894 36.1605 101.203 36.0038 101.479C35.8505 101.753 35.6172 101.974 35.3038 102.144C35.4705 102.224 35.6222 102.319 35.7588 102.429C35.8988 102.536 36.0172 102.656 36.1138 102.789C36.2138 102.919 36.2905 103.061 36.3438 103.214C36.4005 103.368 36.4288 103.531 36.4288 103.704C36.4288 104.031 36.3672 104.336 36.2438 104.619C36.1238 104.903 35.9472 105.149 35.7138 105.359C35.4838 105.569 35.2005 105.736 34.8638 105.859C34.5272 105.979 34.1422 106.039 33.7088 106.039C33.4555 106.039 33.2072 106.016 32.9638 105.969C32.7238 105.926 32.4938 105.863 32.2738 105.779C32.0538 105.696 31.8472 105.596 31.6538 105.479C31.4605 105.363 31.2888 105.233 31.1388 105.089L31.5338 104.444C31.5705 104.398 31.6138 104.359 31.6638 104.329C31.7172 104.296 31.7755 104.279 31.8388 104.279C31.9255 104.279 32.0205 104.314 32.1238 104.384C32.2272 104.451 32.3522 104.526 32.4988 104.609C32.6455 104.693 32.8188 104.769 33.0188 104.839C33.2222 104.906 33.4655 104.939 33.7488 104.939C34.1988 104.939 34.5472 104.843 34.7938 104.649C35.0405 104.456 35.1638 104.159 35.1638 103.759C35.1638 103.596 35.1305 103.449 35.0638 103.319C34.9972 103.189 34.9022 103.079 34.7788 102.989C34.6555 102.899 34.5055 102.831 34.3288 102.784C34.1555 102.734 33.9622 102.709 33.7488 102.709H32.7288L32.7238 101.629H33.6538C34.0705 101.629 34.3955 101.548 34.6288 101.384C34.8655 101.218 34.9838 100.978 34.9838 100.664C34.9838 100.388 34.8722 100.168 34.6488 100.004C34.4288 99.8378 34.1088 99.7545 33.6888 99.7545C33.4455 99.7545 33.2355 99.7811 33.0588 99.8345C32.8855 99.8878 32.7338 99.9461 32.6038 100.009C32.4772 100.069 32.3688 100.126 32.2788 100.179C32.1922 100.233 32.1138 100.259 32.0438 100.259C31.9772 100.259 31.9205 100.243 31.8738 100.209C31.8272 100.176 31.7838 100.126 31.7438 100.059L31.4138 99.4195ZM40.7444 104.919C40.9944 104.919 41.2044 104.889 41.3744 104.829C41.5444 104.769 41.6794 104.689 41.7794 104.589C41.8827 104.489 41.956 104.373 41.9994 104.239C42.046 104.106 42.0694 103.964 42.0694 103.814C42.0694 103.658 42.0444 103.518 41.9944 103.394C41.9444 103.268 41.866 103.161 41.7594 103.074C41.6527 102.984 41.5144 102.916 41.3444 102.869C41.1777 102.823 40.976 102.799 40.7394 102.799H39.3844V104.919H40.7444ZM39.3844 99.7795V101.869H40.4544C40.9144 101.869 41.261 101.786 41.4944 101.619C41.731 101.453 41.8494 101.188 41.8494 100.824C41.8494 100.448 41.7427 100.179 41.5294 100.019C41.316 99.8595 40.9827 99.7795 40.5294 99.7795H39.3844ZM40.5294 98.7395C41.0027 98.7395 41.4077 98.7845 41.7444 98.8745C42.081 98.9645 42.356 99.0928 42.5694 99.2595C42.786 99.4261 42.9444 99.6278 43.0444 99.8645C43.1444 100.101 43.1944 100.368 43.1944 100.664C43.1944 100.834 43.1694 100.998 43.1194 101.154C43.0694 101.308 42.991 101.453 42.8844 101.589C42.781 101.723 42.6477 101.844 42.4844 101.954C42.3244 102.064 42.1327 102.158 41.9094 102.234C42.9027 102.458 43.3994 102.994 43.3994 103.844C43.3994 104.151 43.341 104.434 43.2244 104.694C43.1077 104.954 42.9377 105.179 42.7144 105.369C42.491 105.556 42.216 105.703 41.8894 105.809C41.5627 105.916 41.1894 105.969 40.7694 105.969H38.0394V98.7395H40.5294ZM51.9164 102.354C51.9164 102.884 51.8281 103.376 51.6514 103.829C51.4781 104.279 51.2314 104.669 50.9114 104.999C50.5914 105.329 50.2064 105.588 49.7564 105.774C49.3064 105.958 48.8064 106.049 48.2564 106.049C47.7097 106.049 47.2114 105.958 46.7614 105.774C46.3114 105.588 45.9247 105.329 45.6014 104.999C45.2814 104.669 45.0331 104.279 44.8564 103.829C44.6797 103.376 44.5914 102.884 44.5914 102.354C44.5914 101.824 44.6797 101.334 44.8564 100.884C45.0331 100.431 45.2814 100.039 45.6014 99.7095C45.9247 99.3795 46.3114 99.1228 46.7614 98.9395C47.2114 98.7528 47.7097 98.6595 48.2564 98.6595C48.6231 98.6595 48.9681 98.7028 49.2914 98.7895C49.6147 98.8728 49.9114 98.9928 50.1814 99.1495C50.4514 99.3028 50.6931 99.4911 50.9064 99.7145C51.1231 99.9345 51.3064 100.181 51.4564 100.454C51.6064 100.728 51.7197 101.024 51.7964 101.344C51.8764 101.664 51.9164 102.001 51.9164 102.354ZM50.5414 102.354C50.5414 101.958 50.4881 101.603 50.3814 101.289C50.2747 100.973 50.1231 100.704 49.9264 100.484C49.7297 100.264 49.4897 100.096 49.2064 99.9795C48.9264 99.8628 48.6097 99.8045 48.2564 99.8045C47.9031 99.8045 47.5847 99.8628 47.3014 99.9795C47.0214 100.096 46.7814 100.264 46.5814 100.484C46.3847 100.704 46.2331 100.973 46.1264 101.289C46.0197 101.603 45.9664 101.958 45.9664 102.354C45.9664 102.751 46.0197 103.108 46.1264 103.424C46.2331 103.738 46.3847 104.004 46.5814 104.224C46.7814 104.441 47.0214 104.608 47.3014 104.724C47.5847 104.841 47.9031 104.899 48.2564 104.899C48.6097 104.899 48.9264 104.841 49.2064 104.724C49.4897 104.608 49.7297 104.441 49.9264 104.224C50.1231 104.004 50.2747 103.738 50.3814 103.424C50.4881 103.108 50.5414 102.751 50.5414 102.354ZM57.8137 104.934V99.7745H55.8387C55.7987 100.484 55.7437 101.114 55.6737 101.664C55.607 102.214 55.5287 102.698 55.4387 103.114C55.3487 103.531 55.2487 103.888 55.1387 104.184C55.0287 104.481 54.9103 104.731 54.7837 104.934H57.8137ZM60.2887 104.934V107.304C60.2887 107.421 60.2487 107.514 60.1687 107.584C60.092 107.654 59.9903 107.689 59.8637 107.689H59.0537V105.969H53.7437V107.304C53.7437 107.421 53.7037 107.514 53.6237 107.584C53.547 107.654 53.4453 107.689 53.3187 107.689H52.5087V104.934H53.2987C53.392 104.884 53.4837 104.804 53.5737 104.694C53.667 104.584 53.757 104.429 53.8437 104.229C53.9303 104.029 54.012 103.776 54.0887 103.469C54.1687 103.163 54.2403 102.789 54.3037 102.349C54.367 101.906 54.4203 101.388 54.4637 100.794C54.5103 100.201 54.5453 99.5161 54.5687 98.7395H59.1637V104.934H60.2887ZM67.8148 98.7395V105.969H66.4648V101.439C66.4648 101.269 66.4682 101.091 66.4748 100.904C66.4848 100.718 66.5048 100.519 66.5348 100.309C66.4682 100.496 66.3948 100.669 66.3148 100.829C66.2382 100.986 66.1632 101.124 66.0898 101.244L63.3248 105.554C63.2948 105.604 63.2582 105.654 63.2148 105.704C63.1748 105.754 63.1298 105.799 63.0798 105.839C63.0298 105.876 62.9748 105.908 62.9148 105.934C62.8548 105.958 62.7932 105.969 62.7298 105.969H61.7198V98.7395H63.0698V103.269C63.0698 103.439 63.0648 103.619 63.0548 103.809C63.0482 103.996 63.0298 104.194 62.9998 104.404C63.0665 104.218 63.1382 104.044 63.2148 103.884C63.2948 103.724 63.3732 103.584 63.4498 103.464L66.2098 99.1545C66.2398 99.1045 66.2748 99.0545 66.3148 99.0045C66.3582 98.9545 66.4048 98.9111 66.4548 98.8745C66.5048 98.8345 66.5582 98.8028 66.6148 98.7795C66.6748 98.7528 66.7382 98.7395 66.8048 98.7395H67.8148ZM74.8749 99.8445H72.6949V105.969H71.3499V99.8445H69.1699V98.7395H74.8749V99.8445ZM77.571 99.8095V101.814H80.101V102.849H77.571V104.894H80.781V105.969H76.221V98.7395H80.781V99.8095H77.571ZM88.203 105.969H86.848V99.7745H84.873C84.8263 100.681 84.7596 101.466 84.673 102.129C84.5896 102.789 84.488 103.353 84.368 103.819C84.2513 104.283 84.1163 104.659 83.963 104.949C83.813 105.239 83.648 105.466 83.468 105.629C83.288 105.789 83.0946 105.899 82.888 105.959C82.6813 106.016 82.4646 106.044 82.238 106.044C81.998 106.044 81.823 106.023 81.713 105.979C81.603 105.936 81.548 105.873 81.548 105.789V104.949H81.933C82.0196 104.949 82.1063 104.939 82.193 104.919C82.283 104.899 82.3713 104.858 82.458 104.794C82.548 104.728 82.6346 104.633 82.718 104.509C82.8046 104.386 82.8863 104.221 82.963 104.014C83.043 103.804 83.1163 103.548 83.183 103.244C83.253 102.941 83.3146 102.576 83.368 102.149C83.4246 101.723 83.473 101.229 83.513 100.669C83.5563 100.106 83.588 99.4628 83.608 98.7395H88.203V105.969ZM91.5644 99.8095V101.814H94.0944V102.849H91.5644V104.894H94.7744V105.969H90.2144V98.7395H94.7744V99.8095H91.5644ZM102.461 98.7395V105.969H101.111V101.439C101.111 101.269 101.115 101.091 101.121 100.904C101.131 100.718 101.151 100.519 101.181 100.309C101.115 100.496 101.041 100.669 100.961 100.829C100.885 100.986 100.81 101.124 100.736 101.244L97.9713 105.554C97.9413 105.604 97.9047 105.654 97.8613 105.704C97.8213 105.754 97.7763 105.799 97.7263 105.839C97.6763 105.876 97.6213 105.908 97.5613 105.934C97.5013 105.958 97.4397 105.969 97.3763 105.969H96.3663V98.7395H97.7163V103.269C97.7163 103.439 97.7113 103.619 97.7013 103.809C97.6947 103.996 97.6763 104.194 97.6463 104.404C97.713 104.218 97.7847 104.044 97.8613 103.884C97.9413 103.724 98.0197 103.584 98.0963 103.464L100.856 99.1545C100.886 99.1045 100.921 99.0545 100.961 99.0045C101.005 98.9545 101.051 98.9111 101.101 98.8745C101.151 98.8345 101.205 98.8028 101.261 98.7795C101.321 98.7528 101.385 98.7395 101.451 98.7395H102.461ZM99.4763 97.6945C99.5997 97.6945 99.703 97.6828 99.7863 97.6595C99.8697 97.6361 99.9363 97.5961 99.9863 97.5395C100.036 97.4795 100.071 97.3995 100.091 97.2995C100.111 97.1995 100.121 97.0728 100.121 96.9195H100.851C100.938 96.9195 101.001 96.9561 101.041 97.0295C101.085 97.1028 101.106 97.1828 101.106 97.2695C101.106 97.4395 101.068 97.5895 100.991 97.7195C100.915 97.8495 100.805 97.9578 100.661 98.0445C100.518 98.1311 100.346 98.1978 100.146 98.2445C99.9463 98.2878 99.723 98.3095 99.4763 98.3095C99.2297 98.3095 99.0063 98.2878 98.8063 98.2445C98.6063 98.1978 98.4347 98.1311 98.2913 98.0445C98.148 97.9578 98.038 97.8495 97.9613 97.7195C97.8847 97.5895 97.8463 97.4395 97.8463 97.2695C97.8463 97.1828 97.8663 97.1028 97.9063 97.0295C97.9497 96.9561 98.0147 96.9195 98.1013 96.9195H98.8313C98.8313 97.0728 98.8413 97.1995 98.8613 97.2995C98.8813 97.3995 98.9163 97.4795 98.9663 97.5395C99.0163 97.5961 99.0813 97.6361 99.1613 97.6595C99.2447 97.6828 99.3497 97.6945 99.4763 97.6945ZM5.265 113.774H2.155V119.969H0.805V112.739H5.265V113.774ZM9.54125 117.239L8.66125 114.834C8.61792 114.728 8.57292 114.601 8.52625 114.454C8.47958 114.308 8.43292 114.149 8.38625 113.979C8.34292 114.149 8.29792 114.309 8.25125 114.459C8.20458 114.606 8.15958 114.734 8.11625 114.844L7.24125 117.239H9.54125ZM11.9163 119.969H10.8763C10.7596 119.969 10.6646 119.941 10.5913 119.884C10.5179 119.824 10.4629 119.751 10.4263 119.664L9.88625 118.189H6.89125L6.35125 119.664C6.32458 119.741 6.27292 119.811 6.19625 119.874C6.11958 119.938 6.02292 119.969 5.90625 119.969H4.86125L7.70125 112.739H9.07625L11.9163 119.969ZM12.6353 113.419C12.9153 113.179 13.247 112.993 13.6303 112.859C14.017 112.726 14.4453 112.659 14.9153 112.659C15.3053 112.659 15.657 112.706 15.9703 112.799C16.287 112.893 16.5553 113.024 16.7753 113.194C16.9953 113.361 17.1636 113.561 17.2803 113.794C17.4003 114.024 17.4603 114.278 17.4603 114.554C17.4603 114.894 17.382 115.203 17.2253 115.479C17.072 115.753 16.8386 115.974 16.5253 116.144C16.692 116.224 16.8436 116.319 16.9803 116.429C17.1203 116.536 17.2386 116.656 17.3353 116.789C17.4353 116.919 17.512 117.061 17.5653 117.214C17.622 117.368 17.6503 117.531 17.6503 117.704C17.6503 118.031 17.5886 118.336 17.4653 118.619C17.3453 118.903 17.1686 119.149 16.9353 119.359C16.7053 119.569 16.422 119.736 16.0853 119.859C15.7486 119.979 15.3636 120.039 14.9303 120.039C14.677 120.039 14.4286 120.016 14.1853 119.969C13.9453 119.926 13.7153 119.863 13.4953 119.779C13.2753 119.696 13.0686 119.596 12.8753 119.479C12.682 119.363 12.5103 119.233 12.3603 119.089L12.7553 118.444C12.792 118.398 12.8353 118.359 12.8853 118.329C12.9386 118.296 12.997 118.279 13.0603 118.279C13.147 118.279 13.242 118.314 13.3453 118.384C13.4486 118.451 13.5736 118.526 13.7203 118.609C13.867 118.693 14.0403 118.769 14.2403 118.839C14.4436 118.906 14.687 118.939 14.9703 118.939C15.4203 118.939 15.7686 118.843 16.0153 118.649C16.262 118.456 16.3853 118.159 16.3853 117.759C16.3853 117.596 16.352 117.449 16.2853 117.319C16.2186 117.189 16.1236 117.079 16.0003 116.989C15.877 116.899 15.727 116.831 15.5503 116.784C15.377 116.734 15.1836 116.709 14.9703 116.709H13.9503L13.9453 115.629H14.8753C15.292 115.629 15.617 115.548 15.8503 115.384C16.087 115.218 16.2053 114.978 16.2053 114.664C16.2053 114.388 16.0936 114.168 15.8703 114.004C15.6503 113.838 15.3303 113.754 14.9103 113.754C14.667 113.754 14.457 113.781 14.2803 113.834C14.107 113.888 13.9553 113.946 13.8253 114.009C13.6986 114.069 13.5903 114.126 13.5003 114.179C13.4136 114.233 13.3353 114.259 13.2653 114.259C13.1986 114.259 13.142 114.243 13.0953 114.209C13.0486 114.176 13.0053 114.126 12.9653 114.059L12.6353 113.419ZM26.1559 116.354C26.1559 116.884 26.0675 117.376 25.8909 117.829C25.7175 118.279 25.4709 118.669 25.1509 118.999C24.8309 119.329 24.4459 119.588 23.9959 119.774C23.5459 119.958 23.0459 120.049 22.4959 120.049C21.9492 120.049 21.4509 119.958 21.0009 119.774C20.5509 119.588 20.1642 119.329 19.8409 118.999C19.5209 118.669 19.2725 118.279 19.0959 117.829C18.9192 117.376 18.8309 116.884 18.8309 116.354C18.8309 115.824 18.9192 115.334 19.0959 114.884C19.2725 114.431 19.5209 114.039 19.8409 113.709C20.1642 113.379 20.5509 113.123 21.0009 112.939C21.4509 112.753 21.9492 112.659 22.4959 112.659C22.8625 112.659 23.2075 112.703 23.5309 112.789C23.8542 112.873 24.1509 112.993 24.4209 113.149C24.6909 113.303 24.9325 113.491 25.1459 113.714C25.3625 113.934 25.5459 114.181 25.6959 114.454C25.8459 114.728 25.9592 115.024 26.0359 115.344C26.1159 115.664 26.1559 116.001 26.1559 116.354ZM24.7809 116.354C24.7809 115.958 24.7275 115.603 24.6209 115.289C24.5142 114.973 24.3625 114.704 24.1659 114.484C23.9692 114.264 23.7292 114.096 23.4459 113.979C23.1659 113.863 22.8492 113.804 22.4959 113.804C22.1425 113.804 21.8242 113.863 21.5409 113.979C21.2609 114.096 21.0209 114.264 20.8209 114.484C20.6242 114.704 20.4725 114.973 20.3659 115.289C20.2592 115.603 20.2059 115.958 20.2059 116.354C20.2059 116.751 20.2592 117.108 20.3659 117.424C20.4725 117.738 20.6242 118.004 20.8209 118.224C21.0209 118.441 21.2609 118.608 21.5409 118.724C21.8242 118.841 22.1425 118.899 22.4959 118.899C22.8492 118.899 23.1659 118.841 23.4459 118.724C23.7292 118.608 23.9692 118.441 24.1659 118.224C24.3625 118.004 24.5142 117.738 24.6209 117.424C24.7275 117.108 24.7809 116.751 24.7809 116.354ZM30.442 118.919C30.692 118.919 30.902 118.889 31.072 118.829C31.242 118.769 31.377 118.689 31.477 118.589C31.5804 118.489 31.6537 118.373 31.697 118.239C31.7437 118.106 31.767 117.964 31.767 117.814C31.767 117.658 31.742 117.518 31.692 117.394C31.642 117.268 31.5637 117.161 31.457 117.074C31.3504 116.984 31.212 116.916 31.042 116.869C30.8754 116.823 30.6737 116.799 30.437 116.799H29.082V118.919H30.442ZM29.082 113.779V115.869H30.152C30.612 115.869 30.9587 115.786 31.192 115.619C31.4287 115.453 31.547 115.188 31.547 114.824C31.547 114.448 31.4404 114.179 31.227 114.019C31.0137 113.859 30.6804 113.779 30.227 113.779H29.082ZM30.227 112.739C30.7004 112.739 31.1054 112.784 31.442 112.874C31.7787 112.964 32.0537 113.093 32.267 113.259C32.4837 113.426 32.642 113.628 32.742 113.864C32.842 114.101 32.892 114.368 32.892 114.664C32.892 114.834 32.867 114.998 32.817 115.154C32.767 115.308 32.6887 115.453 32.582 115.589C32.4787 115.723 32.3454 115.844 32.182 115.954C32.022 116.064 31.8304 116.158 31.607 116.234C32.6004 116.458 33.097 116.994 33.097 117.844C33.097 118.151 33.0387 118.434 32.922 118.694C32.8054 118.954 32.6354 119.179 32.412 119.369C32.1887 119.556 31.9137 119.703 31.587 119.809C31.2604 119.916 30.887 119.969 30.467 119.969H27.737V112.739H30.227ZM37.2391 118.919C37.4891 118.919 37.6974 118.893 37.8641 118.839C38.0341 118.783 38.1707 118.706 38.2741 118.609C38.3774 118.513 38.4507 118.399 38.4941 118.269C38.5374 118.139 38.5591 117.999 38.5591 117.849C38.5591 117.686 38.5374 117.538 38.4941 117.404C38.4507 117.271 38.3774 117.159 38.2741 117.069C38.1707 116.976 38.0357 116.904 37.8691 116.854C37.7024 116.804 37.4941 116.779 37.2441 116.779H36.0641V118.919H37.2391ZM37.2441 115.729C37.7141 115.729 38.1157 115.781 38.4491 115.884C38.7857 115.988 39.0591 116.129 39.2691 116.309C39.4824 116.486 39.6391 116.696 39.7391 116.939C39.8391 117.179 39.8891 117.438 39.8891 117.714C39.8891 118.054 39.8291 118.363 39.7091 118.639C39.5924 118.916 39.4207 119.154 39.1941 119.354C38.9674 119.551 38.6891 119.703 38.3591 119.809C38.0324 119.916 37.6591 119.969 37.2391 119.969H34.7191V112.739H36.0641V115.729H37.2441ZM42.2941 119.969H40.9441V112.739H42.2941V119.969ZM50.1835 119.969H48.8435C48.7502 119.969 48.6752 119.946 48.6185 119.899C48.5652 119.853 48.5219 119.799 48.4885 119.739L46.8135 116.964C46.7869 117.048 46.7552 117.119 46.7185 117.179L45.1135 119.739C45.0735 119.796 45.0269 119.849 44.9735 119.899C44.9235 119.946 44.8569 119.969 44.7735 119.969H43.5185L45.9185 116.249L43.6135 112.739H44.9535C45.0469 112.739 45.1135 112.753 45.1535 112.779C45.1969 112.803 45.2369 112.843 45.2735 112.899L46.9185 115.549C46.9519 115.466 46.9919 115.383 47.0385 115.299L48.5485 112.924C48.5852 112.861 48.6252 112.814 48.6685 112.784C48.7119 112.754 48.7669 112.739 48.8335 112.739H50.1185L47.7935 116.194L50.1835 119.969ZM60.3841 119.969H59.1641C59.0375 119.969 58.9308 119.936 58.8441 119.869C58.7608 119.803 58.6825 119.704 58.6091 119.574L57.0691 117.144C57.0291 117.074 56.9858 117.018 56.9391 116.974C56.8958 116.928 56.8475 116.891 56.7941 116.864C56.7441 116.834 56.6858 116.814 56.6191 116.804C56.5558 116.794 56.4825 116.789 56.3991 116.789H55.5941V119.969H54.2491V112.739H55.5941V115.769H56.2741C56.4108 115.769 56.5291 115.746 56.6291 115.699C56.7291 115.653 56.8225 115.566 56.9091 115.439L58.4941 113.099C58.5608 112.993 58.6391 112.906 58.7291 112.839C58.8191 112.773 58.9275 112.739 59.0541 112.739H60.2041L58.2391 115.639C58.1558 115.766 58.0591 115.871 57.9491 115.954C57.8391 116.038 57.7175 116.103 57.5841 116.149C57.7841 116.206 57.9525 116.296 58.0891 116.419C58.2291 116.539 58.3625 116.706 58.4891 116.919L60.3841 119.969ZM68.2141 116.354C68.2141 116.884 68.1257 117.376 67.9491 117.829C67.7757 118.279 67.5291 118.669 67.2091 118.999C66.8891 119.329 66.5041 119.588 66.0541 119.774C65.6041 119.958 65.1041 120.049 64.5541 120.049C64.0074 120.049 63.5091 119.958 63.0591 119.774C62.6091 119.588 62.2224 119.329 61.8991 118.999C61.5791 118.669 61.3307 118.279 61.1541 117.829C60.9774 117.376 60.8891 116.884 60.8891 116.354C60.8891 115.824 60.9774 115.334 61.1541 114.884C61.3307 114.431 61.5791 114.039 61.8991 113.709C62.2224 113.379 62.6091 113.123 63.0591 112.939C63.5091 112.753 64.0074 112.659 64.5541 112.659C64.9207 112.659 65.2657 112.703 65.5891 112.789C65.9124 112.873 66.2091 112.993 66.4791 113.149C66.7491 113.303 66.9907 113.491 67.2041 113.714C67.4207 113.934 67.6041 114.181 67.7541 114.454C67.9041 114.728 68.0174 115.024 68.0941 115.344C68.1741 115.664 68.2141 116.001 68.2141 116.354ZM66.8391 116.354C66.8391 115.958 66.7857 115.603 66.6791 115.289C66.5724 114.973 66.4207 114.704 66.2241 114.484C66.0274 114.264 65.7874 114.096 65.5041 113.979C65.2241 113.863 64.9074 113.804 64.5541 113.804C64.2007 113.804 63.8824 113.863 63.5991 113.979C63.3191 114.096 63.0791 114.264 62.8791 114.484C62.6824 114.704 62.5307 114.973 62.4241 115.289C62.3174 115.603 62.2641 115.958 62.2641 116.354C62.2641 116.751 62.3174 117.108 62.4241 117.424C62.5307 117.738 62.6824 118.004 62.8791 118.224C63.0791 118.441 63.3191 118.608 63.5991 118.724C63.8824 118.841 64.2007 118.899 64.5541 118.899C64.9074 118.899 65.2241 118.841 65.5041 118.724C65.7874 118.608 66.0274 118.441 66.2241 118.224C66.4207 118.004 66.5724 117.738 66.6791 117.424C66.7857 117.108 66.8391 116.751 66.8391 116.354ZM74.6011 113.844H72.4211V119.969H71.0761V113.844H68.8961V112.739H74.6011V113.844ZM81.2694 119.969H79.9144V113.774H77.9394C77.8927 114.681 77.826 115.466 77.7394 116.129C77.656 116.789 77.5544 117.353 77.4344 117.819C77.3177 118.283 77.1827 118.659 77.0294 118.949C76.8794 119.239 76.7144 119.466 76.5344 119.629C76.3544 119.789 76.161 119.899 75.9544 119.959C75.7477 120.016 75.531 120.044 75.3044 120.044C75.0644 120.044 74.8894 120.023 74.7794 119.979C74.6694 119.936 74.6144 119.873 74.6144 119.789V118.949H74.9994C75.086 118.949 75.1727 118.939 75.2594 118.919C75.3494 118.899 75.4377 118.858 75.5244 118.794C75.6144 118.728 75.701 118.633 75.7844 118.509C75.871 118.386 75.9527 118.221 76.0294 118.014C76.1094 117.804 76.1827 117.548 76.2494 117.244C76.3194 116.941 76.381 116.576 76.4344 116.149C76.491 115.723 76.5394 115.229 76.5794 114.669C76.6227 114.106 76.6544 113.463 76.6744 112.739H81.2694V119.969ZM90.1758 116.354C90.1758 116.884 90.0875 117.376 89.9108 117.829C89.7375 118.279 89.4908 118.669 89.1708 118.999C88.8508 119.329 88.4658 119.588 88.0158 119.774C87.5658 119.958 87.0658 120.049 86.5158 120.049C85.9691 120.049 85.4708 119.958 85.0208 119.774C84.5708 119.588 84.1841 119.329 83.8608 118.999C83.5408 118.669 83.2925 118.279 83.1158 117.829C82.9391 117.376 82.8508 116.884 82.8508 116.354C82.8508 115.824 82.9391 115.334 83.1158 114.884C83.2925 114.431 83.5408 114.039 83.8608 113.709C84.1841 113.379 84.5708 113.123 85.0208 112.939C85.4708 112.753 85.9691 112.659 86.5158 112.659C86.8825 112.659 87.2275 112.703 87.5508 112.789C87.8741 112.873 88.1708 112.993 88.4408 113.149C88.7108 113.303 88.9525 113.491 89.1658 113.714C89.3825 113.934 89.5658 114.181 89.7158 114.454C89.8658 114.728 89.9791 115.024 90.0558 115.344C90.1358 115.664 90.1758 116.001 90.1758 116.354ZM88.8008 116.354C88.8008 115.958 88.7475 115.603 88.6408 115.289C88.5341 114.973 88.3825 114.704 88.1858 114.484C87.9891 114.264 87.7491 114.096 87.4658 113.979C87.1858 113.863 86.8691 113.804 86.5158 113.804C86.1625 113.804 85.8441 113.863 85.5608 113.979C85.2808 114.096 85.0408 114.264 84.8408 114.484C84.6441 114.704 84.4925 114.973 84.3858 115.289C84.2791 115.603 84.2258 115.958 84.2258 116.354C84.2258 116.751 84.2791 117.108 84.3858 117.424C84.4925 117.738 84.6441 118.004 84.8408 118.224C85.0408 118.441 85.2808 118.608 85.5608 118.724C85.8441 118.841 86.1625 118.899 86.5158 118.899C86.8691 118.899 87.1858 118.841 87.4658 118.724C87.7491 118.608 87.9891 118.441 88.1858 118.224C88.3825 118.004 88.5341 117.738 88.6408 117.424C88.7475 117.108 88.8008 116.751 88.8008 116.354ZM94.462 118.919C94.712 118.919 94.922 118.889 95.092 118.829C95.262 118.769 95.397 118.689 95.497 118.589C95.6003 118.489 95.6736 118.373 95.717 118.239C95.7636 118.106 95.787 117.964 95.787 117.814C95.787 117.658 95.762 117.518 95.712 117.394C95.662 117.268 95.5836 117.161 95.477 117.074C95.3703 116.984 95.232 116.916 95.062 116.869C94.8953 116.823 94.6936 116.799 94.457 116.799H93.102V118.919H94.462ZM93.102 113.779V115.869H94.172C94.632 115.869 94.9786 115.786 95.212 115.619C95.4486 115.453 95.567 115.188 95.567 114.824C95.567 114.448 95.4603 114.179 95.247 114.019C95.0336 113.859 94.7003 113.779 94.247 113.779H93.102ZM94.247 112.739C94.7203 112.739 95.1253 112.784 95.462 112.874C95.7986 112.964 96.0736 113.093 96.287 113.259C96.5036 113.426 96.662 113.628 96.762 113.864C96.862 114.101 96.912 114.368 96.912 114.664C96.912 114.834 96.887 114.998 96.837 115.154C96.787 115.308 96.7086 115.453 96.602 115.589C96.4986 115.723 96.3653 115.844 96.202 115.954C96.042 116.064 95.8503 116.158 95.627 116.234C96.6203 116.458 97.117 116.994 97.117 117.844C97.117 118.151 97.0586 118.434 96.942 118.694C96.8253 118.954 96.6553 119.179 96.432 119.369C96.2086 119.556 95.9336 119.703 95.607 119.809C95.2803 119.916 94.907 119.969 94.487 119.969H91.757V112.739H94.247ZM3.51 132.919C3.76 132.919 3.97 132.889 4.14 132.829C4.31 132.769 4.445 132.689 4.545 132.589C4.64833 132.489 4.72167 132.373 4.765 132.239C4.81167 132.106 4.835 131.964 4.835 131.814C4.835 131.658 4.81 131.518 4.76 131.394C4.71 131.268 4.63167 131.161 4.525 131.074C4.41833 130.984 4.28 130.916 4.11 130.869C3.94333 130.823 3.74167 130.799 3.505 130.799H2.15V132.919H3.51ZM2.15 127.779V129.869H3.22C3.68 129.869 4.02667 129.786 4.26 129.619C4.49667 129.453 4.615 129.188 4.615 128.824C4.615 128.448 4.50833 128.179 4.295 128.019C4.08167 127.859 3.74833 127.779 3.295 127.779H2.15ZM3.295 126.739C3.76833 126.739 4.17333 126.784 4.51 126.874C4.84667 126.964 5.12167 127.093 5.335 127.259C5.55167 127.426 5.71 127.628 5.81 127.864C5.91 128.101 5.96 128.368 5.96 128.664C5.96 128.834 5.935 128.998 5.885 129.154C5.835 129.308 5.75667 129.453 5.65 129.589C5.54667 129.723 5.41333 129.844 5.25 129.954C5.09 130.064 4.89833 130.158 4.675 130.234C5.66833 130.458 6.165 130.994 6.165 131.844C6.165 132.151 6.10667 132.434 5.99 132.694C5.87333 132.954 5.70333 133.179 5.48 133.369C5.25667 133.556 4.98167 133.703 4.655 133.809C4.32833 133.916 3.955 133.969 3.535 133.969H0.805V126.739H3.295ZM12.9687 130.374C13.2153 130.374 13.4303 130.344 13.6137 130.284C13.797 130.221 13.9487 130.133 14.0687 130.019C14.192 129.903 14.2837 129.763 14.3437 129.599C14.4037 129.433 14.4337 129.248 14.4337 129.044C14.4337 128.851 14.4037 128.676 14.3437 128.519C14.2837 128.363 14.1937 128.229 14.0737 128.119C13.9537 128.009 13.802 127.926 13.6187 127.869C13.4353 127.809 13.2187 127.779 12.9687 127.779H11.9637V130.374H12.9687ZM12.9687 126.739C13.452 126.739 13.8703 126.796 14.2237 126.909C14.577 127.023 14.8687 127.181 15.0987 127.384C15.3287 127.588 15.4987 127.831 15.6087 128.114C15.722 128.398 15.7787 128.708 15.7787 129.044C15.7787 129.394 15.7203 129.716 15.6037 130.009C15.487 130.299 15.312 130.549 15.0787 130.759C14.8453 130.969 14.552 131.133 14.1987 131.249C13.8487 131.366 13.4387 131.424 12.9687 131.424H11.9637V133.969H10.6187V126.739H12.9687ZM24.1051 130.354C24.1051 130.884 24.0167 131.376 23.8401 131.829C23.6667 132.279 23.4201 132.669 23.1001 132.999C22.7801 133.329 22.3951 133.588 21.9451 133.774C21.4951 133.958 20.9951 134.049 20.4451 134.049C19.8984 134.049 19.4001 133.958 18.9501 133.774C18.5001 133.588 18.1134 133.329 17.7901 132.999C17.4701 132.669 17.2217 132.279 17.0451 131.829C16.8684 131.376 16.7801 130.884 16.7801 130.354C16.7801 129.824 16.8684 129.334 17.0451 128.884C17.2217 128.431 17.4701 128.039 17.7901 127.709C18.1134 127.379 18.5001 127.123 18.9501 126.939C19.4001 126.753 19.8984 126.659 20.4451 126.659C20.8117 126.659 21.1567 126.703 21.4801 126.789C21.8034 126.873 22.1001 126.993 22.3701 127.149C22.6401 127.303 22.8817 127.491 23.0951 127.714C23.3117 127.934 23.4951 128.181 23.6451 128.454C23.7951 128.728 23.9084 129.024 23.9851 129.344C24.0651 129.664 24.1051 130.001 24.1051 130.354ZM22.7301 130.354C22.7301 129.958 22.6767 129.603 22.5701 129.289C22.4634 128.973 22.3117 128.704 22.1151 128.484C21.9184 128.264 21.6784 128.096 21.3951 127.979C21.1151 127.863 20.7984 127.804 20.4451 127.804C20.0917 127.804 19.7734 127.863 19.4901 127.979C19.2101 128.096 18.9701 128.264 18.7701 128.484C18.5734 128.704 18.4217 128.973 18.3151 129.289C18.2084 129.603 18.1551 129.958 18.1551 130.354C18.1551 130.751 18.2084 131.108 18.3151 131.424C18.4217 131.738 18.5734 132.004 18.7701 132.224C18.9701 132.441 19.2101 132.608 19.4901 132.724C19.7734 132.841 20.0917 132.899 20.4451 132.899C20.7984 132.899 21.1151 132.841 21.3951 132.724C21.6784 132.608 21.9184 132.441 22.1151 132.224C22.3117 132.004 22.4634 131.738 22.5701 131.424C22.6767 131.108 22.7301 130.751 22.7301 130.354ZM30.6513 132.264C30.7246 132.264 30.7896 132.293 30.8463 132.349L31.3763 132.924C31.0829 133.288 30.7213 133.566 30.2913 133.759C29.8646 133.953 29.3513 134.049 28.7513 134.049C28.2146 134.049 27.7313 133.958 27.3013 133.774C26.8746 133.591 26.5096 133.336 26.2063 133.009C25.9029 132.683 25.6696 132.293 25.5063 131.839C25.3463 131.386 25.2663 130.891 25.2663 130.354C25.2663 129.811 25.3529 129.314 25.5263 128.864C25.6996 128.411 25.9429 128.021 26.2563 127.694C26.5729 127.368 26.9496 127.114 27.3863 126.934C27.8229 126.751 28.3063 126.659 28.8363 126.659C29.3629 126.659 29.8296 126.746 30.2363 126.919C30.6463 127.093 30.9946 127.319 31.2813 127.599L30.8313 128.224C30.8046 128.264 30.7696 128.299 30.7263 128.329C30.6863 128.359 30.6296 128.374 30.5563 128.374C30.5063 128.374 30.4546 128.361 30.4013 128.334C30.3479 128.304 30.2896 128.269 30.2263 128.229C30.1629 128.186 30.0896 128.139 30.0063 128.089C29.9229 128.039 29.8263 127.994 29.7163 127.954C29.6063 127.911 29.4779 127.876 29.3313 127.849C29.1879 127.819 29.0213 127.804 28.8313 127.804C28.5079 127.804 28.2113 127.863 27.9413 127.979C27.6746 128.093 27.4446 128.259 27.2513 128.479C27.0579 128.696 26.9079 128.963 26.8013 129.279C26.6946 129.593 26.6413 129.951 26.6413 130.354C26.6413 130.761 26.6979 131.123 26.8113 131.439C26.9279 131.756 27.0846 132.023 27.2813 132.239C27.4779 132.456 27.7096 132.623 27.9763 132.739C28.2429 132.853 28.5296 132.909 28.8363 132.909C29.0196 132.909 29.1846 132.899 29.3313 132.879C29.4813 132.859 29.6179 132.828 29.7413 132.784C29.8679 132.741 29.9863 132.686 30.0963 132.619C30.2096 132.549 30.3213 132.464 30.4313 132.364C30.4646 132.334 30.4996 132.311 30.5363 132.294C30.5729 132.274 30.6113 132.264 30.6513 132.264ZM37.5063 132.264C37.5797 132.264 37.6447 132.293 37.7013 132.349L38.2313 132.924C37.938 133.288 37.5763 133.566 37.1463 133.759C36.7197 133.953 36.2063 134.049 35.6063 134.049C35.0697 134.049 34.5863 133.958 34.1563 133.774C33.7297 133.591 33.3647 133.336 33.0613 133.009C32.758 132.683 32.5247 132.293 32.3613 131.839C32.2013 131.386 32.1213 130.891 32.1213 130.354C32.1213 129.811 32.208 129.314 32.3813 128.864C32.5547 128.411 32.798 128.021 33.1113 127.694C33.428 127.368 33.8047 127.114 34.2413 126.934C34.678 126.751 35.1613 126.659 35.6913 126.659C36.218 126.659 36.6847 126.746 37.0913 126.919C37.5013 127.093 37.8497 127.319 38.1363 127.599L37.6863 128.224C37.6597 128.264 37.6247 128.299 37.5813 128.329C37.5413 128.359 37.4847 128.374 37.4113 128.374C37.3613 128.374 37.3097 128.361 37.2563 128.334C37.203 128.304 37.1447 128.269 37.0813 128.229C37.018 128.186 36.9447 128.139 36.8613 128.089C36.778 128.039 36.6813 127.994 36.5713 127.954C36.4613 127.911 36.333 127.876 36.1863 127.849C36.043 127.819 35.8763 127.804 35.6863 127.804C35.363 127.804 35.0663 127.863 34.7963 127.979C34.5297 128.093 34.2997 128.259 34.1063 128.479C33.913 128.696 33.763 128.963 33.6563 129.279C33.5497 129.593 33.4963 129.951 33.4963 130.354C33.4963 130.761 33.553 131.123 33.6663 131.439C33.783 131.756 33.9397 132.023 34.1363 132.239C34.333 132.456 34.5647 132.623 34.8313 132.739C35.098 132.853 35.3847 132.909 35.6913 132.909C35.8747 132.909 36.0397 132.899 36.1863 132.879C36.3363 132.859 36.473 132.828 36.5963 132.784C36.723 132.741 36.8413 132.686 36.9513 132.619C37.0647 132.549 37.1763 132.464 37.2863 132.364C37.3197 132.334 37.3547 132.311 37.3913 132.294C37.428 132.274 37.4663 132.264 37.5063 132.264ZM45.6477 126.739V133.969H44.2977V129.439C44.2977 129.269 44.301 129.091 44.3077 128.904C44.3177 128.718 44.3377 128.519 44.3677 128.309C44.301 128.496 44.2277 128.669 44.1477 128.829C44.071 128.986 43.996 129.124 43.9227 129.244L41.1577 133.554C41.1277 133.604 41.091 133.654 41.0477 133.704C41.0077 133.754 40.9627 133.799 40.9127 133.839C40.8627 133.876 40.8077 133.908 40.7477 133.934C40.6877 133.958 40.626 133.969 40.5627 133.969H39.5527V126.739H40.9027V131.269C40.9027 131.439 40.8977 131.619 40.8877 131.809C40.881 131.996 40.8627 132.194 40.8327 132.404C40.8993 132.218 40.971 132.044 41.0477 131.884C41.1277 131.724 41.206 131.584 41.2827 131.464L44.0427 127.154C44.0727 127.104 44.1077 127.054 44.1477 127.004C44.191 126.954 44.2377 126.911 44.2877 126.874C44.3377 126.834 44.391 126.803 44.4477 126.779C44.5077 126.753 44.571 126.739 44.6377 126.739H45.6477ZM53.7527 126.739V133.969H52.4027V129.439C52.4027 129.269 52.4061 129.091 52.4127 128.904C52.4227 128.718 52.4427 128.519 52.4727 128.309C52.4061 128.496 52.3327 128.669 52.2527 128.829C52.1761 128.986 52.1011 129.124 52.0277 129.244L49.2627 133.554C49.2327 133.604 49.1961 133.654 49.1527 133.704C49.1127 133.754 49.0677 133.799 49.0177 133.839C48.9677 133.876 48.9127 133.908 48.8527 133.934C48.7927 133.958 48.7311 133.969 48.6677 133.969H47.6577V126.739H49.0077V131.269C49.0077 131.439 49.0027 131.619 48.9927 131.809C48.9861 131.996 48.9677 132.194 48.9377 132.404C49.0044 132.218 49.0761 132.044 49.1527 131.884C49.2327 131.724 49.3111 131.584 49.3877 131.464L52.1477 127.154C52.1777 127.104 52.2127 127.054 52.2527 127.004C52.2961 126.954 52.3427 126.911 52.3927 126.874C52.4427 126.834 52.4961 126.803 52.5527 126.779C52.6127 126.753 52.6761 126.739 52.7427 126.739H53.7527Z" fill="#2CB0FF"/>
<defs>
<linearGradient id="paint0_linear_167_291" x1="-9.68133" y1="85.812" x2="87.1615" y2="85.812" gradientUnits="userSpaceOnUse">
<stop stop-color="#1889D9"/>
<stop offset="1" stop-color="#2CB0FF"/>
</linearGradient>
</defs>
</svg>
