<svg width="107" height="90" viewBox="0 0 107 90" fill="none" xmlns="http://www.w3.org/2000/svg">
<path d="M21.456 17.972C24.048 17.972 26.376 18.356 28.44 19.124C30.528 19.868 32.304 20.912 33.768 22.256C35.232 23.6 36.348 25.208 37.116 27.08C37.908 28.928 38.304 30.968 38.304 33.2C38.304 35.12 38.028 36.896 37.476 38.528C36.948 40.16 36.216 41.72 35.28 43.208C34.344 44.672 33.252 46.1 32.004 47.492C30.78 48.86 29.472 50.252 28.08 51.668L17.82 62.18C19.14 61.796 20.436 61.496 21.708 61.28C23.004 61.04 24.216 60.92 25.344 60.92H35.136C36.336 60.92 37.284 61.256 37.98 61.928C38.676 62.576 39.024 63.44 39.024 64.52V71H2.16V67.4C2.16 66.704 2.304 65.96 2.592 65.168C2.88 64.376 3.384 63.656 4.104 63.008L19.224 47.78C20.52 46.484 21.648 45.248 22.608 44.072C23.568 42.896 24.36 41.744 24.984 40.616C25.608 39.464 26.076 38.324 26.388 37.196C26.7 36.044 26.856 34.832 26.856 33.56C26.856 31.472 26.352 29.876 25.344 28.772C24.36 27.644 22.848 27.08 20.808 27.08C19.152 27.08 17.748 27.524 16.596 28.412C15.468 29.276 14.688 30.356 14.256 31.652C13.752 32.972 13.092 33.848 12.276 34.28C11.46 34.712 10.296 34.808 8.784 34.568L2.88 33.524C3.264 30.908 3.996 28.628 5.076 26.684C6.18 24.74 7.536 23.12 9.144 21.824C10.776 20.528 12.636 19.568 14.724 18.944C16.812 18.296 19.056 17.972 21.456 17.972ZM81.1856 23.156C81.1856 23.924 81.0656 24.62 80.8256 25.244C80.5856 25.868 80.2016 26.42 79.6736 26.9C79.1696 27.356 78.4976 27.716 77.6576 27.98C76.8176 28.22 75.8096 28.34 74.6336 28.34H62.1056L60.6296 37.016C61.6136 36.848 62.5616 36.728 63.4736 36.656C64.3856 36.56 65.2736 36.512 66.1376 36.512C68.8976 36.512 71.3336 36.932 73.4456 37.772C75.5576 38.612 77.3336 39.764 78.7736 41.228C80.2136 42.668 81.2936 44.372 82.0136 46.34C82.7576 48.284 83.1296 50.372 83.1296 52.604C83.1296 55.412 82.6256 57.98 81.6176 60.308C80.6336 62.612 79.2536 64.604 77.4776 66.284C75.7016 67.964 73.5776 69.272 71.1056 70.208C68.6576 71.12 65.9696 71.576 63.0416 71.576C61.3376 71.576 59.7056 71.396 58.1456 71.036C56.6096 70.676 55.1576 70.196 53.7896 69.596C52.4456 68.972 51.1976 68.264 50.0456 67.472C48.8936 66.656 47.8496 65.792 46.9136 64.88L50.3696 60.272C50.7296 59.792 51.1496 59.432 51.6296 59.192C52.1096 58.928 52.6256 58.796 53.1776 58.796C53.8976 58.796 54.5696 59 55.1936 59.408C55.8416 59.792 56.5376 60.224 57.2816 60.704C58.0496 61.16 58.9376 61.58 59.9456 61.964C60.9536 62.348 62.2016 62.54 63.6896 62.54C65.1776 62.54 66.4496 62.3 67.5056 61.82C68.5616 61.316 69.4136 60.644 70.0616 59.804C70.7336 58.94 71.2136 57.944 71.5016 56.816C71.8136 55.664 71.9696 54.44 71.9696 53.144C71.9696 50.6 71.2496 48.668 69.8096 47.348C68.3696 46.004 66.3296 45.332 63.6896 45.332C61.3376 45.332 59.0336 45.776 56.7776 46.664L49.8656 44.792L54.3296 18.548H81.1856V23.156Z" fill="url(#paint0_linear_167_283)"/>
<path d="M5.325 10.6036C5.575 10.6036 5.78333 10.5769 5.95 10.5236C6.12 10.4669 6.25667 10.3902 6.36 10.2936C6.46333 10.1969 6.53667 10.0836 6.58 9.95356C6.62333 9.82356 6.645 9.68356 6.645 9.53356C6.645 9.37023 6.62333 9.2219 6.58 9.08856C6.53667 8.95523 6.46333 8.84356 6.36 8.75356C6.25667 8.66023 6.12167 8.58856 5.955 8.53856C5.78833 8.48856 5.58 8.46356 5.33 8.46356H4.15V10.6036H5.325ZM5.33 7.41356C5.8 7.41356 6.20167 7.46523 6.535 7.56856C6.87167 7.6719 7.145 7.81356 7.355 7.99356C7.56833 8.17023 7.725 8.38023 7.825 8.62356C7.925 8.86356 7.975 9.1219 7.975 9.39856C7.975 9.73856 7.915 10.0469 7.795 10.3236C7.67833 10.6002 7.50667 10.8386 7.28 11.0386C7.05333 11.2352 6.775 11.3869 6.445 11.4936C6.11833 11.6002 5.745 11.6536 5.325 11.6536H2.805V4.42356H7.71V5.46356H4.15V7.41356H5.33ZM16.3988 8.03856C16.3988 8.56856 16.3105 9.06023 16.1338 9.51356C15.9605 9.96356 15.7138 10.3536 15.3938 10.6836C15.0738 11.0136 14.6888 11.2719 14.2388 11.4586C13.7888 11.6419 13.2888 11.7336 12.7388 11.7336C12.1922 11.7336 11.6938 11.6419 11.2438 11.4586C10.7938 11.2719 10.4072 11.0136 10.0838 10.6836C9.76383 10.3536 9.51549 9.96356 9.33883 9.51356C9.16216 9.06023 9.07383 8.56856 9.07383 8.03856C9.07383 7.50856 9.16216 7.01856 9.33883 6.56856C9.51549 6.11523 9.76383 5.72356 10.0838 5.39356C10.4072 5.06356 10.7938 4.8069 11.2438 4.62356C11.6938 4.4369 12.1922 4.34356 12.7388 4.34356C13.1055 4.34356 13.4505 4.3869 13.7738 4.47356C14.0972 4.5569 14.3938 4.6769 14.6638 4.83356C14.9338 4.9869 15.1755 5.17523 15.3888 5.39856C15.6055 5.61856 15.7888 5.86523 15.9388 6.13856C16.0888 6.4119 16.2022 6.70856 16.2788 7.02856C16.3588 7.34856 16.3988 7.68523 16.3988 8.03856ZM15.0238 8.03856C15.0238 7.6419 14.9705 7.2869 14.8638 6.97356C14.7572 6.6569 14.6055 6.38856 14.4088 6.16856C14.2122 5.94856 13.9722 5.78023 13.6888 5.66356C13.4088 5.5469 13.0922 5.48856 12.7388 5.48856C12.3855 5.48856 12.0672 5.5469 11.7838 5.66356C11.5038 5.78023 11.2638 5.94856 11.0638 6.16856C10.8672 6.38856 10.7155 6.6569 10.6088 6.97356C10.5022 7.2869 10.4488 7.6419 10.4488 8.03856C10.4488 8.43523 10.5022 8.7919 10.6088 9.10856C10.7155 9.4219 10.8672 9.68856 11.0638 9.90856C11.2638 10.1252 11.5038 10.2919 11.7838 10.4086C12.0672 10.5252 12.3855 10.5836 12.7388 10.5836C13.0922 10.5836 13.4088 10.5252 13.6888 10.4086C13.9722 10.2919 14.2122 10.1252 14.4088 9.90856C14.6055 9.68856 14.7572 9.4219 14.8638 9.10856C14.9705 8.7919 15.0238 8.43523 15.0238 8.03856ZM23.6342 11.6536H22.2792V5.45856H20.3042C20.2576 6.36523 20.1909 7.15023 20.1042 7.81356C20.0209 8.47356 19.9192 9.0369 19.7992 9.50356C19.6826 9.9669 19.5476 10.3436 19.3942 10.6336C19.2442 10.9236 19.0792 11.1502 18.8992 11.3136C18.7192 11.4736 18.5259 11.5836 18.3192 11.6436C18.1126 11.7002 17.8959 11.7286 17.6692 11.7286C17.4292 11.7286 17.2542 11.7069 17.1442 11.6636C17.0342 11.6202 16.9792 11.5569 16.9792 11.4736V10.6336H17.3642C17.4509 10.6336 17.5376 10.6236 17.6242 10.6036C17.7142 10.5836 17.8026 10.5419 17.8892 10.4786C17.9792 10.4119 18.0659 10.3169 18.1492 10.1936C18.2359 10.0702 18.3176 9.90523 18.3942 9.69856C18.4742 9.48856 18.5476 9.2319 18.6142 8.92856C18.6842 8.62523 18.7459 8.26023 18.7992 7.83356C18.8559 7.4069 18.9042 6.91356 18.9442 6.35356C18.9876 5.79023 19.0192 5.1469 19.0392 4.42356H23.6342V11.6536ZM26.9956 5.49356V7.49856H29.5256V8.53356H26.9956V10.5786H30.2056V11.6536H25.6456V4.42356H30.2056V5.49356H26.9956ZM33.1476 5.49356V7.49856H35.6776V8.53356H33.1476V10.5786H36.3576V11.6536H31.7976V4.42356H36.3576V5.49356H33.1476ZM46.6112 11.6536H45.2562V5.45856H43.2812C43.2345 6.36523 43.1678 7.15023 43.0812 7.81356C42.9978 8.47356 42.8962 9.0369 42.7762 9.50356C42.6595 9.9669 42.5245 10.3436 42.3712 10.6336C42.2212 10.9236 42.0562 11.1502 41.8762 11.3136C41.6962 11.4736 41.5028 11.5836 41.2962 11.6436C41.0895 11.7002 40.8728 11.7286 40.6462 11.7286C40.4062 11.7286 40.2312 11.7069 40.1212 11.6636C40.0112 11.6202 39.9562 11.5569 39.9562 11.4736V10.6336H40.3412C40.4278 10.6336 40.5145 10.6236 40.6012 10.6036C40.6912 10.5836 40.7795 10.5419 40.8662 10.4786C40.9562 10.4119 41.0428 10.3169 41.1262 10.1936C41.2128 10.0702 41.2945 9.90523 41.3712 9.69856C41.4512 9.48856 41.5245 9.2319 41.5912 8.92856C41.6612 8.62523 41.7228 8.26023 41.7762 7.83356C41.8328 7.4069 41.8812 6.91356 41.9212 6.35356C41.9645 5.79023 41.9962 5.1469 42.0162 4.42356H46.6112V11.6536ZM49.9726 5.49356V7.49856H52.5026V8.53356H49.9726V10.5786H53.1826V11.6536H48.6226V4.42356H53.1826V5.49356H49.9726ZM59.8245 5.52856H57.6445V11.6536H56.2995V5.52856H54.1195V4.42356H59.8245V5.52856Z" fill="#2CB0FF"/>
<path d="M4.73898 84.3745C4.98565 84.3745 5.20065 84.3445 5.38398 84.2845C5.56732 84.2211 5.71898 84.1328 5.83898 84.0195C5.96232 83.9028 6.05398 83.7628 6.11398 83.5995C6.17398 83.4328 6.20398 83.2478 6.20398 83.0445C6.20398 82.8511 6.17398 82.6761 6.11398 82.5195C6.05398 82.3628 5.96398 82.2295 5.84398 82.1195C5.72398 82.0095 5.57232 81.9261 5.38898 81.8695C5.20565 81.8095 4.98898 81.7795 4.73898 81.7795H3.73398V84.3745H4.73898ZM4.73898 80.7395C5.22232 80.7395 5.64065 80.7961 5.99398 80.9095C6.34732 81.0228 6.63898 81.1811 6.86898 81.3845C7.09898 81.5878 7.26898 81.8311 7.37898 82.1145C7.49232 82.3978 7.54898 82.7078 7.54898 83.0445C7.54898 83.3945 7.49065 83.7161 7.37398 84.0095C7.25732 84.2995 7.08232 84.5495 6.84898 84.7595C6.61565 84.9695 6.32232 85.1328 5.96898 85.2495C5.61898 85.3661 5.20898 85.4245 4.73898 85.4245H3.73398V87.9695H2.38898V80.7395H4.73898ZM12.2971 85.2395L11.4171 82.8345C11.3738 82.7278 11.3288 82.6011 11.2821 82.4545C11.2354 82.3078 11.1888 82.1495 11.1421 81.9795C11.0988 82.1495 11.0538 82.3095 11.0071 82.4595C10.9604 82.6061 10.9154 82.7345 10.8721 82.8445L9.99711 85.2395H12.2971ZM14.6721 87.9695H13.6321C13.5154 87.9695 13.4204 87.9411 13.3471 87.8845C13.2738 87.8245 13.2188 87.7511 13.1821 87.6645L12.6421 86.1895H9.64711L9.10711 87.6645C9.08044 87.7411 9.02878 87.8111 8.95211 87.8745C8.87544 87.9378 8.77878 87.9695 8.66211 87.9695H7.61711L10.4571 80.7395H11.8321L14.6721 87.9695ZM18.3262 86.9195C18.5762 86.9195 18.7845 86.8928 18.9512 86.8395C19.1212 86.7828 19.2578 86.7061 19.3612 86.6095C19.4645 86.5128 19.5378 86.3995 19.5812 86.2695C19.6245 86.1395 19.6462 85.9995 19.6462 85.8495C19.6462 85.6861 19.6245 85.5378 19.5812 85.4045C19.5378 85.2711 19.4645 85.1595 19.3612 85.0695C19.2578 84.9761 19.1228 84.9045 18.9562 84.8545C18.7895 84.8045 18.5812 84.7795 18.3312 84.7795H17.1512V86.9195H18.3262ZM18.3312 83.7295C18.8012 83.7295 19.2028 83.7811 19.5362 83.8845C19.8728 83.9878 20.1462 84.1295 20.3562 84.3095C20.5695 84.4861 20.7262 84.6961 20.8262 84.9395C20.9262 85.1795 20.9762 85.4378 20.9762 85.7145C20.9762 86.0545 20.9162 86.3628 20.7962 86.6395C20.6795 86.9161 20.5078 87.1545 20.2812 87.3545C20.0545 87.5511 19.7762 87.7028 19.4462 87.8095C19.1195 87.9161 18.7462 87.9695 18.3262 87.9695H15.8062V80.7395H20.7112V81.7795H17.1512V83.7295H18.3312ZM29.4 84.3545C29.4 84.8845 29.3117 85.3761 29.135 85.8295C28.9617 86.2795 28.715 86.6695 28.395 86.9995C28.075 87.3295 27.69 87.5878 27.24 87.7745C26.79 87.9578 26.29 88.0495 25.74 88.0495C25.1933 88.0495 24.695 87.9578 24.245 87.7745C23.795 87.5878 23.4083 87.3295 23.085 86.9995C22.765 86.6695 22.5167 86.2795 22.34 85.8295C22.1633 85.3761 22.075 84.8845 22.075 84.3545C22.075 83.8245 22.1633 83.3345 22.34 82.8845C22.5167 82.4311 22.765 82.0395 23.085 81.7095C23.4083 81.3795 23.795 81.1228 24.245 80.9395C24.695 80.7528 25.1933 80.6595 25.74 80.6595C26.1067 80.6595 26.4517 80.7028 26.775 80.7895C27.0983 80.8728 27.395 80.9928 27.665 81.1495C27.935 81.3028 28.1767 81.4911 28.39 81.7145C28.6067 81.9345 28.79 82.1811 28.94 82.4545C29.09 82.7278 29.2033 83.0245 29.28 83.3445C29.36 83.6645 29.4 84.0011 29.4 84.3545ZM28.025 84.3545C28.025 83.9578 27.9717 83.6028 27.865 83.2895C27.7583 82.9728 27.6067 82.7045 27.41 82.4845C27.2133 82.2645 26.9733 82.0961 26.69 81.9795C26.41 81.8628 26.0933 81.8045 25.74 81.8045C25.3867 81.8045 25.0683 81.8628 24.785 81.9795C24.505 82.0961 24.265 82.2645 24.065 82.4845C23.8683 82.7045 23.7167 82.9728 23.61 83.2895C23.5033 83.6028 23.45 83.9578 23.45 84.3545C23.45 84.7511 23.5033 85.1078 23.61 85.4245C23.7167 85.7378 23.8683 86.0045 24.065 86.2245C24.265 86.4411 24.505 86.6078 24.785 86.7245C25.0683 86.8411 25.3867 86.8995 25.74 86.8995C26.0933 86.8995 26.41 86.8411 26.69 86.7245C26.9733 86.6078 27.2133 86.4411 27.41 86.2245C27.6067 86.0045 27.7583 85.7378 27.865 85.4245C27.9717 85.1078 28.025 84.7511 28.025 84.3545ZM35.787 81.8445H33.607V87.9695H32.262V81.8445H30.082V80.7395H35.787V81.8445ZM40.2448 85.2395L39.3648 82.8345C39.3214 82.7278 39.2764 82.6011 39.2298 82.4545C39.1831 82.3078 39.1364 82.1495 39.0898 81.9795C39.0464 82.1495 39.0014 82.3095 38.9548 82.4595C38.9081 82.6061 38.8631 82.7345 38.8198 82.8445L37.9448 85.2395H40.2448ZM42.6198 87.9695H41.5798C41.4631 87.9695 41.3681 87.9411 41.2948 87.8845C41.2214 87.8245 41.1664 87.7511 41.1298 87.6645L40.5898 86.1895H37.5948L37.0548 87.6645C37.0281 87.7411 36.9764 87.8111 36.8998 87.8745C36.8231 87.9378 36.7264 87.9695 36.6098 87.9695H35.5648L38.4048 80.7395H39.7798L42.6198 87.9695ZM45.1038 81.8095V83.8145H47.6338V84.8495H45.1038V86.8945H48.3138V87.9695H43.7538V80.7395H48.3138V81.8095H45.1038ZM57.7458 80.7395V87.9695H56.5608V83.2995C56.5608 83.1128 56.5708 82.9111 56.5908 82.6945L54.4058 86.7995C54.3024 86.9961 54.1441 87.0945 53.9308 87.0945H53.7408C53.5274 87.0945 53.3691 86.9961 53.2658 86.7995L51.0558 82.6795C51.0658 82.7895 51.0741 82.8978 51.0808 83.0045C51.0874 83.1111 51.0908 83.2095 51.0908 83.2995V87.9695H49.9058V80.7395H50.9208C50.9808 80.7395 51.0324 80.7411 51.0758 80.7445C51.1191 80.7478 51.1574 80.7561 51.1908 80.7695C51.2274 80.7828 51.2591 80.8045 51.2858 80.8345C51.3158 80.8645 51.3441 80.9045 51.3708 80.9545L53.5358 84.9695C53.5924 85.0761 53.6441 85.1861 53.6908 85.2995C53.7408 85.4128 53.7891 85.5295 53.8358 85.6495C53.8824 85.5261 53.9308 85.4078 53.9808 85.2945C54.0308 85.1778 54.0841 85.0661 54.1408 84.9595L56.2758 80.9545C56.3024 80.9045 56.3308 80.8645 56.3608 80.8345C56.3908 80.8045 56.4224 80.7828 56.4558 80.7695C56.4924 80.7561 56.5324 80.7478 56.5758 80.7445C56.6191 80.7411 56.6708 80.7395 56.7308 80.7395H57.7458ZM67.5555 86.2645C67.6289 86.2645 67.6939 86.2928 67.7505 86.3495L68.2805 86.9245C67.9872 87.2878 67.6255 87.5661 67.1955 87.7595C66.7689 87.9528 66.2555 88.0495 65.6555 88.0495C65.1189 88.0495 64.6355 87.9578 64.2055 87.7745C63.7789 87.5911 63.4139 87.3361 63.1105 87.0095C62.8072 86.6828 62.5739 86.2928 62.4105 85.8395C62.2505 85.3861 62.1705 84.8911 62.1705 84.3545C62.1705 83.8111 62.2572 83.3145 62.4305 82.8645C62.6039 82.4111 62.8472 82.0211 63.1605 81.6945C63.4772 81.3678 63.8539 81.1145 64.2905 80.9345C64.7272 80.7511 65.2105 80.6595 65.7405 80.6595C66.2672 80.6595 66.7339 80.7461 67.1405 80.9195C67.5505 81.0928 67.8989 81.3195 68.1855 81.5995L67.7355 82.2245C67.7089 82.2645 67.6739 82.2995 67.6305 82.3295C67.5905 82.3595 67.5339 82.3745 67.4605 82.3745C67.4105 82.3745 67.3589 82.3611 67.3055 82.3345C67.2522 82.3045 67.1939 82.2695 67.1305 82.2295C67.0672 82.1861 66.9939 82.1395 66.9105 82.0895C66.8272 82.0395 66.7305 81.9945 66.6205 81.9545C66.5105 81.9111 66.3822 81.8761 66.2355 81.8495C66.0922 81.8195 65.9255 81.8045 65.7355 81.8045C65.4122 81.8045 65.1155 81.8628 64.8455 81.9795C64.5789 82.0928 64.3489 82.2595 64.1555 82.4795C63.9622 82.6961 63.8122 82.9628 63.7055 83.2795C63.5989 83.5928 63.5455 83.9511 63.5455 84.3545C63.5455 84.7611 63.6022 85.1228 63.7155 85.4395C63.8322 85.7561 63.9889 86.0228 64.1855 86.2395C64.3822 86.4561 64.6139 86.6228 64.8805 86.7395C65.1472 86.8528 65.4339 86.9095 65.7405 86.9095C65.9239 86.9095 66.0889 86.8995 66.2355 86.8795C66.3855 86.8595 66.5222 86.8278 66.6455 86.7845C66.7722 86.7411 66.8905 86.6861 67.0005 86.6195C67.1139 86.5495 67.2255 86.4645 67.3355 86.3645C67.3689 86.3345 67.4039 86.3111 67.4405 86.2945C67.4772 86.2745 67.5155 86.2645 67.5555 86.2645ZM76.8035 87.0445V87.9695H72.8035V87.0445H74.2685V82.8295C74.2685 82.6628 74.2735 82.4911 74.2835 82.3145L73.2435 83.1845C73.1835 83.2311 73.1235 83.2611 73.0635 83.2745C73.0069 83.2845 72.9519 83.2845 72.8985 83.2745C72.8485 83.2645 72.8035 83.2478 72.7635 83.2245C72.7235 83.1978 72.6935 83.1695 72.6735 83.1395L72.2835 82.6045L74.4885 80.7295H75.5035V87.0445H76.8035ZM79.4793 82.9095C79.4793 83.3128 79.5826 83.6211 79.7893 83.8345C79.9993 84.0445 80.296 84.1495 80.6793 84.1495C80.8793 84.1495 81.0576 84.1178 81.2143 84.0545C81.371 83.9911 81.5026 83.9045 81.6093 83.7945C81.716 83.6845 81.796 83.5545 81.8493 83.4045C81.906 83.2545 81.9343 83.0928 81.9343 82.9195C81.9343 82.7228 81.9043 82.5478 81.8443 82.3945C81.7843 82.2378 81.6993 82.1061 81.5893 81.9995C81.4793 81.8928 81.3476 81.8111 81.1943 81.7545C81.0443 81.6978 80.8793 81.6695 80.6993 81.6695C80.5126 81.6695 80.3443 81.7011 80.1943 81.7645C80.0443 81.8245 79.916 81.9095 79.8093 82.0195C79.7026 82.1295 79.621 82.2611 79.5643 82.4145C79.5076 82.5645 79.4793 82.7295 79.4793 82.9095ZM81.1193 85.1645C81.176 85.0945 81.2293 85.0261 81.2793 84.9595C81.3293 84.8928 81.3776 84.8261 81.4243 84.7595C81.2576 84.8661 81.0743 84.9478 80.8743 85.0045C80.6743 85.0578 80.4643 85.0845 80.2443 85.0845C79.9943 85.0845 79.7493 85.0411 79.5093 84.9545C79.2693 84.8678 79.056 84.7378 78.8693 84.5645C78.6826 84.3878 78.531 84.1711 78.4143 83.9145C78.301 83.6545 78.2443 83.3511 78.2443 83.0045C78.2443 82.6811 78.3043 82.3778 78.4243 82.0945C78.5443 81.8111 78.7126 81.5628 78.9293 81.3495C79.146 81.1361 79.406 80.9678 79.7093 80.8445C80.0126 80.7211 80.3476 80.6595 80.7143 80.6595C81.0843 80.6595 81.416 80.7178 81.7093 80.8345C82.006 80.9511 82.2576 81.1145 82.4643 81.3245C82.6743 81.5345 82.8343 81.7861 82.9443 82.0795C83.0576 82.3728 83.1143 82.6945 83.1143 83.0445C83.1143 83.2678 83.0943 83.4795 83.0543 83.6795C83.0176 83.8795 82.9643 84.0728 82.8943 84.2595C82.8243 84.4428 82.7393 84.6228 82.6393 84.7995C82.5393 84.9761 82.4276 85.1511 82.3043 85.3245L80.6493 87.6845C80.5926 87.7645 80.5076 87.8328 80.3943 87.8895C80.281 87.9428 80.1526 87.9695 80.0093 87.9695H78.8743L81.1193 85.1645ZM85.6801 82.9095C85.6801 83.3128 85.7834 83.6211 85.9901 83.8345C86.2001 84.0445 86.4967 84.1495 86.8801 84.1495C87.0801 84.1495 87.2584 84.1178 87.4151 84.0545C87.5717 83.9911 87.7034 83.9045 87.8101 83.7945C87.9167 83.6845 87.9967 83.5545 88.0501 83.4045C88.1067 83.2545 88.1351 83.0928 88.1351 82.9195C88.1351 82.7228 88.1051 82.5478 88.0451 82.3945C87.9851 82.2378 87.9001 82.1061 87.7901 81.9995C87.6801 81.8928 87.5484 81.8111 87.3951 81.7545C87.2451 81.6978 87.0801 81.6695 86.9001 81.6695C86.7134 81.6695 86.5451 81.7011 86.3951 81.7645C86.2451 81.8245 86.1167 81.9095 86.0101 82.0195C85.9034 82.1295 85.8217 82.2611 85.7651 82.4145C85.7084 82.5645 85.6801 82.7295 85.6801 82.9095ZM87.3201 85.1645C87.3767 85.0945 87.4301 85.0261 87.4801 84.9595C87.5301 84.8928 87.5784 84.8261 87.6251 84.7595C87.4584 84.8661 87.2751 84.9478 87.0751 85.0045C86.8751 85.0578 86.6651 85.0845 86.4451 85.0845C86.1951 85.0845 85.9501 85.0411 85.7101 84.9545C85.4701 84.8678 85.2567 84.7378 85.0701 84.5645C84.8834 84.3878 84.7317 84.1711 84.6151 83.9145C84.5017 83.6545 84.4451 83.3511 84.4451 83.0045C84.4451 82.6811 84.5051 82.3778 84.6251 82.0945C84.7451 81.8111 84.9134 81.5628 85.1301 81.3495C85.3467 81.1361 85.6067 80.9678 85.9101 80.8445C86.2134 80.7211 86.5484 80.6595 86.9151 80.6595C87.2851 80.6595 87.6167 80.7178 87.9101 80.8345C88.2067 80.9511 88.4584 81.1145 88.6651 81.3245C88.8751 81.5345 89.0351 81.7861 89.1451 82.0795C89.2584 82.3728 89.3151 82.6945 89.3151 83.0445C89.3151 83.2678 89.2951 83.4795 89.2551 83.6795C89.2184 83.8795 89.1651 84.0728 89.0951 84.2595C89.0251 84.4428 88.9401 84.6228 88.8401 84.7995C88.7401 84.9761 88.6284 85.1511 88.5051 85.3245L86.8501 87.6845C86.7934 87.7645 86.7084 87.8328 86.5951 87.8895C86.4817 87.9428 86.3534 87.9695 86.2101 87.9695H85.0751L87.3201 85.1645ZM95.1359 86.8195C95.2692 86.8195 95.3742 86.8578 95.4509 86.9345C95.5309 87.0078 95.5709 87.1061 95.5709 87.2295V87.9695H90.6109V87.5595C90.6109 87.4761 90.6275 87.3895 90.6609 87.2995C90.6975 87.2061 90.7542 87.1228 90.8309 87.0495L93.0259 84.8495C93.2092 84.6628 93.3725 84.4845 93.5159 84.3145C93.6625 84.1445 93.7842 83.9761 93.8809 83.8095C93.9775 83.6428 94.0509 83.4745 94.1009 83.3045C94.1542 83.1311 94.1809 82.9495 94.1809 82.7595C94.1809 82.5861 94.1559 82.4345 94.1059 82.3045C94.0559 82.1711 93.9842 82.0595 93.8909 81.9695C93.8009 81.8795 93.6909 81.8128 93.5609 81.7695C93.4342 81.7228 93.2909 81.6995 93.1309 81.6995C92.9842 81.6995 92.8475 81.7211 92.7209 81.7645C92.5975 81.8045 92.4875 81.8628 92.3909 81.9395C92.2942 82.0128 92.2125 82.0995 92.1459 82.1995C92.0792 82.2995 92.0292 82.4095 91.9959 82.5295C91.9392 82.6828 91.8659 82.7845 91.7759 82.8345C91.6859 82.8845 91.5559 82.8961 91.3859 82.8695L90.7359 82.7545C90.7859 82.4078 90.8825 82.1045 91.0259 81.8445C91.1692 81.5811 91.3475 81.3628 91.5609 81.1895C91.7775 81.0128 92.0242 80.8811 92.3009 80.7945C92.5809 80.7045 92.8809 80.6595 93.2009 80.6595C93.5342 80.6595 93.8392 80.7095 94.1159 80.8095C94.3925 80.9061 94.6292 81.0445 94.8259 81.2245C95.0225 81.4045 95.1759 81.6211 95.2859 81.8745C95.3959 82.1278 95.4509 82.4095 95.4509 82.7195C95.4509 82.9861 95.4109 83.2328 95.3309 83.4595C95.2542 83.6861 95.1492 83.9028 95.0159 84.1095C94.8859 84.3161 94.7325 84.5161 94.5559 84.7095C94.3792 84.9028 94.1942 85.0995 94.0009 85.2995L92.3709 86.9645C92.5275 86.9178 92.6825 86.8828 92.8359 86.8595C92.9925 86.8328 93.1409 86.8195 93.2809 86.8195H95.1359ZM104.528 81.7745H101.418V87.9695H100.068V80.7395H104.528V81.7745ZM104.595 87.2895C104.595 87.1861 104.614 87.0878 104.65 86.9945C104.69 86.9011 104.744 86.8211 104.81 86.7545C104.877 86.6878 104.957 86.6345 105.05 86.5945C105.144 86.5545 105.244 86.5345 105.35 86.5345C105.457 86.5345 105.555 86.5545 105.645 86.5945C105.739 86.6345 105.819 86.6878 105.885 86.7545C105.955 86.8211 106.01 86.9011 106.05 86.9945C106.09 87.0878 106.11 87.1861 106.11 87.2895C106.11 87.3961 106.09 87.4961 106.05 87.5895C106.01 87.6795 105.955 87.7578 105.885 87.8245C105.819 87.8911 105.739 87.9428 105.645 87.9795C105.555 88.0195 105.457 88.0395 105.35 88.0395C105.244 88.0395 105.144 88.0195 105.05 87.9795C104.957 87.9428 104.877 87.8911 104.81 87.8245C104.744 87.7578 104.69 87.6795 104.65 87.5895C104.614 87.4961 104.595 87.3961 104.595 87.2895Z" fill="#2CB0FF"/>
<defs>
<linearGradient id="paint0_linear_167_283" x1="-9.68133" y1="85.812" x2="87.1615" y2="85.812" gradientUnits="userSpaceOnUse">
<stop stop-color="#1889D9"/>
<stop offset="1" stop-color="#2CB0FF"/>
</linearGradient>
</defs>
</svg>
