<svg width="84" height="55" viewBox="0 0 84 55" fill="none" xmlns="http://www.w3.org/2000/svg">
<path d="M2.168 16.524C2.552 13.908 3.284 11.628 4.364 9.684C5.468 7.74 6.824 6.12 8.432 4.824C10.064 3.528 11.924 2.568 14.012 1.944C16.1 1.296 18.344 0.971998 20.744 0.971998C23.336 0.971998 25.64 1.344 27.656 2.088C29.672 2.808 31.376 3.792 32.768 5.04C34.16 6.288 35.216 7.74 35.936 9.396C36.656 11.028 37.016 12.756 37.016 14.58C37.016 16.236 36.848 17.7 36.512 18.972C36.176 20.22 35.672 21.312 35 22.248C34.352 23.16 33.536 23.94 32.552 24.588C31.592 25.212 30.488 25.74 29.24 26.172C35.048 28.212 37.952 32.172 37.952 38.052C37.952 40.836 37.448 43.26 36.44 45.324C35.432 47.388 34.076 49.104 32.372 50.472C30.692 51.84 28.736 52.872 26.504 53.568C24.272 54.24 21.944 54.576 19.52 54.576C17.024 54.576 14.804 54.312 12.86 53.784C10.916 53.232 9.188 52.392 7.676 51.264C6.164 50.112 4.832 48.648 3.68 46.872C2.552 45.096 1.568 42.984 0.728 40.536L5.696 38.52C6.992 38.016 8.192 37.884 9.296 38.124C10.4 38.364 11.192 38.916 11.672 39.78C12.752 41.772 13.892 43.224 15.092 44.136C16.316 45.024 17.744 45.468 19.376 45.468C20.624 45.468 21.704 45.264 22.616 44.856C23.552 44.424 24.32 43.884 24.92 43.236C25.544 42.564 26.012 41.808 26.324 40.968C26.636 40.128 26.792 39.276 26.792 38.412C26.792 37.284 26.708 36.276 26.54 35.388C26.396 34.476 25.964 33.696 25.244 33.048C24.524 32.4 23.432 31.908 21.968 31.572C20.528 31.212 18.512 31.032 15.92 31.032V23.328C18.104 23.328 19.868 23.16 21.212 22.824C22.556 22.488 23.588 22.032 24.308 21.456C25.052 20.856 25.544 20.136 25.784 19.296C26.024 18.456 26.144 17.532 26.144 16.524C26.144 14.46 25.64 12.876 24.632 11.772C23.648 10.644 22.136 10.08 20.096 10.08C18.44 10.08 17.036 10.524 15.884 11.412C14.756 12.276 13.976 13.356 13.544 14.652C13.04 15.972 12.38 16.848 11.564 17.28C10.748 17.712 9.584 17.808 8.072 17.568L2.168 16.524ZM83.9656 27.756C83.9656 32.34 83.4736 36.312 82.4896 39.672C81.5056 43.032 80.1376 45.816 78.3856 48.024C76.6576 50.232 74.5936 51.876 72.1936 52.956C69.8176 54.036 67.2376 54.576 64.4536 54.576C61.6696 54.576 59.0896 54.036 56.7136 52.956C54.3616 51.876 52.3216 50.232 50.5936 48.024C48.8656 45.816 47.5096 43.032 46.5256 39.672C45.5656 36.312 45.0856 32.34 45.0856 27.756C45.0856 23.172 45.5656 19.2 46.5256 15.84C47.5096 12.48 48.8656 9.696 50.5936 7.488C52.3216 5.28 54.3616 3.648 56.7136 2.592C59.0896 1.512 61.6696 0.971998 64.4536 0.971998C67.2376 0.971998 69.8176 1.512 72.1936 2.592C74.5936 3.648 76.6576 5.28 78.3856 7.488C80.1376 9.696 81.5056 12.48 82.4896 15.84C83.4736 19.2 83.9656 23.172 83.9656 27.756ZM72.4456 27.756C72.4456 24.132 72.2176 21.168 71.7616 18.864C71.3056 16.536 70.6936 14.712 69.9256 13.392C69.1816 12.072 68.3296 11.172 67.3696 10.692C66.4096 10.188 65.4376 9.936 64.4536 9.936C63.4696 9.936 62.4976 10.188 61.5376 10.692C60.6016 11.172 59.7616 12.072 59.0176 13.392C58.2976 14.712 57.7096 16.536 57.2536 18.864C56.8216 21.168 56.6056 24.132 56.6056 27.756C56.6056 31.404 56.8216 34.38 57.2536 36.684C57.7096 38.988 58.2976 40.812 59.0176 42.156C59.7616 43.476 60.6016 44.388 61.5376 44.892C62.4976 45.372 63.4696 45.612 64.4536 45.612C65.4376 45.612 66.4096 45.372 67.3696 44.892C68.3296 44.388 69.1816 43.476 69.9256 42.156C70.6936 40.812 71.3056 38.988 71.7616 36.684C72.2176 34.38 72.4456 31.404 72.4456 27.756Z" fill="url(#paint0_linear_589_966)"/>
<defs>
<linearGradient id="paint0_linear_589_966" x1="-10.6813" y1="68.812" x2="86.1615" y2="68.812" gradientUnits="userSpaceOnUse">
<stop stop-color="#1889D9"/>
<stop offset="1" stop-color="#2CB0FF"/>
</linearGradient>
</defs>
</svg>