<svg width="38" height="55" viewBox="0 0 38 55" fill="none" xmlns="http://www.w3.org/2000/svg">
<path d="M2.168 16.524C2.552 13.908 3.284 11.628 4.364 9.684C5.468 7.74 6.824 6.12 8.432 4.824C10.064 3.528 11.924 2.568 14.012 1.944C16.1 1.296 18.344 0.971998 20.744 0.971998C23.336 0.971998 25.64 1.344 27.656 2.088C29.672 2.808 31.376 3.792 32.768 5.04C34.16 6.288 35.216 7.74 35.936 9.396C36.656 11.028 37.016 12.756 37.016 14.58C37.016 16.236 36.848 17.7 36.512 18.972C36.176 20.22 35.672 21.312 35 22.248C34.352 23.16 33.536 23.94 32.552 24.588C31.592 25.212 30.488 25.74 29.24 26.172C35.048 28.212 37.952 32.172 37.952 38.052C37.952 40.836 37.448 43.26 36.44 45.324C35.432 47.388 34.076 49.104 32.372 50.472C30.692 51.84 28.736 52.872 26.504 53.568C24.272 54.24 21.944 54.576 19.52 54.576C17.024 54.576 14.804 54.312 12.86 53.784C10.916 53.232 9.188 52.392 7.676 51.264C6.164 50.112 4.832 48.648 3.68 46.872C2.552 45.096 1.568 42.984 0.728 40.536L5.696 38.52C6.992 38.016 8.192 37.884 9.296 38.124C10.4 38.364 11.192 38.916 11.672 39.78C12.752 41.772 13.892 43.224 15.092 44.136C16.316 45.024 17.744 45.468 19.376 45.468C20.624 45.468 21.704 45.264 22.616 44.856C23.552 44.424 24.32 43.884 24.92 43.236C25.544 42.564 26.012 41.808 26.324 40.968C26.636 40.128 26.792 39.276 26.792 38.412C26.792 37.284 26.708 36.276 26.54 35.388C26.396 34.476 25.964 33.696 25.244 33.048C24.524 32.4 23.432 31.908 21.968 31.572C20.528 31.212 18.512 31.032 15.92 31.032V23.328C18.104 23.328 19.868 23.16 21.212 22.824C22.556 22.488 23.588 22.032 24.308 21.456C25.052 20.856 25.544 20.136 25.784 19.296C26.024 18.456 26.144 17.532 26.144 16.524C26.144 14.46 25.64 12.876 24.632 11.772C23.648 10.644 22.136 10.08 20.096 10.08C18.44 10.08 17.036 10.524 15.884 11.412C14.756 12.276 13.976 13.356 13.544 14.652C13.04 15.972 12.38 16.848 11.564 17.28C10.748 17.712 9.584 17.808 8.072 17.568L2.168 16.524Z" fill="url(#paint0_linear_589_963)"/>
<defs>
<linearGradient id="paint0_linear_589_963" x1="-5.67375" y1="68.812" x2="41.078" y2="68.812" gradientUnits="userSpaceOnUse">
<stop stop-color="#1889D9"/>
<stop offset="1" stop-color="#2CB0FF"/>
</linearGradient>
</defs>
</svg>