<svg width="77" height="54" viewBox="0 0 77 54" fill="none" xmlns="http://www.w3.org/2000/svg">
<path d="M4.69038 44.936H14.7704V18.476C14.7704 17.18 14.8064 15.824 14.8784 14.408L8.93838 19.34C8.41038 19.748 7.88238 20 7.35438 20.096C6.85038 20.168 6.37038 20.168 5.91438 20.096C5.45838 20 5.05038 19.844 4.69038 19.628C4.33038 19.388 4.06638 19.148 3.89838 18.908L0.370375 14.228L16.7144 0.511998H25.9304V44.936H34.5704V53H4.69038V44.936ZM75.04 5.156C75.04 5.924 74.92 6.62 74.68 7.244C74.44 7.868 74.056 8.42 73.528 8.9C73.024 9.356 72.352 9.716 71.512 9.98C70.672 10.22 69.664 10.34 68.488 10.34H55.96L54.484 19.016C55.468 18.848 56.416 18.728 57.328 18.656C58.24 18.56 59.128 18.512 59.992 18.512C62.752 18.512 65.188 18.932 67.3 19.772C69.412 20.612 71.188 21.764 72.628 23.228C74.068 24.668 75.148 26.372 75.868 28.34C76.612 30.284 76.984 32.372 76.984 34.604C76.984 37.412 76.48 39.98 75.472 42.308C74.488 44.612 73.108 46.604 71.332 48.284C69.556 49.964 67.432 51.272 64.96 52.208C62.512 53.12 59.824 53.576 56.896 53.576C55.192 53.576 53.56 53.396 52 53.036C50.464 52.676 49.012 52.196 47.644 51.596C46.3 50.972 45.052 50.264 43.9 49.472C42.748 48.656 41.704 47.792 40.768 46.88L44.224 42.272C44.584 41.792 45.004 41.432 45.484 41.192C45.964 40.928 46.48 40.796 47.032 40.796C47.752 40.796 48.424 41 49.048 41.408C49.696 41.792 50.392 42.224 51.136 42.704C51.904 43.16 52.792 43.58 53.8 43.964C54.808 44.348 56.056 44.54 57.544 44.54C59.032 44.54 60.304 44.3 61.36 43.82C62.416 43.316 63.268 42.644 63.916 41.804C64.588 40.94 65.068 39.944 65.356 38.816C65.668 37.664 65.824 36.44 65.824 35.144C65.824 32.6 65.104 30.668 63.664 29.348C62.224 28.004 60.184 27.332 57.544 27.332C55.192 27.332 52.888 27.776 50.632 28.664L43.72 26.792L48.184 0.547999H75.04V5.156Z" fill="url(#paint0_linear_589_959)"/>
<defs>
<linearGradient id="paint0_linear_589_959" x1="-34.2423" y1="67.812" x2="98.2209" y2="67.812" gradientUnits="userSpaceOnUse">
<stop stop-color="#1889D9"/>
<stop offset="1" stop-color="#2CB0FF"/>
</linearGradient>
</defs>
</svg>
