<svg width="82" height="55" viewBox="0 0 82 55" fill="none" xmlns="http://www.w3.org/2000/svg">
<path d="M18.88 54.576C16.096 54.576 13.552 54.204 11.248 53.46C8.944 52.716 6.964 51.672 5.308 50.328C3.676 48.96 2.404 47.316 1.492 45.396C0.604 43.476 0.16 41.34 0.16 38.988C0.16 37.572 0.316 36.24 0.628 34.992C0.964 33.72 1.48 32.568 2.176 31.536C2.896 30.48 3.808 29.544 4.912 28.728C6.04 27.912 7.396 27.228 8.98 26.676C6.58 25.596 4.792 24.096 3.616 22.176C2.464 20.256 1.888 17.952 1.888 15.264C1.888 13.224 2.308 11.34 3.148 9.612C3.988 7.86 5.164 6.348 6.676 5.076C8.188 3.804 9.976 2.808 12.04 2.088C14.128 1.344 16.408 0.971998 18.88 0.971998C21.352 0.971998 23.62 1.344 25.684 2.088C27.772 2.808 29.572 3.804 31.084 5.076C32.596 6.348 33.772 7.86 34.612 9.612C35.452 11.34 35.872 13.224 35.872 15.264C35.872 17.952 35.284 20.256 34.108 22.176C32.932 24.096 31.156 25.596 28.78 26.676C30.34 27.228 31.672 27.912 32.776 28.728C33.904 29.544 34.816 30.48 35.512 31.536C36.232 32.568 36.76 33.72 37.096 34.992C37.432 36.24 37.6 37.572 37.6 38.988C37.6 41.34 37.144 43.476 36.232 45.396C35.344 47.316 34.072 48.96 32.416 50.328C30.784 51.672 28.816 52.716 26.512 53.46C24.208 54.204 21.664 54.576 18.88 54.576ZM18.88 46.152C20.128 46.152 21.208 45.96 22.12 45.576C23.032 45.192 23.776 44.676 24.352 44.028C24.952 43.356 25.384 42.576 25.648 41.688C25.936 40.776 26.08 39.804 26.08 38.772C26.08 37.644 25.96 36.612 25.72 35.676C25.48 34.74 25.084 33.948 24.532 33.3C23.98 32.628 23.236 32.112 22.3 31.752C21.388 31.368 20.248 31.176 18.88 31.176C17.512 31.176 16.36 31.368 15.424 31.752C14.512 32.112 13.78 32.628 13.228 33.3C12.676 33.948 12.28 34.74 12.04 35.676C11.8 36.612 11.68 37.644 11.68 38.772C11.68 39.804 11.812 40.776 12.076 41.688C12.364 42.576 12.796 43.356 13.372 44.028C13.972 44.676 14.716 45.192 15.604 45.576C16.516 45.96 17.608 46.152 18.88 46.152ZM18.88 22.68C20.128 22.68 21.148 22.476 21.94 22.068C22.732 21.66 23.356 21.12 23.812 20.448C24.268 19.776 24.58 19.008 24.748 18.144C24.916 17.28 25 16.392 25 15.48C25 14.664 24.892 13.872 24.676 13.104C24.46 12.336 24.1 11.664 23.596 11.088C23.116 10.488 22.48 10.008 21.688 9.648C20.92 9.288 19.984 9.108 18.88 9.108C17.752 9.108 16.804 9.288 16.036 9.648C15.268 10.008 14.632 10.488 14.128 11.088C13.648 11.664 13.3 12.336 13.084 13.104C12.868 13.872 12.76 14.664 12.76 15.48C12.76 16.392 12.844 17.28 13.012 18.144C13.18 19.008 13.492 19.776 13.948 20.448C14.404 21.12 15.028 21.66 15.82 22.068C16.612 22.476 17.632 22.68 18.88 22.68ZM79.1856 6.156C79.1856 6.924 79.0656 7.62 78.8256 8.244C78.5856 8.868 78.2016 9.42 77.6736 9.9C77.1696 10.356 76.4976 10.716 75.6576 10.98C74.8176 11.22 73.8096 11.34 72.6336 11.34H60.1056L58.6296 20.016C59.6136 19.848 60.5616 19.728 61.4736 19.656C62.3856 19.56 63.2736 19.512 64.1376 19.512C66.8976 19.512 69.3336 19.932 71.4456 20.772C73.5576 21.612 75.3336 22.764 76.7736 24.228C78.2136 25.668 79.2936 27.372 80.0136 29.34C80.7576 31.284 81.1296 33.372 81.1296 35.604C81.1296 38.412 80.6256 40.98 79.6176 43.308C78.6336 45.612 77.2536 47.604 75.4776 49.284C73.7016 50.964 71.5776 52.272 69.1056 53.208C66.6576 54.12 63.9696 54.576 61.0416 54.576C59.3376 54.576 57.7056 54.396 56.1456 54.036C54.6096 53.676 53.1576 53.196 51.7896 52.596C50.4456 51.972 49.1976 51.264 48.0456 50.472C46.8936 49.656 45.8496 48.792 44.9136 47.88L48.3696 43.272C48.7296 42.792 49.1496 42.432 49.6296 42.192C50.1096 41.928 50.6256 41.796 51.1776 41.796C51.8976 41.796 52.5696 42 53.1936 42.408C53.8416 42.792 54.5376 43.224 55.2816 43.704C56.0496 44.16 56.9376 44.58 57.9456 44.964C58.9536 45.348 60.2016 45.54 61.6896 45.54C63.1776 45.54 64.4496 45.3 65.5056 44.82C66.5616 44.316 67.4136 43.644 68.0616 42.804C68.7336 41.94 69.2136 40.944 69.5016 39.816C69.8136 38.664 69.9696 37.44 69.9696 36.144C69.9696 33.6 69.2496 31.668 67.8096 30.348C66.3696 29.004 64.3296 28.332 61.6896 28.332C59.3376 28.332 57.0336 28.776 54.7776 29.664L47.8656 27.792L52.3296 1.548H79.1856V6.156Z" fill="url(#paint0_linear_606_734)"/>
<defs>
<linearGradient id="paint0_linear_606_734" x1="-11.6813" y1="53.8448" x2="85.1615" y2="53.8448" gradientUnits="userSpaceOnUse">
<stop stop-color="#1889D9"/>
<stop offset="1" stop-color="#2CB0FF"/>
</linearGradient>
</defs>
</svg>