<svg width="87" height="120" viewBox="0 0 87 120" fill="none" xmlns="http://www.w3.org/2000/svg">
<path d="M7.956 62.936H18.036V36.476C18.036 35.18 18.072 33.824 18.144 32.408L12.204 37.34C11.676 37.748 11.148 38 10.62 38.096C10.116 38.168 9.636 38.168 9.18 38.096C8.724 38 8.316 37.844 7.956 37.628C7.596 37.388 7.332 37.148 7.164 36.908L3.636 32.228L19.98 18.512H29.196V62.936H37.836V71H7.956V62.936ZM81.1856 23.156C81.1856 23.924 81.0656 24.62 80.8256 25.244C80.5856 25.868 80.2016 26.42 79.6736 26.9C79.1696 27.356 78.4976 27.716 77.6576 27.98C76.8176 28.22 75.8096 28.34 74.6336 28.34H62.1056L60.6296 37.016C61.6136 36.848 62.5616 36.728 63.4736 36.656C64.3856 36.56 65.2736 36.512 66.1376 36.512C68.8976 36.512 71.3336 36.932 73.4456 37.772C75.5576 38.612 77.3336 39.764 78.7736 41.228C80.2136 42.668 81.2936 44.372 82.0136 46.34C82.7576 48.284 83.1296 50.372 83.1296 52.604C83.1296 55.412 82.6256 57.98 81.6176 60.308C80.6336 62.612 79.2536 64.604 77.4776 66.284C75.7016 67.964 73.5776 69.272 71.1056 70.208C68.6576 71.12 65.9696 71.576 63.0416 71.576C61.3376 71.576 59.7056 71.396 58.1456 71.036C56.6096 70.676 55.1576 70.196 53.7896 69.596C52.4456 68.972 51.1976 68.264 50.0456 67.472C48.8936 66.656 47.8496 65.792 46.9136 64.88L50.3696 60.272C50.7296 59.792 51.1496 59.432 51.6296 59.192C52.1096 58.928 52.6256 58.796 53.1776 58.796C53.8976 58.796 54.5696 59 55.1936 59.408C55.8416 59.792 56.5376 60.224 57.2816 60.704C58.0496 61.16 58.9376 61.58 59.9456 61.964C60.9536 62.348 62.2016 62.54 63.6896 62.54C65.1776 62.54 66.4496 62.3 67.5056 61.82C68.5616 61.316 69.4136 60.644 70.0616 59.804C70.7336 58.94 71.2136 57.944 71.5016 56.816C71.8136 55.664 71.9696 54.44 71.9696 53.144C71.9696 50.6 71.2496 48.668 69.8096 47.348C68.3696 46.004 66.3296 45.332 63.6896 45.332C61.3376 45.332 59.0336 45.776 56.7776 46.664L49.8656 44.792L54.3296 18.548H81.1856V23.156Z" fill="url(#paint0_linear_167_295)"/>
<path d="M9.7 85.385C9.7 85.915 9.61167 86.4067 9.435 86.86C9.26167 87.31 9.015 87.7 8.695 88.03C8.375 88.36 7.99 88.6183 7.54 88.805C7.09 88.9883 6.59 89.08 6.04 89.08C5.49333 89.08 4.995 88.9883 4.545 88.805C4.095 88.6183 3.70833 88.36 3.385 88.03C3.065 87.7 2.81667 87.31 2.64 86.86C2.46333 86.4067 2.375 85.915 2.375 85.385C2.375 84.855 2.46333 84.365 2.64 83.915C2.81667 83.4617 3.065 83.07 3.385 82.74C3.70833 82.41 4.095 82.1533 4.545 81.97C4.995 81.7833 5.49333 81.69 6.04 81.69C6.40667 81.69 6.75167 81.7333 7.075 81.82C7.39833 81.9033 7.695 82.0233 7.965 82.18C8.235 82.3333 8.47667 82.5217 8.69 82.745C8.90667 82.965 9.09 83.2117 9.24 83.485C9.39 83.7583 9.50333 84.055 9.58 84.375C9.66 84.695 9.7 85.0317 9.7 85.385ZM8.325 85.385C8.325 84.9883 8.27167 84.6333 8.165 84.32C8.05833 84.0033 7.90667 83.735 7.71 83.515C7.51333 83.295 7.27333 83.1267 6.99 83.01C6.71 82.8933 6.39333 82.835 6.04 82.835C5.68667 82.835 5.36833 82.8933 5.085 83.01C4.805 83.1267 4.565 83.295 4.365 83.515C4.16833 83.735 4.01667 84.0033 3.91 84.32C3.80333 84.6333 3.75 84.9883 3.75 85.385C3.75 85.7817 3.80333 86.1383 3.91 86.455C4.01667 86.7683 4.16833 87.035 4.365 87.255C4.565 87.4717 4.805 87.6383 5.085 87.755C5.36833 87.8717 5.68667 87.93 6.04 87.93C6.39333 87.93 6.71 87.8717 6.99 87.755C7.27333 87.6383 7.51333 87.4717 7.71 87.255C7.90667 87.035 8.05833 86.7683 8.165 86.455C8.27167 86.1383 8.325 85.7817 8.325 85.385ZM13.8012 87.95C14.0512 87.95 14.2595 87.9233 14.4262 87.87C14.5962 87.8133 14.7328 87.7367 14.8362 87.64C14.9395 87.5433 15.0128 87.43 15.0562 87.3C15.0995 87.17 15.1212 87.03 15.1212 86.88C15.1212 86.7167 15.0995 86.5683 15.0562 86.435C15.0128 86.3017 14.9395 86.19 14.8362 86.1C14.7328 86.0067 14.5978 85.935 14.4312 85.885C14.2645 85.835 14.0562 85.81 13.8062 85.81H12.6262V87.95H13.8012ZM13.8062 84.76C14.2762 84.76 14.6778 84.8117 15.0112 84.915C15.3478 85.0183 15.6212 85.16 15.8312 85.34C16.0445 85.5167 16.2012 85.7267 16.3012 85.97C16.4012 86.21 16.4512 86.4683 16.4512 86.745C16.4512 87.085 16.3912 87.3933 16.2712 87.67C16.1545 87.9467 15.9828 88.185 15.7562 88.385C15.5295 88.5817 15.2512 88.7333 14.9212 88.84C14.5945 88.9467 14.2212 89 13.8012 89H11.2812V81.77H16.1862V82.81H12.6262V84.76H13.8062ZM21.88 87.95C22.13 87.95 22.3383 87.9233 22.505 87.87C22.675 87.8133 22.8117 87.7367 22.915 87.64C23.0183 87.5433 23.0917 87.43 23.135 87.3C23.1783 87.17 23.2 87.03 23.2 86.88C23.2 86.7167 23.1783 86.5683 23.135 86.435C23.0917 86.3017 23.0183 86.19 22.915 86.1C22.8117 86.0067 22.6767 85.935 22.51 85.885C22.3433 85.835 22.135 85.81 21.885 85.81H20.705V87.95H21.88ZM21.885 84.76C22.355 84.76 22.7567 84.8117 23.09 84.915C23.4267 85.0183 23.7 85.16 23.91 85.34C24.1233 85.5167 24.28 85.7267 24.38 85.97C24.48 86.21 24.53 86.4683 24.53 86.745C24.53 87.085 24.47 87.3933 24.35 87.67C24.2333 87.9467 24.0617 88.185 23.835 88.385C23.6083 88.5817 23.33 88.7333 23 88.84C22.6733 88.9467 22.3 89 21.88 89H19.36V82.84H17.32V81.77H20.705V84.76H21.885ZM27.2984 82.84V84.845H29.8284V85.88H27.2984V87.925H30.5084V89H25.9484V81.77H30.5084V82.84H27.2984ZM38.2353 89H37.0153C36.8886 89 36.782 88.9667 36.6953 88.9C36.612 88.8333 36.5336 88.735 36.4603 88.605L34.9203 86.175C34.8803 86.105 34.837 86.0483 34.7903 86.005C34.747 85.9583 34.6986 85.9217 34.6453 85.895C34.5953 85.865 34.537 85.845 34.4703 85.835C34.407 85.825 34.3336 85.82 34.2503 85.82H33.4453V89H32.1003V81.77H33.4453V84.8H34.1253C34.262 84.8 34.3803 84.7767 34.4803 84.73C34.5803 84.6833 34.6736 84.5967 34.7603 84.47L36.3453 82.13C36.412 82.0233 36.4903 81.9367 36.5803 81.87C36.6703 81.8033 36.7786 81.77 36.9053 81.77H38.0553L36.0903 84.67C36.007 84.7967 35.9103 84.9017 35.8003 84.985C35.6903 85.0683 35.5686 85.1333 35.4353 85.18C35.6353 85.2367 35.8036 85.3267 35.9403 85.45C36.0803 85.57 36.2136 85.7367 36.3403 85.95L38.2353 89ZM44.5132 82.875H42.3332V89H40.9882V82.875H38.8082V81.77H44.5132V82.875ZM52.5102 85.385C52.5102 85.915 52.4218 86.4067 52.2452 86.86C52.0718 87.31 51.8252 87.7 51.5052 88.03C51.1852 88.36 50.8002 88.6183 50.3502 88.805C49.9002 88.9883 49.4002 89.08 48.8502 89.08C48.3035 89.08 47.8052 88.9883 47.3552 88.805C46.9052 88.6183 46.5185 88.36 46.1952 88.03C45.8752 87.7 45.6268 87.31 45.4502 86.86C45.2735 86.4067 45.1852 85.915 45.1852 85.385C45.1852 84.855 45.2735 84.365 45.4502 83.915C45.6268 83.4617 45.8752 83.07 46.1952 82.74C46.5185 82.41 46.9052 82.1533 47.3552 81.97C47.8052 81.7833 48.3035 81.69 48.8502 81.69C49.2168 81.69 49.5618 81.7333 49.8852 81.82C50.2085 81.9033 50.5052 82.0233 50.7752 82.18C51.0452 82.3333 51.2868 82.5217 51.5002 82.745C51.7168 82.965 51.9002 83.2117 52.0502 83.485C52.2002 83.7583 52.3135 84.055 52.3902 84.375C52.4702 84.695 52.5102 85.0317 52.5102 85.385ZM51.1352 85.385C51.1352 84.9883 51.0818 84.6333 50.9752 84.32C50.8685 84.0033 50.7168 83.735 50.5202 83.515C50.3235 83.295 50.0835 83.1267 49.8002 83.01C49.5202 82.8933 49.2035 82.835 48.8502 82.835C48.4968 82.835 48.1785 82.8933 47.8952 83.01C47.6152 83.1267 47.3752 83.295 47.1752 83.515C46.9785 83.735 46.8268 84.0033 46.7202 84.32C46.6135 84.6333 46.5602 84.9883 46.5602 85.385C46.5602 85.7817 46.6135 86.1383 46.7202 86.455C46.8268 86.7683 46.9785 87.035 47.1752 87.255C47.3752 87.4717 47.6152 87.6383 47.8952 87.755C48.1785 87.8717 48.4968 87.93 48.8502 87.93C49.2035 87.93 49.5202 87.8717 49.8002 87.755C50.0835 87.6383 50.3235 87.4717 50.5202 87.255C50.7168 87.035 50.8685 86.7683 50.9752 86.455C51.0818 86.1383 51.1352 85.7817 51.1352 85.385ZM56.7963 87.95C57.0463 87.95 57.2563 87.92 57.4263 87.86C57.5963 87.8 57.7313 87.72 57.8313 87.62C57.9347 87.52 58.008 87.4033 58.0513 87.27C58.098 87.1367 58.1213 86.995 58.1213 86.845C58.1213 86.6883 58.0963 86.5483 58.0463 86.425C57.9963 86.2983 57.918 86.1917 57.8113 86.105C57.7047 86.015 57.5663 85.9467 57.3963 85.9C57.2297 85.8533 57.028 85.83 56.7913 85.83H55.4363V87.95H56.7963ZM55.4363 82.81V84.9H56.5063C56.9663 84.9 57.313 84.8167 57.5463 84.65C57.783 84.4833 57.9013 84.2183 57.9013 83.855C57.9013 83.4783 57.7947 83.21 57.5813 83.05C57.368 82.89 57.0347 82.81 56.5813 82.81H55.4363ZM56.5813 81.77C57.0547 81.77 57.4597 81.815 57.7963 81.905C58.133 81.995 58.408 82.1233 58.6213 82.29C58.838 82.4567 58.9963 82.6583 59.0963 82.895C59.1963 83.1317 59.2463 83.3983 59.2463 83.695C59.2463 83.865 59.2213 84.0283 59.1713 84.185C59.1213 84.3383 59.043 84.4833 58.9363 84.62C58.833 84.7533 58.6997 84.875 58.5363 84.985C58.3763 85.095 58.1847 85.1883 57.9613 85.265C58.9547 85.4883 59.4513 86.025 59.4513 86.875C59.4513 87.1817 59.393 87.465 59.2763 87.725C59.1597 87.985 58.9897 88.21 58.7663 88.4C58.543 88.5867 58.268 88.7333 57.9413 88.84C57.6147 88.9467 57.2413 89 56.8213 89H54.0913V81.77H56.5813ZM7.77 101.295C7.84333 101.295 7.90833 101.323 7.965 101.38L8.495 101.955C8.20167 102.318 7.84 102.597 7.41 102.79C6.98333 102.983 6.47 103.08 5.87 103.08C5.33333 103.08 4.85 102.988 4.42 102.805C3.99333 102.622 3.62833 102.367 3.325 102.04C3.02167 101.713 2.78833 101.323 2.625 100.87C2.465 100.417 2.385 99.9217 2.385 99.385C2.385 98.8417 2.47167 98.345 2.645 97.895C2.81833 97.4417 3.06167 97.0517 3.375 96.725C3.69167 96.3983 4.06833 96.145 4.505 95.965C4.94167 95.7817 5.425 95.69 5.955 95.69C6.48167 95.69 6.94833 95.7767 7.355 95.95C7.765 96.1233 8.11333 96.35 8.4 96.63L7.95 97.255C7.92333 97.295 7.88833 97.33 7.845 97.36C7.805 97.39 7.74833 97.405 7.675 97.405C7.625 97.405 7.57333 97.3917 7.52 97.365C7.46667 97.335 7.40833 97.3 7.345 97.26C7.28167 97.2167 7.20833 97.17 7.125 97.12C7.04167 97.07 6.945 97.025 6.835 96.985C6.725 96.9417 6.59667 96.9067 6.45 96.88C6.30667 96.85 6.14 96.835 5.95 96.835C5.62667 96.835 5.33 96.8933 5.06 97.01C4.79333 97.1233 4.56333 97.29 4.37 97.51C4.17667 97.7267 4.02667 97.9933 3.92 98.31C3.81333 98.6233 3.76 98.9817 3.76 99.385C3.76 99.7917 3.81667 100.153 3.93 100.47C4.04667 100.787 4.20333 101.053 4.4 101.27C4.59667 101.487 4.82833 101.653 5.095 101.77C5.36167 101.883 5.64833 101.94 5.955 101.94C6.13833 101.94 6.30333 101.93 6.45 101.91C6.6 101.89 6.73667 101.858 6.86 101.815C6.98667 101.772 7.105 101.717 7.215 101.65C7.32833 101.58 7.44 101.495 7.55 101.395C7.58333 101.365 7.61833 101.342 7.655 101.325C7.69167 101.305 7.73 101.295 7.77 101.295ZM16.5551 99.385C16.5551 99.915 16.4667 100.407 16.2901 100.86C16.1167 101.31 15.8701 101.7 15.5501 102.03C15.2301 102.36 14.8451 102.618 14.3951 102.805C13.9451 102.988 13.4451 103.08 12.8951 103.08C12.3484 103.08 11.8501 102.988 11.4001 102.805C10.9501 102.618 10.5634 102.36 10.2401 102.03C9.92008 101.7 9.67174 101.31 9.49508 100.86C9.31841 100.407 9.23008 99.915 9.23008 99.385C9.23008 98.855 9.31841 98.365 9.49508 97.915C9.67174 97.4617 9.92008 97.07 10.2401 96.74C10.5634 96.41 10.9501 96.1533 11.4001 95.97C11.8501 95.7833 12.3484 95.69 12.8951 95.69C13.2617 95.69 13.6067 95.7333 13.9301 95.82C14.2534 95.9033 14.5501 96.0233 14.8201 96.18C15.0901 96.3333 15.3317 96.5217 15.5451 96.745C15.7617 96.965 15.9451 97.2117 16.0951 97.485C16.2451 97.7583 16.3584 98.055 16.4351 98.375C16.5151 98.695 16.5551 99.0317 16.5551 99.385ZM15.1801 99.385C15.1801 98.9883 15.1267 98.6333 15.0201 98.32C14.9134 98.0033 14.7617 97.735 14.5651 97.515C14.3684 97.295 14.1284 97.1267 13.8451 97.01C13.5651 96.8933 13.2484 96.835 12.8951 96.835C12.5417 96.835 12.2234 96.8933 11.9401 97.01C11.6601 97.1267 11.4201 97.295 11.2201 97.515C11.0234 97.735 10.8717 98.0033 10.7651 98.32C10.6584 98.6333 10.6051 98.9883 10.6051 99.385C10.6051 99.7817 10.6584 100.138 10.7651 100.455C10.8717 100.768 11.0234 101.035 11.2201 101.255C11.4201 101.472 11.6601 101.638 11.9401 101.755C12.2234 101.872 12.5417 101.93 12.8951 101.93C13.2484 101.93 13.5651 101.872 13.8451 101.755C14.1284 101.638 14.3684 101.472 14.5651 101.255C14.7617 101.035 14.9134 100.768 15.0201 100.455C15.1267 100.138 15.1801 99.7817 15.1801 99.385ZM20.6563 101.95C20.9063 101.95 21.1146 101.923 21.2813 101.87C21.4513 101.813 21.5879 101.737 21.6913 101.64C21.7946 101.543 21.8679 101.43 21.9113 101.3C21.9546 101.17 21.9763 101.03 21.9763 100.88C21.9763 100.717 21.9546 100.568 21.9113 100.435C21.8679 100.302 21.7946 100.19 21.6913 100.1C21.5879 100.007 21.4529 99.935 21.2863 99.885C21.1196 99.835 20.9113 99.81 20.6613 99.81H19.4813V101.95H20.6563ZM20.6613 98.76C21.1313 98.76 21.5329 98.8117 21.8663 98.915C22.2029 99.0183 22.4763 99.16 22.6863 99.34C22.8996 99.5167 23.0563 99.7267 23.1563 99.97C23.2563 100.21 23.3063 100.468 23.3063 100.745C23.3063 101.085 23.2463 101.393 23.1263 101.67C23.0096 101.947 22.8379 102.185 22.6113 102.385C22.3846 102.582 22.1063 102.733 21.7763 102.84C21.4496 102.947 21.0763 103 20.6563 103H18.1363V95.77H23.0413V96.81H19.4813V98.76H20.6613ZM29.8001 101.295C29.8734 101.295 29.9384 101.323 29.9951 101.38L30.5251 101.955C30.2317 102.318 29.8701 102.597 29.4401 102.79C29.0134 102.983 28.5001 103.08 27.9001 103.08C27.3634 103.08 26.8801 102.988 26.4501 102.805C26.0234 102.622 25.6584 102.367 25.3551 102.04C25.0517 101.713 24.8184 101.323 24.6551 100.87C24.4951 100.417 24.4151 99.9217 24.4151 99.385C24.4151 98.8417 24.5017 98.345 24.6751 97.895C24.8484 97.4417 25.0917 97.0517 25.4051 96.725C25.7217 96.3983 26.0984 96.145 26.5351 95.965C26.9717 95.7817 27.4551 95.69 27.9851 95.69C28.5117 95.69 28.9784 95.7767 29.3851 95.95C29.7951 96.1233 30.1434 96.35 30.4301 96.63L29.9801 97.255C29.9534 97.295 29.9184 97.33 29.8751 97.36C29.8351 97.39 29.7784 97.405 29.7051 97.405C29.6551 97.405 29.6034 97.3917 29.5501 97.365C29.4967 97.335 29.4384 97.3 29.3751 97.26C29.3117 97.2167 29.2384 97.17 29.1551 97.12C29.0717 97.07 28.9751 97.025 28.8651 96.985C28.7551 96.9417 28.6267 96.9067 28.4801 96.88C28.3367 96.85 28.1701 96.835 27.9801 96.835C27.6567 96.835 27.3601 96.8933 27.0901 97.01C26.8234 97.1233 26.5934 97.29 26.4001 97.51C26.2067 97.7267 26.0567 97.9933 25.9501 98.31C25.8434 98.6233 25.7901 98.9817 25.7901 99.385C25.7901 99.7917 25.8467 100.153 25.9601 100.47C26.0767 100.787 26.2334 101.053 26.4301 101.27C26.6267 101.487 26.8584 101.653 27.1251 101.77C27.3917 101.883 27.6784 101.94 27.9851 101.94C28.1684 101.94 28.3334 101.93 28.4801 101.91C28.6301 101.89 28.7667 101.858 28.8901 101.815C29.0167 101.772 29.1351 101.717 29.2451 101.65C29.3584 101.58 29.4701 101.495 29.5801 101.395C29.6134 101.365 29.6484 101.342 29.6851 101.325C29.7217 101.305 29.7601 101.295 29.8001 101.295ZM36.8964 96.875H34.7164V103H33.3714V96.875H31.1914V95.77H36.8964V96.875ZM40.9475 101.95C41.1975 101.95 41.4075 101.92 41.5775 101.86C41.7475 101.8 41.8825 101.72 41.9825 101.62C42.0858 101.52 42.1592 101.403 42.2025 101.27C42.2492 101.137 42.2725 100.995 42.2725 100.845C42.2725 100.688 42.2475 100.548 42.1975 100.425C42.1475 100.298 42.0692 100.192 41.9625 100.105C41.8558 100.015 41.7175 99.9467 41.5475 99.9C41.3808 99.8533 41.1792 99.83 40.9425 99.83H39.5875V101.95H40.9475ZM39.5875 96.81V98.9H40.6575C41.1175 98.9 41.4642 98.8167 41.6975 98.65C41.9342 98.4833 42.0525 98.2183 42.0525 97.855C42.0525 97.4783 41.9458 97.21 41.7325 97.05C41.5192 96.89 41.1858 96.81 40.7325 96.81H39.5875ZM40.7325 95.77C41.2058 95.77 41.6108 95.815 41.9475 95.905C42.2842 95.995 42.5592 96.1233 42.7725 96.29C42.9892 96.4567 43.1475 96.6583 43.2475 96.895C43.3475 97.1317 43.3975 97.3983 43.3975 97.695C43.3975 97.865 43.3725 98.0283 43.3225 98.185C43.2725 98.3383 43.1942 98.4833 43.0875 98.62C42.9842 98.7533 42.8508 98.875 42.6875 98.985C42.5275 99.095 42.3358 99.1883 42.1125 99.265C43.1058 99.4883 43.6025 100.025 43.6025 100.875C43.6025 101.182 43.5442 101.465 43.4275 101.725C43.3108 101.985 43.1408 102.21 42.9175 102.4C42.6942 102.587 42.4192 102.733 42.0925 102.84C41.7658 102.947 41.3925 103 40.9725 103H38.2425V95.77H40.7325ZM46.5745 96.84V98.845H49.1045V99.88H46.5745V101.925H49.7845V103H45.2245V95.77H49.7845V96.84H46.5745ZM57.4715 95.77V103H56.1215V99.84H52.7265V103H51.3765V95.77H52.7265V98.88H56.1215V95.77H57.4715ZM65.5766 95.77V103H64.2266V99.84H60.8316V103H59.4816V95.77H60.8316V98.88H64.2266V95.77H65.5766ZM74.4816 99.385C74.4816 99.915 74.3933 100.407 74.2166 100.86C74.0433 101.31 73.7966 101.7 73.4766 102.03C73.1566 102.36 72.7716 102.618 72.3216 102.805C71.8716 102.988 71.3716 103.08 70.8216 103.08C70.275 103.08 69.7766 102.988 69.3266 102.805C68.8766 102.618 68.49 102.36 68.1666 102.03C67.8466 101.7 67.5983 101.31 67.4216 100.86C67.245 100.407 67.1566 99.915 67.1566 99.385C67.1566 98.855 67.245 98.365 67.4216 97.915C67.5983 97.4617 67.8466 97.07 68.1666 96.74C68.49 96.41 68.8766 96.1533 69.3266 95.97C69.7766 95.7833 70.275 95.69 70.8216 95.69C71.1883 95.69 71.5333 95.7333 71.8566 95.82C72.18 95.9033 72.4766 96.0233 72.7466 96.18C73.0166 96.3333 73.2583 96.5217 73.4716 96.745C73.6883 96.965 73.8716 97.2117 74.0216 97.485C74.1716 97.7583 74.285 98.055 74.3616 98.375C74.4416 98.695 74.4816 99.0317 74.4816 99.385ZM73.1066 99.385C73.1066 98.9883 73.0533 98.6333 72.9466 98.32C72.84 98.0033 72.6883 97.735 72.4916 97.515C72.295 97.295 72.055 97.1267 71.7716 97.01C71.4916 96.8933 71.175 96.835 70.8216 96.835C70.4683 96.835 70.15 96.8933 69.8666 97.01C69.5866 97.1267 69.3466 97.295 69.1466 97.515C68.95 97.735 68.7983 98.0033 68.6916 98.32C68.585 98.6333 68.5316 98.9883 68.5316 99.385C68.5316 99.7817 68.585 100.138 68.6916 100.455C68.7983 100.768 68.95 101.035 69.1466 101.255C69.3466 101.472 69.5866 101.638 69.8666 101.755C70.15 101.872 70.4683 101.93 70.8216 101.93C71.175 101.93 71.4916 101.872 71.7716 101.755C72.055 101.638 72.295 101.472 72.4916 101.255C72.6883 101.035 72.84 100.768 72.9466 100.455C73.0533 100.138 73.1066 99.7817 73.1066 99.385ZM82.1578 95.77V103H80.8078V98.47C80.8078 98.3 80.8111 98.1217 80.8178 97.935C80.8278 97.7483 80.8478 97.55 80.8778 97.34C80.8111 97.5267 80.7378 97.7 80.6578 97.86C80.5811 98.0167 80.5061 98.155 80.4328 98.275L77.6678 102.585C77.6378 102.635 77.6011 102.685 77.5578 102.735C77.5178 102.785 77.4728 102.83 77.4228 102.87C77.3728 102.907 77.3178 102.938 77.2578 102.965C77.1978 102.988 77.1361 103 77.0728 103H76.0628V95.77H77.4128V100.3C77.4128 100.47 77.4078 100.65 77.3978 100.84C77.3911 101.027 77.3728 101.225 77.3428 101.435C77.4095 101.248 77.4811 101.075 77.5578 100.915C77.6378 100.755 77.7161 100.615 77.7928 100.495L80.5528 96.185C80.5828 96.135 80.6178 96.085 80.6578 96.035C80.7011 95.985 80.7478 95.9417 80.7978 95.905C80.8478 95.865 80.9011 95.8333 80.9578 95.81C81.0178 95.7833 81.0811 95.77 81.1478 95.77H82.1578ZM79.1728 94.725C79.2961 94.725 79.3995 94.7133 79.4828 94.69C79.5661 94.6667 79.6328 94.6267 79.6828 94.57C79.7328 94.51 79.7678 94.43 79.7878 94.33C79.8078 94.23 79.8178 94.1033 79.8178 93.95H80.5478C80.6345 93.95 80.6978 93.9867 80.7378 94.06C80.7811 94.1333 80.8028 94.2133 80.8028 94.3C80.8028 94.47 80.7645 94.62 80.6878 94.75C80.6111 94.88 80.5011 94.9883 80.3578 95.075C80.2145 95.1617 80.0428 95.2283 79.8428 95.275C79.6428 95.3183 79.4195 95.34 79.1728 95.34C78.9261 95.34 78.7028 95.3183 78.5028 95.275C78.3028 95.2283 78.1311 95.1617 77.9878 95.075C77.8445 94.9883 77.7345 94.88 77.6578 94.75C77.5811 94.62 77.5428 94.47 77.5428 94.3C77.5428 94.2133 77.5628 94.1333 77.6028 94.06C77.6461 93.9867 77.7111 93.95 77.7978 93.95H78.5278C78.5278 94.1033 78.5378 94.23 78.5578 94.33C78.5778 94.43 78.6128 94.51 78.6628 94.57C78.7128 94.6267 78.7778 94.6667 78.8578 94.69C78.9411 94.7133 79.0461 94.725 79.1728 94.725ZM5.155 113.405C5.40167 113.405 5.61667 113.375 5.8 113.315C5.98333 113.252 6.135 113.163 6.255 113.05C6.37833 112.933 6.47 112.793 6.53 112.63C6.59 112.463 6.62 112.278 6.62 112.075C6.62 111.882 6.59 111.707 6.53 111.55C6.47 111.393 6.38 111.26 6.26 111.15C6.14 111.04 5.98833 110.957 5.805 110.9C5.62167 110.84 5.405 110.81 5.155 110.81H4.15V113.405H5.155ZM5.155 109.77C5.63833 109.77 6.05667 109.827 6.41 109.94C6.76333 110.053 7.055 110.212 7.285 110.415C7.515 110.618 7.685 110.862 7.795 111.145C7.90833 111.428 7.965 111.738 7.965 112.075C7.965 112.425 7.90667 112.747 7.79 113.04C7.67333 113.33 7.49833 113.58 7.265 113.79C7.03167 114 6.73833 114.163 6.385 114.28C6.035 114.397 5.625 114.455 5.155 114.455H4.15V117H2.805V109.77H5.155ZM12.7131 114.27L11.8331 111.865C11.7898 111.758 11.7448 111.632 11.6981 111.485C11.6515 111.338 11.6048 111.18 11.5581 111.01C11.5148 111.18 11.4698 111.34 11.4231 111.49C11.3765 111.637 11.3315 111.765 11.2881 111.875L10.4131 114.27H12.7131ZM15.0881 117H14.0481C13.9315 117 13.8365 116.972 13.7631 116.915C13.6898 116.855 13.6348 116.782 13.5981 116.695L13.0581 115.22H10.0631L9.52313 116.695C9.49646 116.772 9.44479 116.842 9.36813 116.905C9.29146 116.968 9.19479 117 9.07813 117H8.03313L10.8731 109.77H12.2481L15.0881 117ZM15.8072 110.45C16.0872 110.21 16.4189 110.023 16.8022 109.89C17.1889 109.757 17.6172 109.69 18.0872 109.69C18.4772 109.69 18.8289 109.737 19.1422 109.83C19.4589 109.923 19.7272 110.055 19.9472 110.225C20.1672 110.392 20.3355 110.592 20.4522 110.825C20.5722 111.055 20.6322 111.308 20.6322 111.585C20.6322 111.925 20.5539 112.233 20.3972 112.51C20.2439 112.783 20.0105 113.005 19.6972 113.175C19.8639 113.255 20.0155 113.35 20.1522 113.46C20.2922 113.567 20.4105 113.687 20.5072 113.82C20.6072 113.95 20.6839 114.092 20.7372 114.245C20.7939 114.398 20.8222 114.562 20.8222 114.735C20.8222 115.062 20.7605 115.367 20.6372 115.65C20.5172 115.933 20.3405 116.18 20.1072 116.39C19.8772 116.6 19.5939 116.767 19.2572 116.89C18.9205 117.01 18.5355 117.07 18.1022 117.07C17.8489 117.07 17.6005 117.047 17.3572 117C17.1172 116.957 16.8872 116.893 16.6672 116.81C16.4472 116.727 16.2405 116.627 16.0472 116.51C15.8539 116.393 15.6822 116.263 15.5322 116.12L15.9272 115.475C15.9639 115.428 16.0072 115.39 16.0572 115.36C16.1105 115.327 16.1689 115.31 16.2322 115.31C16.3189 115.31 16.4139 115.345 16.5172 115.415C16.6205 115.482 16.7455 115.557 16.8922 115.64C17.0389 115.723 17.2122 115.8 17.4122 115.87C17.6155 115.937 17.8589 115.97 18.1422 115.97C18.5922 115.97 18.9405 115.873 19.1872 115.68C19.4339 115.487 19.5572 115.19 19.5572 114.79C19.5572 114.627 19.5239 114.48 19.4572 114.35C19.3905 114.22 19.2955 114.11 19.1722 114.02C19.0489 113.93 18.8989 113.862 18.7222 113.815C18.5489 113.765 18.3555 113.74 18.1422 113.74H17.1222L17.1172 112.66H18.0472C18.4639 112.66 18.7889 112.578 19.0222 112.415C19.2589 112.248 19.3772 112.008 19.3772 111.695C19.3772 111.418 19.2655 111.198 19.0422 111.035C18.8222 110.868 18.5022 110.785 18.0822 110.785C17.8389 110.785 17.6289 110.812 17.4522 110.865C17.2789 110.918 17.1272 110.977 16.9972 111.04C16.8705 111.1 16.7622 111.157 16.6722 111.21C16.5855 111.263 16.5072 111.29 16.4372 111.29C16.3705 111.29 16.3139 111.273 16.2672 111.24C16.2205 111.207 16.1772 111.157 16.1372 111.09L15.8072 110.45ZM24.7827 113.405C25.0294 113.405 25.2444 113.375 25.4277 113.315C25.6111 113.252 25.7627 113.163 25.8827 113.05C26.0061 112.933 26.0977 112.793 26.1577 112.63C26.2177 112.463 26.2477 112.278 26.2477 112.075C26.2477 111.882 26.2177 111.707 26.1577 111.55C26.0977 111.393 26.0077 111.26 25.8877 111.15C25.7677 111.04 25.6161 110.957 25.4327 110.9C25.2494 110.84 25.0327 110.81 24.7827 110.81H23.7777V113.405H24.7827ZM24.7827 109.77C25.2661 109.77 25.6844 109.827 26.0377 109.94C26.3911 110.053 26.6827 110.212 26.9127 110.415C27.1427 110.618 27.3127 110.862 27.4227 111.145C27.5361 111.428 27.5927 111.738 27.5927 112.075C27.5927 112.425 27.5344 112.747 27.4177 113.04C27.3011 113.33 27.1261 113.58 26.8927 113.79C26.6594 114 26.3661 114.163 26.0127 114.28C25.6627 114.397 25.2527 114.455 24.7827 114.455H23.7777V117H22.4327V109.77H24.7827ZM32.3409 114.27L31.4609 111.865C31.4175 111.758 31.3725 111.632 31.3259 111.485C31.2792 111.338 31.2325 111.18 31.1859 111.01C31.1425 111.18 31.0975 111.34 31.0509 111.49C31.0042 111.637 30.9592 111.765 30.9159 111.875L30.0409 114.27H32.3409ZM34.7159 117H33.6759C33.5592 117 33.4642 116.972 33.3909 116.915C33.3175 116.855 33.2625 116.782 33.2259 116.695L32.6859 115.22H29.6909L29.1509 116.695C29.1242 116.772 29.0725 116.842 28.9959 116.905C28.9192 116.968 28.8225 117 28.7059 117H27.6609L30.5009 109.77H31.8759L34.7159 117ZM38.3699 115.95C38.6199 115.95 38.8283 115.923 38.9949 115.87C39.1649 115.813 39.3016 115.737 39.4049 115.64C39.5083 115.543 39.5816 115.43 39.6249 115.3C39.6683 115.17 39.6899 115.03 39.6899 114.88C39.6899 114.717 39.6683 114.568 39.6249 114.435C39.5816 114.302 39.5083 114.19 39.4049 114.1C39.3016 114.007 39.1666 113.935 38.9999 113.885C38.8333 113.835 38.6249 113.81 38.3749 113.81H37.1949V115.95H38.3699ZM38.3749 112.76C38.8449 112.76 39.2466 112.812 39.5799 112.915C39.9166 113.018 40.1899 113.16 40.3999 113.34C40.6133 113.517 40.7699 113.727 40.8699 113.97C40.9699 114.21 41.0199 114.468 41.0199 114.745C41.0199 115.085 40.9599 115.393 40.8399 115.67C40.7233 115.947 40.5516 116.185 40.3249 116.385C40.0983 116.582 39.8199 116.733 39.4899 116.84C39.1633 116.947 38.7899 117 38.3699 117H35.8499V109.77H40.7549V110.81H37.1949V112.76H38.3749ZM49.4438 113.385C49.4438 113.915 49.3554 114.407 49.1788 114.86C49.0054 115.31 48.7588 115.7 48.4388 116.03C48.1188 116.36 47.7338 116.618 47.2838 116.805C46.8338 116.988 46.3338 117.08 45.7838 117.08C45.2371 117.08 44.7388 116.988 44.2888 116.805C43.8388 116.618 43.4521 116.36 43.1288 116.03C42.8088 115.7 42.5604 115.31 42.3838 114.86C42.2071 114.407 42.1188 113.915 42.1188 113.385C42.1188 112.855 42.2071 112.365 42.3838 111.915C42.5604 111.462 42.8088 111.07 43.1288 110.74C43.4521 110.41 43.8388 110.153 44.2888 109.97C44.7388 109.783 45.2371 109.69 45.7838 109.69C46.1504 109.69 46.4954 109.733 46.8188 109.82C47.1421 109.903 47.4388 110.023 47.7088 110.18C47.9788 110.333 48.2204 110.522 48.4338 110.745C48.6504 110.965 48.8338 111.212 48.9838 111.485C49.1338 111.758 49.2471 112.055 49.3238 112.375C49.4038 112.695 49.4438 113.032 49.4438 113.385ZM48.0688 113.385C48.0688 112.988 48.0154 112.633 47.9088 112.32C47.8021 112.003 47.6504 111.735 47.4538 111.515C47.2571 111.295 47.0171 111.127 46.7338 111.01C46.4538 110.893 46.1371 110.835 45.7838 110.835C45.4304 110.835 45.1121 110.893 44.8288 111.01C44.5488 111.127 44.3088 111.295 44.1088 111.515C43.9121 111.735 43.7604 112.003 43.6538 112.32C43.5471 112.633 43.4938 112.988 43.4938 113.385C43.4938 113.782 43.5471 114.138 43.6538 114.455C43.7604 114.768 43.9121 115.035 44.1088 115.255C44.3088 115.472 44.5488 115.638 44.8288 115.755C45.1121 115.872 45.4304 115.93 45.7838 115.93C46.1371 115.93 46.4538 115.872 46.7338 115.755C47.0171 115.638 47.2571 115.472 47.4538 115.255C47.6504 115.035 47.8021 114.768 47.9088 114.455C48.0154 114.138 48.0688 113.782 48.0688 113.385ZM55.8308 110.875H53.6508V117H52.3058V110.875H50.1258V109.77H55.8308V110.875ZM63.3119 117H62.0919C61.9652 117 61.8585 116.967 61.7719 116.9C61.6885 116.833 61.6102 116.735 61.5369 116.605L59.9969 114.175C59.9569 114.105 59.9135 114.048 59.8669 114.005C59.8235 113.958 59.7752 113.922 59.7219 113.895C59.6719 113.865 59.6135 113.845 59.5469 113.835C59.4835 113.825 59.4102 113.82 59.3269 113.82H58.5219V117H57.1769V109.77H58.5219V112.8H59.2019C59.3385 112.8 59.4569 112.777 59.5569 112.73C59.6569 112.683 59.7502 112.597 59.8369 112.47L61.4219 110.13C61.4885 110.023 61.5669 109.937 61.6569 109.87C61.7469 109.803 61.8552 109.77 61.9819 109.77H63.1319L61.1669 112.67C61.0835 112.797 60.9869 112.902 60.8769 112.985C60.7669 113.068 60.6452 113.133 60.5119 113.18C60.7119 113.237 60.8802 113.327 61.0169 113.45C61.1569 113.57 61.2902 113.737 61.4169 113.95L63.3119 117ZM70.6348 109.77V117H69.2848V112.47C69.2848 112.3 69.2881 112.122 69.2948 111.935C69.3048 111.748 69.3248 111.55 69.3548 111.34C69.2881 111.527 69.2148 111.7 69.1348 111.86C69.0581 112.017 68.9831 112.155 68.9098 112.275L66.1448 116.585C66.1148 116.635 66.0781 116.685 66.0348 116.735C65.9948 116.785 65.9498 116.83 65.8998 116.87C65.8498 116.907 65.7948 116.938 65.7348 116.965C65.6748 116.988 65.6131 117 65.5498 117H64.5398V109.77H65.8898V114.3C65.8898 114.47 65.8848 114.65 65.8748 114.84C65.8681 115.027 65.8498 115.225 65.8198 115.435C65.8864 115.248 65.9581 115.075 66.0348 114.915C66.1148 114.755 66.1931 114.615 66.2698 114.495L69.0298 110.185C69.0598 110.135 69.0948 110.085 69.1348 110.035C69.1781 109.985 69.2248 109.942 69.2748 109.905C69.3248 109.865 69.3781 109.833 69.4348 109.81C69.4948 109.783 69.5581 109.77 69.6248 109.77H70.6348Z" fill="#2CB0FF"/>
<defs>
<linearGradient id="paint0_linear_167_295" x1="-9.68133" y1="70.8448" x2="87.1615" y2="70.8448" gradientUnits="userSpaceOnUse">
<stop stop-color="#1889D9"/>
<stop offset="1" stop-color="#2CB0FF"/>
</linearGradient>
</defs>
</svg>
