<svg width="95" height="109" viewBox="0 0 95 109" fill="none" xmlns="http://www.w3.org/2000/svg">
<path d="M7.956 62.936H18.036V36.476C18.036 35.18 18.072 33.824 18.144 32.408L12.204 37.34C11.676 37.748 11.148 38 10.62 38.096C10.116 38.168 9.636 38.168 9.18 38.096C8.724 38 8.316 37.844 7.956 37.628C7.596 37.388 7.332 37.148 7.164 36.908L3.636 32.228L19.98 18.512H29.196V62.936H37.836V71H7.956V62.936ZM63.2216 17.972C65.8136 17.972 68.1416 18.356 70.2056 19.124C72.2936 19.868 74.0696 20.912 75.5336 22.256C76.9976 23.6 78.1136 25.208 78.8816 27.08C79.6736 28.928 80.0696 30.968 80.0696 33.2C80.0696 35.12 79.7936 36.896 79.2416 38.528C78.7136 40.16 77.9816 41.72 77.0456 43.208C76.1096 44.672 75.0176 46.1 73.7696 47.492C72.5456 48.86 71.2376 50.252 69.8456 51.668L59.5856 62.18C60.9056 61.796 62.2016 61.496 63.4736 61.28C64.7696 61.04 65.9816 60.92 67.1096 60.92H76.9016C78.1016 60.92 79.0496 61.256 79.7456 61.928C80.4416 62.576 80.7896 63.44 80.7896 64.52V71H43.9256V67.4C43.9256 66.704 44.0696 65.96 44.3576 65.168C44.6456 64.376 45.1496 63.656 45.8696 63.008L60.9896 47.78C62.2856 46.484 63.4136 45.248 64.3736 44.072C65.3336 42.896 66.1256 41.744 66.7496 40.616C67.3736 39.464 67.8416 38.324 68.1536 37.196C68.4656 36.044 68.6216 34.832 68.6216 33.56C68.6216 31.472 68.1176 29.876 67.1096 28.772C66.1256 27.644 64.6136 27.08 62.5736 27.08C60.9176 27.08 59.5136 27.524 58.3616 28.412C57.2336 29.276 56.4536 30.356 56.0216 31.652C55.5176 32.972 54.8576 33.848 54.0416 34.28C53.2256 34.712 52.0616 34.808 50.5496 34.568L44.6456 33.524C45.0296 30.908 45.7616 28.628 46.8416 26.684C47.9456 24.74 49.3016 23.12 50.9096 21.824C52.5416 20.528 54.4016 19.568 56.4896 18.944C58.5776 18.296 60.8216 17.972 63.2216 17.972Z" fill="url(#paint0_linear_167_287)"/>
<path d="M6.65 92H5.295V85.805H2.155V92H0.805V84.77H6.65V92ZM12.4612 89.27L11.5812 86.865C11.5378 86.7583 11.4928 86.6317 11.4462 86.485C11.3995 86.3383 11.3528 86.18 11.3062 86.01C11.2628 86.18 11.2178 86.34 11.1712 86.49C11.1245 86.6367 11.0795 86.765 11.0362 86.875L10.1612 89.27H12.4612ZM14.8362 92H13.7962C13.6795 92 13.5845 91.9717 13.5112 91.915C13.4378 91.855 13.3828 91.7817 13.3462 91.695L12.8062 90.22H9.81117L9.27117 91.695C9.24451 91.7717 9.19284 91.8417 9.11617 91.905C9.03951 91.9683 8.94284 92 8.82617 92H7.78117L10.6212 84.77H11.9962L14.8362 92ZM20.3269 85.875H18.1469V92H16.8019V85.875H14.6219V84.77H20.3269V85.875ZM23.023 85.84V87.845H25.553V88.88H23.023V90.925H26.233V92H21.673V84.77H26.233V85.84H23.023ZM33.9199 84.77V92H32.5699V88.84H29.1749V92H27.8249V84.77H29.1749V87.88H32.5699V84.77H33.9199ZM40.98 85.875H38.8V92H37.455V85.875H35.275V84.77H40.98V85.875ZM48.977 88.385C48.977 88.915 48.8886 89.4067 48.712 89.86C48.5386 90.31 48.292 90.7 47.972 91.03C47.652 91.36 47.267 91.6183 46.817 91.805C46.367 91.9883 45.867 92.08 45.317 92.08C44.7703 92.08 44.272 91.9883 43.822 91.805C43.372 91.6183 42.9853 91.36 42.662 91.03C42.342 90.7 42.0936 90.31 41.917 89.86C41.7403 89.4067 41.652 88.915 41.652 88.385C41.652 87.855 41.7403 87.365 41.917 86.915C42.0936 86.4617 42.342 86.07 42.662 85.74C42.9853 85.41 43.372 85.1533 43.822 84.97C44.272 84.7833 44.7703 84.69 45.317 84.69C45.6836 84.69 46.0286 84.7333 46.352 84.82C46.6753 84.9033 46.972 85.0233 47.242 85.18C47.512 85.3333 47.7536 85.5217 47.967 85.745C48.1836 85.965 48.367 86.2117 48.517 86.485C48.667 86.7583 48.7803 87.055 48.857 87.375C48.937 87.695 48.977 88.0317 48.977 88.385ZM47.602 88.385C47.602 87.9883 47.5486 87.6333 47.442 87.32C47.3353 87.0033 47.1836 86.735 46.987 86.515C46.7903 86.295 46.5503 86.1267 46.267 86.01C45.987 85.8933 45.6703 85.835 45.317 85.835C44.9636 85.835 44.6453 85.8933 44.362 86.01C44.082 86.1267 43.842 86.295 43.642 86.515C43.4453 86.735 43.2936 87.0033 43.187 87.32C43.0803 87.6333 43.027 87.9883 43.027 88.385C43.027 88.7817 43.0803 89.1383 43.187 89.455C43.2936 89.7683 43.4453 90.035 43.642 90.255C43.842 90.4717 44.082 90.6383 44.362 90.755C44.6453 90.8717 44.9636 90.93 45.317 90.93C45.6703 90.93 45.987 90.8717 46.267 90.755C46.5503 90.6383 46.7903 90.4717 46.987 90.255C47.1836 90.035 47.3353 89.7683 47.442 89.455C47.5486 89.1383 47.602 88.7817 47.602 88.385ZM53.2631 90.95C53.5131 90.95 53.7231 90.92 53.8931 90.86C54.0631 90.8 54.1981 90.72 54.2981 90.62C54.4015 90.52 54.4748 90.4033 54.5181 90.27C54.5648 90.1367 54.5881 89.995 54.5881 89.845C54.5881 89.6883 54.5631 89.5483 54.5131 89.425C54.4631 89.2983 54.3848 89.1917 54.2781 89.105C54.1715 89.015 54.0331 88.9467 53.8631 88.9C53.6965 88.8533 53.4948 88.83 53.2581 88.83H51.9031V90.95H53.2631ZM51.9031 85.81V87.9H52.9731C53.4331 87.9 53.7798 87.8167 54.0131 87.65C54.2498 87.4833 54.3681 87.2183 54.3681 86.855C54.3681 86.4783 54.2615 86.21 54.0481 86.05C53.8348 85.89 53.5015 85.81 53.0481 85.81H51.9031ZM53.0481 84.77C53.5215 84.77 53.9265 84.815 54.2631 84.905C54.5998 84.995 54.8748 85.1233 55.0881 85.29C55.3048 85.4567 55.4631 85.6583 55.5631 85.895C55.6631 86.1317 55.7131 86.3983 55.7131 86.695C55.7131 86.865 55.6881 87.0283 55.6381 87.185C55.5881 87.3383 55.5098 87.4833 55.4031 87.62C55.2998 87.7533 55.1665 87.875 55.0031 87.985C54.8431 88.095 54.6515 88.1883 54.4281 88.265C55.4215 88.4883 55.9181 89.025 55.9181 89.875C55.9181 90.1817 55.8598 90.465 55.7431 90.725C55.6265 90.985 55.4565 91.21 55.2331 91.4C55.0098 91.5867 54.7348 91.7333 54.4081 91.84C54.0815 91.9467 53.7081 92 53.2881 92H50.5581V84.77H53.0481ZM6.9 98.77V106H5.55V102.84H2.155V106H0.805V98.77H2.155V101.88H5.55V98.77H6.9ZM12.7151 103.27L11.8351 100.865C11.7917 100.758 11.7467 100.632 11.7001 100.485C11.6534 100.338 11.6067 100.18 11.5601 100.01C11.5167 100.18 11.4717 100.34 11.4251 100.49C11.3784 100.637 11.3334 100.765 11.2901 100.875L10.4151 103.27H12.7151ZM15.0901 106H14.0501C13.9334 106 13.8384 105.972 13.7651 105.915C13.6917 105.855 13.6367 105.782 13.6001 105.695L13.0601 104.22H10.0651L9.52508 105.695C9.49841 105.772 9.44674 105.842 9.37008 105.905C9.29341 105.968 9.19674 106 9.08008 106H8.03508L10.8751 98.77H12.2501L15.0901 106ZM25.1508 98.77V106H23.8008V101.47C23.8008 101.3 23.8041 101.122 23.8108 100.935C23.8208 100.748 23.8408 100.55 23.8708 100.34C23.8041 100.527 23.7308 100.7 23.6508 100.86C23.5741 101.017 23.4991 101.155 23.4258 101.275L20.6608 105.585C20.6308 105.635 20.5941 105.685 20.5508 105.735C20.5108 105.785 20.4658 105.83 20.4158 105.87C20.3658 105.907 20.3108 105.938 20.2508 105.965C20.1908 105.988 20.1291 106 20.0658 106H19.0558V98.77H20.4058V103.3C20.4058 103.47 20.4008 103.65 20.3908 103.84C20.3841 104.027 20.3658 104.225 20.3358 104.435C20.4024 104.248 20.4741 104.075 20.5508 103.915C20.6308 103.755 20.7091 103.615 20.7858 103.495L23.5458 99.185C23.5758 99.135 23.6108 99.085 23.6508 99.035C23.6941 98.985 23.7408 98.9417 23.7908 98.905C23.8408 98.865 23.8941 98.8333 23.9508 98.81C24.0108 98.7833 24.0741 98.77 24.1408 98.77H25.1508ZM26.7459 99.45C27.0259 99.21 27.3575 99.0233 27.7409 98.89C28.1275 98.7567 28.5559 98.69 29.0259 98.69C29.4159 98.69 29.7675 98.7367 30.0809 98.83C30.3975 98.9233 30.6659 99.055 30.8859 99.225C31.1059 99.3917 31.2742 99.5917 31.3909 99.825C31.5109 100.055 31.5709 100.308 31.5709 100.585C31.5709 100.925 31.4925 101.233 31.3359 101.51C31.1825 101.783 30.9492 102.005 30.6359 102.175C30.8025 102.255 30.9542 102.35 31.0909 102.46C31.2309 102.567 31.3492 102.687 31.4459 102.82C31.5459 102.95 31.6225 103.092 31.6759 103.245C31.7325 103.398 31.7609 103.562 31.7609 103.735C31.7609 104.062 31.6992 104.367 31.5759 104.65C31.4559 104.933 31.2792 105.18 31.0459 105.39C30.8159 105.6 30.5325 105.767 30.1959 105.89C29.8592 106.01 29.4742 106.07 29.0409 106.07C28.7875 106.07 28.5392 106.047 28.2959 106C28.0559 105.957 27.8259 105.893 27.6059 105.81C27.3859 105.727 27.1792 105.627 26.9859 105.51C26.7925 105.393 26.6209 105.263 26.4709 105.12L26.8659 104.475C26.9025 104.428 26.9459 104.39 26.9959 104.36C27.0492 104.327 27.1075 104.31 27.1709 104.31C27.2575 104.31 27.3525 104.345 27.4559 104.415C27.5592 104.482 27.6842 104.557 27.8309 104.64C27.9775 104.723 28.1509 104.8 28.3509 104.87C28.5542 104.937 28.7975 104.97 29.0809 104.97C29.5309 104.97 29.8792 104.873 30.1259 104.68C30.3725 104.487 30.4959 104.19 30.4959 103.79C30.4959 103.627 30.4625 103.48 30.3959 103.35C30.3292 103.22 30.2342 103.11 30.1109 103.02C29.9875 102.93 29.8375 102.862 29.6609 102.815C29.4875 102.765 29.2942 102.74 29.0809 102.74H28.0609L28.0559 101.66H28.9859C29.4025 101.66 29.7275 101.578 29.9609 101.415C30.1975 101.248 30.3159 101.008 30.3159 100.695C30.3159 100.418 30.2042 100.198 29.9809 100.035C29.7609 99.8683 29.4409 99.785 29.0209 99.785C28.7775 99.785 28.5675 99.8117 28.3909 99.865C28.2175 99.9183 28.0659 99.9767 27.9359 100.04C27.8092 100.1 27.7009 100.157 27.6109 100.21C27.5242 100.263 27.4459 100.29 27.3759 100.29C27.3092 100.29 27.2525 100.273 27.2059 100.24C27.1592 100.207 27.1159 100.157 27.0759 100.09L26.7459 99.45ZM40.2664 102.385C40.2664 102.915 40.1781 103.407 40.0014 103.86C39.8281 104.31 39.5814 104.7 39.2614 105.03C38.9414 105.36 38.5564 105.618 38.1064 105.805C37.6564 105.988 37.1564 106.08 36.6064 106.08C36.0597 106.08 35.5614 105.988 35.1114 105.805C34.6614 105.618 34.2747 105.36 33.9514 105.03C33.6314 104.7 33.3831 104.31 33.2064 103.86C33.0297 103.407 32.9414 102.915 32.9414 102.385C32.9414 101.855 33.0297 101.365 33.2064 100.915C33.3831 100.462 33.6314 100.07 33.9514 99.74C34.2747 99.41 34.6614 99.1533 35.1114 98.97C35.5614 98.7833 36.0597 98.69 36.6064 98.69C36.9731 98.69 37.3181 98.7333 37.6414 98.82C37.9647 98.9033 38.2614 99.0233 38.5314 99.18C38.8014 99.3333 39.0431 99.5217 39.2564 99.745C39.4731 99.965 39.6564 100.212 39.8064 100.485C39.9564 100.758 40.0697 101.055 40.1464 101.375C40.2264 101.695 40.2664 102.032 40.2664 102.385ZM38.8914 102.385C38.8914 101.988 38.8381 101.633 38.7314 101.32C38.6247 101.003 38.4731 100.735 38.2764 100.515C38.0797 100.295 37.8397 100.127 37.5564 100.01C37.2764 99.8933 36.9597 99.835 36.6064 99.835C36.2531 99.835 35.9347 99.8933 35.6514 100.01C35.3714 100.127 35.1314 100.295 34.9314 100.515C34.7347 100.735 34.5831 101.003 34.4764 101.32C34.3697 101.633 34.3164 101.988 34.3164 102.385C34.3164 102.782 34.3697 103.138 34.4764 103.455C34.5831 103.768 34.7347 104.035 34.9314 104.255C35.1314 104.472 35.3714 104.638 35.6514 104.755C35.9347 104.872 36.2531 104.93 36.6064 104.93C36.9597 104.93 37.2764 104.872 37.5564 104.755C37.8397 104.638 38.0797 104.472 38.2764 104.255C38.4731 104.035 38.6247 103.768 38.7314 103.455C38.8381 103.138 38.8914 102.782 38.8914 102.385ZM44.3676 104.95C44.6176 104.95 44.8259 104.923 44.9926 104.87C45.1626 104.813 45.2992 104.737 45.4026 104.64C45.5059 104.543 45.5792 104.43 45.6226 104.3C45.6659 104.17 45.6876 104.03 45.6876 103.88C45.6876 103.717 45.6659 103.568 45.6226 103.435C45.5792 103.302 45.5059 103.19 45.4026 103.1C45.2992 103.007 45.1642 102.935 44.9976 102.885C44.8309 102.835 44.6226 102.81 44.3726 102.81H43.1926V104.95H44.3676ZM44.3726 101.76C44.8426 101.76 45.2442 101.812 45.5776 101.915C45.9142 102.018 46.1876 102.16 46.3976 102.34C46.6109 102.517 46.7676 102.727 46.8676 102.97C46.9676 103.21 47.0176 103.468 47.0176 103.745C47.0176 104.085 46.9576 104.393 46.8376 104.67C46.7209 104.947 46.5492 105.185 46.3226 105.385C46.0959 105.582 45.8176 105.733 45.4876 105.84C45.1609 105.947 44.7876 106 44.3676 106H41.8476V98.77H46.7526V99.81H43.1926V101.76H44.3726ZM50.8964 102.405C51.1431 102.405 51.3581 102.375 51.5414 102.315C51.7247 102.252 51.8764 102.163 51.9964 102.05C52.1197 101.933 52.2114 101.793 52.2714 101.63C52.3314 101.463 52.3614 101.278 52.3614 101.075C52.3614 100.882 52.3314 100.707 52.2714 100.55C52.2114 100.393 52.1214 100.26 52.0014 100.15C51.8814 100.04 51.7297 99.9567 51.5464 99.9C51.3631 99.84 51.1464 99.81 50.8964 99.81H49.8914V102.405H50.8964ZM50.8964 98.77C51.3797 98.77 51.7981 98.8267 52.1514 98.94C52.5047 99.0533 52.7964 99.2117 53.0264 99.415C53.2564 99.6183 53.4264 99.8617 53.5364 100.145C53.6497 100.428 53.7064 100.738 53.7064 101.075C53.7064 101.425 53.6481 101.747 53.5314 102.04C53.4147 102.33 53.2397 102.58 53.0064 102.79C52.7731 103 52.4797 103.163 52.1264 103.28C51.7764 103.397 51.3664 103.455 50.8964 103.455H49.8914V106H48.5464V98.77H50.8964ZM56.4878 99.84V101.845H59.0178V102.88H56.4878V104.925H59.6978V106H55.1378V98.77H59.6978V99.84H56.4878ZM66.3398 99.875H64.1598V106H62.8148V99.875H60.6348V98.77H66.3398V99.875ZM69.0359 99.84V101.845H71.5659V102.88H69.0359V104.925H72.2459V106H67.6859V98.77H72.2459V99.84H69.0359ZM79.9328 98.77V106H78.5828V102.84H75.1878V106H73.8378V98.77H75.1878V101.88H78.5828V98.77H79.9328ZM88.0379 98.77V106H86.6879V101.47C86.6879 101.3 86.6912 101.122 86.6979 100.935C86.7079 100.748 86.7279 100.55 86.7579 100.34C86.6912 100.527 86.6179 100.7 86.5379 100.86C86.4612 101.017 86.3862 101.155 86.3129 101.275L83.5479 105.585C83.5179 105.635 83.4812 105.685 83.4379 105.735C83.3979 105.785 83.3529 105.83 83.3029 105.87C83.2529 105.907 83.1979 105.938 83.1379 105.965C83.0779 105.988 83.0162 106 82.9529 106H81.9429V98.77H83.2929V103.3C83.2929 103.47 83.2879 103.65 83.2779 103.84C83.2712 104.027 83.2529 104.225 83.2229 104.435C83.2896 104.248 83.3612 104.075 83.4379 103.915C83.5179 103.755 83.5962 103.615 83.6729 103.495L86.4329 99.185C86.4629 99.135 86.4979 99.085 86.5379 99.035C86.5812 98.985 86.6279 98.9417 86.6779 98.905C86.7279 98.865 86.7812 98.8333 86.8379 98.81C86.8979 98.7833 86.9612 98.77 87.0279 98.77H88.0379ZM91.398 99.84V101.845H93.928V102.88H91.398V104.925H94.608V106H90.048V98.77H94.608V99.84H91.398Z" fill="#2CB0FF"/>
<defs>
<linearGradient id="paint0_linear_167_287" x1="-9.34749" y1="85.812" x2="84.1559" y2="85.812" gradientUnits="userSpaceOnUse">
<stop stop-color="#1889D9"/>
<stop offset="1" stop-color="#2CB0FF"/>
</linearGradient>
</defs>
</svg>
