<svg width="48" height="35" viewBox="0 0 48 35" fill="none" xmlns="http://www.w3.org/2000/svg">
<path d="M47.8481 17.0223L37.1948 0.364026C37.1109 0.199092 36.8593 0.0341587 36.6915 0.0341587C36.4399 -0.0483079 36.2721 0.034159 36.0205 0.116626L30.9874 3.25036C30.568 3.49776 30.4841 3.99256 30.7358 4.40489L30.9874 4.81722C28.9742 4.48736 25.8705 4.32242 23.8573 5.22956H23.7734C21.5925 4.48736 17.9016 4.89969 15.7206 5.31202L16.3917 4.23996C16.6433 3.82762 16.4756 3.33282 16.0561 3.08542L11.107 0.199093C10.9392 0.116626 10.6876 0.034159 10.4359 0.116626C10.1843 0.199092 10.0165 0.281559 9.93263 0.528959L0.118237 17.5171C-0.133414 17.9294 0.0343538 18.4242 0.453772 18.6716L5.31903 21.393C5.48679 21.4755 5.57068 21.4755 5.73844 21.4755C5.9901 21.4755 6.32563 21.3105 6.4934 21.0631L7.5 19.3313C7.75165 19.9086 8.08719 20.4034 8.42272 20.7333C7.83554 21.393 7.5 22.2177 7.5 23.0423C7.5 23.9495 7.83554 24.8566 8.50661 25.5163C9.17768 26.1761 10.1004 26.5059 11.0231 26.5059C11.107 26.5059 11.1909 26.5059 11.3587 26.5059C11.3587 26.5884 11.3587 26.6709 11.3587 26.8358C11.3587 27.7429 11.6942 28.6501 12.3653 29.3098C13.0363 29.9695 13.8752 30.2994 14.8818 30.2994C14.9656 30.2994 15.0495 30.2994 15.2173 30.2994C15.2173 30.3819 15.2173 30.4643 15.2173 30.6293C15.2173 31.5364 15.5528 32.4435 16.2239 33.1033C16.895 33.763 17.8177 34.0929 18.7404 34.0929C19.6631 34.0929 20.502 33.763 21.2569 33.1033L21.5925 32.7734L23.6057 34.2578C24.2767 34.7526 24.9478 35 25.7028 35C26.7932 35 27.7999 34.5877 28.387 33.763C28.8065 33.1857 29.0581 32.6085 29.0581 31.9487C29.142 31.9487 29.142 31.9487 29.2259 31.9487C30.2325 31.9487 31.2391 31.5364 31.9102 30.7117C32.3296 30.1345 32.5812 29.4747 32.5812 28.8975C32.6651 28.8975 32.749 28.8975 32.8329 28.8975C33.8395 28.8975 34.8461 28.4851 35.5172 27.7429C35.9366 27.2481 36.1882 26.6709 36.1882 25.9287C37.0271 25.8462 37.8659 25.4339 38.3692 24.6917C39.1241 23.7021 39.208 22.4651 38.7047 21.4755L40.9696 20.156L41.6407 21.2281C41.7245 21.393 41.9762 21.5579 42.144 21.5579C42.2278 21.5579 42.2278 21.5579 42.3117 21.5579C42.4795 21.5579 42.6473 21.4755 42.7311 21.393L47.7642 18.1768C48.0158 17.8469 48.0997 17.3521 47.8481 17.0223ZM5.40291 19.4963L1.96368 17.5995L10.9392 1.93089L14.4623 3.99256L5.40291 19.4963ZM9.59709 24.3618C9.26156 24.0319 9.09379 23.5371 9.09379 23.1248C9.09379 22.63 9.26156 22.2177 9.59709 21.8878L10.1004 21.393C10.7715 20.7333 12.0297 20.7333 12.7008 21.393C13.0363 21.7229 13.2041 22.2177 13.2041 22.63C13.2041 23.1248 13.0363 23.5371 12.7008 23.867L12.1975 24.3618C11.5264 25.0215 10.352 25.0215 9.59709 24.3618ZM13.3719 28.0728C13.0363 27.7429 12.8686 27.2481 12.8686 26.8358C12.8686 26.341 13.0363 25.9287 13.3719 25.5988L13.8752 25.104C14.2107 24.7741 14.714 24.6092 15.1334 24.6092C15.5528 24.6092 16.0561 24.7741 16.3917 25.104C17.1466 25.8462 17.1466 26.9183 16.3917 27.6605L15.8884 28.1553C15.3012 28.7325 14.1268 28.7325 13.3719 28.0728ZM19.747 31.7838C18.9921 32.4435 17.9016 32.4435 17.1466 31.7838C16.8111 31.4539 16.6433 30.9591 16.6433 30.5468C16.6433 30.052 16.8111 29.6397 17.1466 29.3098L17.6499 28.815C17.9855 28.4851 18.4888 28.3202 18.9082 28.3202C19.3276 28.3202 19.8309 28.4851 20.1664 28.815C20.502 29.1449 20.6697 29.6397 20.6697 30.052C20.6697 30.5468 20.502 30.9591 20.1664 31.289L19.747 31.7838ZM36.7754 23.5371C36.4399 23.9495 35.9366 24.1969 35.3494 24.1144C35.2655 24.0319 35.0977 24.0319 34.93 24.0319C34.7622 23.9495 34.5944 23.867 34.4267 23.7845L32.749 22.4651C32.4135 22.2177 31.8263 22.2177 31.5746 22.63C31.323 22.9599 31.323 23.5371 31.7424 23.7845L33.4201 25.104C33.6717 25.2689 33.9234 25.4339 34.2589 25.5988C34.2589 25.9287 34.175 26.2585 34.0072 26.5059C33.4201 27.1657 32.3296 27.3306 31.6585 26.8358L31.5746 26.7533C31.5746 26.7533 31.4907 26.7533 31.4907 26.6709L29.8131 25.3514C29.4775 25.104 28.8903 25.104 28.6387 25.5163C28.387 25.8462 28.387 26.4235 28.8065 26.6709L30.4841 27.9903L30.568 28.0728C30.8197 28.4851 30.8197 29.1449 30.4841 29.5572C29.9808 30.1345 28.9742 30.3819 28.3032 29.9695C28.2193 29.8871 28.1354 29.8871 28.0515 29.8046L27.9676 29.7221L26.2899 28.4027C25.9544 28.1553 25.3672 28.1553 25.1156 28.5676C24.8639 28.8975 24.8639 29.4747 25.2833 29.7221L26.961 31.0416C27.0449 31.0416 27.0449 31.1241 27.1288 31.2065C27.2966 31.7013 27.2966 32.1961 26.8771 32.6909C26.6255 33.1033 26.1222 33.2682 25.535 33.2682C25.1156 33.2682 24.78 33.1857 24.4445 32.8559L22.7668 31.6189L22.3474 31.3715C22.5152 30.9591 22.5991 30.5468 22.5991 30.052C22.5991 29.1449 22.2635 28.2377 21.5925 27.578C20.8375 26.8358 19.8309 26.5059 18.8243 26.5884C18.9082 25.5988 18.5726 24.6092 17.8177 23.867C17.0627 23.1248 16.0561 22.7949 15.0495 22.8774C15.0495 22.7949 15.0495 22.7125 15.0495 22.5475C15.0495 21.6404 14.714 20.7333 14.0429 20.0735C13.3719 19.4138 12.533 19.0839 11.5264 19.0839C10.8553 19.0839 10.1843 19.2489 9.68098 19.5787C9.34544 19.1664 8.84214 18.4242 8.67437 17.3521L14.714 7.04382C16.3917 6.71395 19.9148 6.13669 22.2635 6.46656L16.4756 11.7444C15.469 12.734 15.3851 14.3009 16.3917 15.3729C16.895 15.9502 17.6499 16.2801 18.4049 16.2801C18.9082 16.2801 19.4115 16.1151 19.8309 15.8677L24.6123 12.734C25.2833 12.2392 26.1222 12.0743 26.961 12.2392L27.7999 12.3217L35.4333 20.2385L36.7754 21.6404C37.1948 22.0527 37.1948 22.9599 36.7754 23.5371ZM37.4465 19.9911L36.5238 19.0015L30.3164 12.4866L31.4069 12.5691C31.8263 12.6516 32.2457 12.3217 32.3296 11.8269C32.4135 11.4146 32.0779 11.0022 31.5746 10.9198L28.387 10.5899C28.2193 10.5074 28.1354 10.5074 27.9676 10.5074L27.1288 10.425C25.9544 10.26 24.6123 10.5074 23.6057 11.2496L18.8243 14.3833C18.4049 14.6307 17.9016 14.5483 17.566 14.2184C17.2305 13.8061 17.2305 13.2288 17.566 12.8989L23.8573 7.12629C23.9412 7.04382 24.109 6.96135 24.1929 6.79642C24.3606 6.79642 24.4445 6.71395 24.5284 6.63149C26.2899 5.80682 29.8969 6.13669 32.1618 6.63149L39.7952 18.5891L37.4465 19.9911ZM42.3956 19.4963L41.8084 18.6716C41.8084 18.5891 41.8084 18.5067 41.7245 18.4242C41.6407 18.3417 41.5568 18.2593 41.5568 18.1768L32.6651 4.15749L36.2721 1.93089L46.0026 17.1872L42.3956 19.4963Z" fill="#3C3F47"/>
</svg>
